<!-- Generator: Adobe Illustrator 25.0.0, SVG Export Plug-In  -->
<svg version="1.1" xmlns="http://www.w3.org/2000/svg" xmlns:xlink="http://www.w3.org/1999/xlink" x="0px" y="0px" width="737.5px"
	 height="202.47px" viewBox="0 0 737.5 202.47" style="overflow:visible;enable-background:new 0 0 737.5 202.47;"
	 xml:space="preserve">
<style type="text/css">
	.st0{fill:none;stroke:#4E4E4E;stroke-width:0.9921;stroke-miterlimit:10;}
	.st1{fill:none;stroke:#662D91;stroke-width:0.9921;stroke-miterlimit:10;}
	.st2{fill:none;stroke:#EC008C;stroke-width:0.9921;stroke-miterlimit:10;}
	.st3{fill:none;stroke:#ED1C24;stroke-width:0.9921;stroke-miterlimit:10;}
	.st4{fill:none;stroke:#F7941D;stroke-width:0.9921;stroke-miterlimit:10;}
	.st5{fill:none;stroke:#000000;stroke-miterlimit:10;}
</style>
<defs>
</defs>
<g id="Normal_1_">
	<g id="Coordinates_2_">
		<path class="st0" d="M737.5,202.47"/>
		<path class="st1" d="M0,202.47"/>
		<path id="M2_2_" class="st2" d="M653.69,192.64"/>
		<path id="M1_2_" class="st3" d="M511.58,192.64"/>
		<path id="IM_4_" class="st4" d="M454.74,192.64"/>
		<path id="OM_2_" class="st3" d="M255.79,192.64"/>
	</g>
	<g id="Marker_2_">
		<line id="CM2_2_" class="st2" x1="653.69" y1="0" x2="653.69" y2="192.64"/>
		<line id="CM1_2_" class="st3" x1="511.58" y1="0" x2="511.58" y2="192.64"/>
		<line id="IM_1_" class="st4" x1="454.74" y1="0" x2="454.74" y2="192.64"/>
		<line id="MM_2_" class="st3" x1="255.79" y1="0" x2="255.79" y2="192.64"/>
	</g>
	<polyline class="st5" points="1.85,159.08 10.28,158.7 14.18,158.59 28.61,158.48 42.64,158.7 57.06,158.48 71.38,158.04 
		85.8,157.38 100,156.61 114.31,156 128.46,155.01 142.77,154.79 156.92,154.35 171.06,153.85 185.32,152.92 199.52,152.81 
		213.84,151.54 227.98,150.99 242.29,149.72 256.22,148.79 270.53,147.14 284.95,146.92 298.99,146.64 313.19,146.04 327.39,143.56 
		341.76,140.42 355.74,137.34 370.06,134.92 383.98,132.39 398.29,129.47 412.22,125.39 426.75,121.32 440.84,115.71 448.16,111.69 
		455.1,103.71 458.07,100.13 463.96,88.62 469.25,81.47 472.61,77.28 477.83,74.59 481.14,73.54 483.72,74.31 486.26,77.01 
		490.5,83.56 492.09,88.07 495.78,96.72 497.6,95.78 502.5,91.82 511.74,89.06 517.3,87.19 526.11,82.13 531.06,79.16 540.2,76.18 
		554.13,72.77 568.55,69.74 582.64,68.86 596.73,69.85 610.83,70.29 624.97,69.47 639.23,70.24 653.38,68.75 667.74,67.93 
		678.09,68.75 701.43,68.75 	"/>
</g>
</svg>
