<!-- Generator: Adobe Illustrator 25.0.0, SVG Export Plug-In  -->
<svg version="1.1" xmlns="http://www.w3.org/2000/svg" xmlns:xlink="http://www.w3.org/1999/xlink" x="0px" y="0px"
	 width="711.15px" height="228.66px" viewBox="0 0 711.15 228.66"
	 style="overflow:visible;enable-background:new 0 0 711.15 228.66;" xml:space="preserve">
<style type="text/css">
	.st0{fill:none;stroke:#4E4E4E;stroke-width:0.9921;stroke-miterlimit:10;}
	.st1{fill:none;stroke:#3DB54A;stroke-width:0.9921;stroke-miterlimit:10;}
	.st2{fill:none;stroke:#F79421;stroke-width:0.9921;stroke-miterlimit:10;}
	.st3{fill:none;stroke:#EC2227;stroke-width:0.9921;stroke-miterlimit:10;}
	.st4{fill:none;stroke:#67308F;stroke-width:0.9921;stroke-miterlimit:10;}
	.st5{fill:none;stroke:#000000;stroke-miterlimit:10;}
</style>
<defs>
</defs>
<g id="Normal_1_">
	<g id="Coordinates_2_">
		<path id="_x31_0_2_" class="st0" d="M710.78,228.66"/>
		<path id="_x30_1_2_" class="st1" d="M0.18,0"/>
		<path id="_x30_0_2_" class="st0" d="M0.26,228.66"/>
		<path id="IM_4_" class="st2" d="M511.84,217.83"/>
		<path id="MM_4_" class="st3" d="M284.47,217.83"/>
		<path id="OM_4_" class="st4" d="M85.52,217.83"/>
	</g>
	<g id="Marker_2_">
		<line id="IM_1_" class="st2" x1="511.84" y1="16.12" x2="511.84" y2="209.28"/>
		<line id="MM_1_" class="st3" x1="284.47" y1="16.12" x2="284.47" y2="209.28"/>
		<line id="OM_1_" class="st4" x1="85.52" y1="16.12" x2="85.52" y2="209.28"/>
	</g>
	<polyline class="st5" points="0.18,171.64 10.92,167.4 14.55,163.88 17.3,159.92 29.08,147.64 43.23,135.37 57.54,127 59.8,125.68 
		71.58,121.22 86.5,119.18 99.93,119.13 114.79,120.12 128.66,122.49 142.97,124.74 156.95,127.88 171.54,130.8 186.24,133.94 
		199.83,138.06 214.37,142.08 228.29,145.99 242.94,149.73 256.75,152.76 270.95,152.93 285.82,150.01 299.25,146.43 313.61,143.51 
		328.04,138.12 342.13,130.8 356.22,121.88 370.59,110.16 384.4,100.96 399.16,90.34 412.97,83.35 427.12,77.73 435.05,77.07 
		441.16,77.62 455.41,81.75 469.94,87.64 483.98,95.9 497.96,103.72 512.66,107.57 526.48,110.82 540.46,107.51 547.06,106.52 
		554.82,102.78 563.63,97.39 569.14,94.25 575.19,90.06 583.56,81.2 587.96,76.41 597.32,70.58 611.47,62.98 620.16,60.95 
		625.72,61.72 630.51,64.14 633.1,68.65 637.34,79.61 639.54,90.89 640.26,135.97 642.07,147.59 645.82,159.31 651.32,170.54 
		657.26,181.72 662.22,189.42 667.78,195.2 676.31,202.08 682.42,206.43 688.97,210.5 696.4,213.15 710.99,218.21 	"/>
</g>
</svg>
