<!-- Generator: Adobe Illustrator 25.0.0, SVG Export Plug-In  -->
<svg version="1.1" xmlns="http://www.w3.org/2000/svg" xmlns:xlink="http://www.w3.org/1999/xlink" x="0px" y="0px"
	 width="710.53px" height="228.66px" viewBox="0 0 710.53 228.66"
	 style="overflow:visible;enable-background:new 0 0 710.53 228.66;" xml:space="preserve">
<style type="text/css">
	.st0{fill:none;stroke:#4E4E4E;stroke-width:0.9921;stroke-miterlimit:10;}
	.st1{fill:none;stroke:#3DB54A;stroke-width:0.9921;stroke-miterlimit:10;}
	.st2{fill:none;stroke:#F79421;stroke-width:0.9921;stroke-miterlimit:10;}
	.st3{fill:none;stroke:#EC2227;stroke-width:0.9921;stroke-miterlimit:10;}
	.st4{fill:none;stroke:#67308F;stroke-width:0.9921;stroke-miterlimit:10;}
	.st5{fill:none;stroke:#000000;stroke-miterlimit:10;}
</style>
<defs>
</defs>
<g id="Normal_1_">
	<g id="Coordinates_2_">
		<path id="_x30_0_2_" class="st0" d="M0,228.66"/>
		<path id="_x30_1_2_" class="st1" d="M0,0"/>
		<path id="_x31_0_2_" class="st0" d="M710.53,228.66"/>
		<path id="IM_4_" class="st2" d="M511.58,218.83"/>
		<path id="MM_4_" class="st3" d="M284.21,218.83"/>
		<path id="OM_4_" class="st4" d="M85.26,218.83"/>
	</g>
	<g id="Marker_2_">
		<line id="IM_1_" class="st2" x1="511.58" y1="4.6" x2="511.58" y2="224.35"/>
		<line id="MM_1_" class="st3" x1="284.21" y1="4.6" x2="284.21" y2="224.35"/>
		<line id="OM_1_" class="st4" x1="85.26" y1="4.6" x2="85.26" y2="224.35"/>
	</g>
	<polyline class="st5" points="1.58,183.29 7.63,178.66 15.12,173.93 21.06,167.54 26.24,161.05 29.87,155.76 33.4,149.27 
		37.03,144.2 44.18,138.15 48.92,133.52 55.74,126.26 59.05,124.5 72.7,120.42 86.24,120.64 101.32,122.96 115.19,126.48 
		128.95,130.55 143.71,135.73 158.02,141.23 172,147.95 186.09,154.44 191.71,156.97 200.62,157.85 207.34,157.74 214.61,156.09 
		227.38,149.6 237.17,138.59 243.67,130.66 254.35,115.36 262.72,103.69 268.88,92.46 271.74,86.63 274.61,80.79 281.65,68.9 
		285.17,66.26 288.81,66.92 292.44,68.9 297.39,150.59 306.31,149.16 309.17,144.09 312.81,133.52 316.33,125.93 318.2,114.92 
		323.6,103.47 327.89,95.1 333.39,91.8 343.74,86.85 356.73,88.06 370.94,88.61 384.59,89.6 399.56,92.35 412.99,92.79 
		427.08,93.67 441.61,91.69 455.82,90.81 470.57,87.73 484.22,82.88 498.64,77.71 513.06,71.1 526.05,63.95 532.99,59.1 
		541.03,53.05 554.79,47.1 569.21,41.71 583.52,36.97 597.5,33.67 611.93,33.23 620.4,34.22 626.68,38.63 631.3,45.56 637.47,58.22 
		641.21,69.45 644.07,91.14 646.83,114.7 648.04,137.6 648.92,160.28 650.79,195.07 653.98,217.52 661.8,226.66 710.02,226.66 	"/>
</g>
</svg>
