<!-- Generator: Adobe Illustrator 25.0.0, SVG Export Plug-In  -->
<svg version="1.1" xmlns="http://www.w3.org/2000/svg" xmlns:xlink="http://www.w3.org/1999/xlink" x="0px" y="0px"
	 width="711.01px" height="228.66px" viewBox="0 0 711.01 228.66"
	 style="overflow:visible;enable-background:new 0 0 711.01 228.66;" xml:space="preserve">
<style type="text/css">
	.st0{fill:none;stroke:#4E4E4E;stroke-width:0.9921;stroke-miterlimit:10;}
	.st1{fill:none;stroke:#3DB54A;stroke-width:0.9921;stroke-miterlimit:10;}
	.st2{fill:none;stroke:#F79421;stroke-width:0.9921;stroke-miterlimit:10;}
	.st3{fill:none;stroke:#EC2227;stroke-width:0.9921;stroke-miterlimit:10;}
	.st4{fill:none;stroke:#67308F;stroke-width:0.9921;stroke-miterlimit:10;}
	.st5{fill:none;stroke:#000000;stroke-miterlimit:10;}
</style>
<defs>
</defs>
<g id="Normal_1_">
	<g id="Coordinates_2_">
		<path id="_x30_0_2_" class="st0" d="M0.33,228.66"/>
		<path id="_x30_1_2_" class="st1" d="M0.25,0"/>
		<path id="_x31_0_2_" class="st0" d="M710.86,228.66"/>
		<path id="IM_4_" class="st2" d="M511.91,223.83"/>
		<path id="MM_4_" class="st3" d="M284.54,223.83"/>
		<path id="OM_4_" class="st4" d="M85.6,223.83"/>
	</g>
	<g id="Marker_2_">
		<line id="IM_1_" class="st2" x1="511.91" y1="16.12" x2="511.91" y2="205.79"/>
		<line id="MM_1_" class="st3" x1="284.54" y1="16.12" x2="284.54" y2="205.79"/>
		<line id="OM_1_" class="st4" x1="85.6" y1="16.12" x2="85.6" y2="205.79"/>
	</g>
	<polyline class="st5" points="0.09,205.19 39.4,197.6 44.68,193.63 47.32,183.4 50.46,173.98 56.74,168.7 64.17,165.56 
		71.1,167.38 77.21,170.68 84.98,181.74 89.93,186.53 96.37,190 100.5,190.99 107.76,190 114.54,188.85 128.57,185.38 
		142.77,181.58 156.81,177.95 171.34,172.66 185.38,167.87 199.75,163.74 213.95,157.63 228.81,152.85 242.52,148.55 256.22,141.78 
		271.09,135.51 285.62,132.53 299.49,131.21 313.53,130.06 327.56,130.72 342.09,131.05 355.97,132.2 370.83,134.35 384.53,136.5 
		399.07,140.46 412.77,145.08 427.8,150.37 441.51,155.65 455.05,162.09 469.91,170.85 483.62,178.77 498.15,184.55 511.86,186.04 
		526.55,184.55 541.25,181.25 555.12,177.78 568.83,173.82 584.19,165.89 595.75,160.44 604.66,154.83 611.43,152.85 619.86,152.19 
		624.48,152.85 631.58,154.83 635.38,158.96 640,168.37 643.97,181.74 645.29,193.47 647.27,201.73 652.88,206.35 659.49,208.66 
		711.01,208.66 	"/>
</g>
</svg>
