<!-- Generator: Adobe Illustrator 25.0.0, SVG Export Plug-In  -->
<svg version="1.1" xmlns="http://www.w3.org/2000/svg" xmlns:xlink="http://www.w3.org/1999/xlink" x="0px" y="0px"
	 width="710.61px" height="228.66px" viewBox="0 0 710.61 228.66"
	 style="overflow:visible;enable-background:new 0 0 710.61 228.66;" xml:space="preserve">
<style type="text/css">
	.st0{fill:none;stroke:#4E4E4E;stroke-width:0.9921;stroke-miterlimit:10;}
	.st1{fill:none;stroke:#3DB54A;stroke-width:0.9921;stroke-miterlimit:10;}
	.st2{fill:none;stroke:#F79421;stroke-width:0.9921;stroke-miterlimit:10;}
	.st3{fill:none;stroke:#EC2227;stroke-width:0.9921;stroke-miterlimit:10;}
	.st4{fill:none;stroke:#67308F;stroke-width:0.9921;stroke-miterlimit:10;}
	.st5{fill:none;stroke:#000000;stroke-miterlimit:10;}
</style>
<defs>
</defs>
<g id="Normal_1_">
	<g id="Coordinates_2_">
		<path id="_x30_0_2_" class="st0" d="M0.08,228.66"/>
		<path id="_x30_1_2_" class="st1" d="M0,0"/>
		<path id="_x31_0_2_" class="st0" d="M710.61,228.66"/>
		<path id="IM_4_" class="st2" d="M511.66,218.83"/>
		<path id="MM_4_" class="st3" d="M284.29,218.83"/>
		<path id="OM_4_" class="st4" d="M85.34,218.83"/>
	</g>
	<g id="Marker_2_">
		<line id="IM_1_" class="st2" x1="511.66" y1="13.03" x2="511.66" y2="222.68"/>
		<line id="MM_1_" class="st3" x1="284.29" y1="13.03" x2="284.29" y2="222.68"/>
		<line id="OM_1_" class="st4" x1="85.34" y1="13.03" x2="85.34" y2="222.68"/>
	</g>
	<polyline class="st5" points="0.42,182.16 9.09,177.62 14.87,173.57 17.43,171.42 27.83,160.28 29.24,158.05 36.92,148.47 
		43.27,141.04 46.99,137.07 52.36,130.88 57.31,127.99 63.09,125.6 71.76,123.53 79.03,123.2 85.55,124.61 92.24,126.67 
		100.33,130.63 110.32,136.91 114.86,139.88 128.73,151.36 138.97,159.86 143.1,163.83 151.6,171.18 157.3,175.3 165.56,179.68 
		171.42,180.01 176.95,177.78 185.87,172.99 188.43,171.34 196.03,160.94 199.82,156.81 207.59,148.72 214.03,139.8 228.56,124.36 
		237.39,114.62 242.35,109.33 250.44,103.39 256.71,98.68 266.7,91.83 271.82,88.85 284.79,83.49 294.94,80.52 299.48,80.35 
		306.34,80.85 313.69,82.33 327.56,86.46 342.5,91.25 356.21,96.12 370.58,100.66 384.7,106.11 398.73,111.89 404.76,114.04 
		413.02,115.94 426.97,117.51 441.34,119.9 455.46,121.14 469.74,122.05 483.61,123.45 497.98,124.61 512.02,125.18 526.47,125.1 
		540.83,123.04 554.7,121.39 569.65,114.45 582.78,107.51 590.13,105.12 593.26,102.56 597.56,99.42 604.08,96.95 611.51,96.45 
		620.1,97.36 626.21,99.42 629.18,101.98 637.93,113.29 639.83,118.5 642.23,124.61 645.2,136.41 648.5,158.79 651.47,181.5 
		652.22,215.68 653.87,218.49 662.54,224.18 668.07,226.17 710.1,226.17 	"/>
</g>
</svg>
