<!-- Generator: Adobe Illustrator 25.0.0, SVG Export Plug-In  -->
<svg version="1.1" xmlns="http://www.w3.org/2000/svg" xmlns:xlink="http://www.w3.org/1999/xlink" x="0px" y="0px"
	 width="737.99px" height="209.26px" viewBox="0 0 737.99 209.26"
	 style="overflow:visible;enable-background:new 0 0 737.99 209.26;" xml:space="preserve">
<style type="text/css">
	.st0{fill:none;stroke:#4E4E4E;stroke-width:0.9921;stroke-miterlimit:10;}
	.st1{fill:none;stroke:#662D91;stroke-width:0.9921;stroke-miterlimit:10;}
	.st2{fill:none;stroke:#EC008C;stroke-width:0.9921;stroke-miterlimit:10;}
	.st3{fill:none;stroke:#ED1C24;stroke-width:0.9921;stroke-miterlimit:10;}
	.st4{fill:none;stroke:#F7941D;stroke-width:0.9921;stroke-miterlimit:10;}
	.st5{fill:none;stroke:#000000;stroke-miterlimit:10;}
</style>
<defs>
</defs>
<g id="Normal_1_">
	<g id="Coordinates_2_">
		<path class="st0" d="M737.5,209.26"/>
		<path class="st1" d="M0,209.26"/>
		<path id="M2_2_" class="st2" d="M653.69,199.43"/>
		<path id="M1_2_" class="st3" d="M511.58,199.43"/>
		<path id="IM_4_" class="st4" d="M454.74,199.43"/>
		<path id="OM_2_" class="st3" d="M255.79,199.43"/>
	</g>
	<g id="Marker_2_">
		<line id="CM2_2_" class="st2" x1="653.69" y1="6.79" x2="653.69" y2="199.43"/>
		<line id="CM1_2_" class="st3" x1="511.58" y1="6.79" x2="511.58" y2="199.43"/>
		<line id="IM_1_" class="st4" x1="454.74" y1="6.79" x2="454.74" y2="199.43"/>
		<line id="MM_2_" class="st3" x1="255.79" y1="6.79" x2="255.79" y2="199.43"/>
	</g>
	<polyline class="st5" points="0.64,170.17 14.95,169.56 29.32,168.35 43.25,166.86 57.67,164.06 72.09,160.7 86.24,156.79 
		100.39,153.98 114.64,151.29 129.06,148.59 143.27,145.23 157.36,141.16 171.78,137.91 186.15,134.77 200.13,130.92 206.9,128.5 
		214.55,125.53 228.59,119.91 236.13,117.43 242.95,114.9 249.73,113.19 257.32,117.05 271.47,120.35 285.23,120.46 299.65,121.01 
		313.63,121.4 328.11,122.06 342.26,121.84 356.18,121.12 370.55,121.07 384.7,120.3 399.01,119.3 406.61,119.14 412.94,108.35 
		421.8,94.37 427.36,85.62 435.45,71.75 441.67,58.26 446.24,48.79 455.65,33.71 469.96,32.61 484.27,32.33 498.26,30.85 
		512.35,28.59 526.5,25.67 540.92,20.94 555.12,16.26 569.05,11.75 583.8,7.18 597.56,3.6 611.87,0.52 625.69,4.75 640.22,4.86 
		653.54,4.7 668.79,3.27 682.49,3.65 696.81,3.71 711.12,4.15 724.05,4.48 737.98,4.2 	"/>
</g>
</svg>
