<!-- Generator: Adobe Illustrator 25.0.0, SVG Export Plug-In  -->
<svg version="1.1" xmlns="http://www.w3.org/2000/svg" xmlns:xlink="http://www.w3.org/1999/xlink" x="0px" y="0px"
	 width="710.94px" height="228.66px" viewBox="0 0 710.94 228.66"
	 style="overflow:visible;enable-background:new 0 0 710.94 228.66;" xml:space="preserve">
<style type="text/css">
	.st0{fill:none;stroke:#4E4E4E;stroke-width:0.9921;stroke-miterlimit:10;}
	.st1{fill:none;stroke:#3DB54A;stroke-width:0.9921;stroke-miterlimit:10;}
	.st2{fill:none;stroke:#F79421;stroke-width:0.9921;stroke-miterlimit:10;}
	.st3{fill:none;stroke:#EC2227;stroke-width:0.9921;stroke-miterlimit:10;}
	.st4{fill:none;stroke:#67308F;stroke-width:0.9921;stroke-miterlimit:10;}
	.st5{fill:none;stroke:#000000;stroke-miterlimit:10;}
</style>
<defs>
</defs>
<g id="Normal_1_">
	<g id="Coordinates_2_">
		<path id="_x30_0_2_" class="st0" d="M0.42,228.66"/>
		<path id="_x30_1_2_" class="st1" d="M0.34,0"/>
		<path id="_x31_0_2_" class="st0" d="M710.94,228.66"/>
		<path id="IM_4_" class="st2" d="M512,218.83"/>
		<path id="MM_4_" class="st3" d="M284.63,218.83"/>
		<path id="OM_4_" class="st4" d="M85.68,218.83"/>
	</g>
	<g id="Marker_2_">
		<line id="IM_1_" class="st2" x1="512" y1="13.03" x2="512" y2="222.68"/>
		<line id="MM_1_" class="st3" x1="284.63" y1="13.03" x2="284.63" y2="222.68"/>
		<line id="OM_1_" class="st4" x1="85.68" y1="13.03" x2="85.68" y2="222.68"/>
	</g>
	<polyline class="st5" points="0.12,185.51 6.18,183.97 14.66,182.27 28.8,178.63 42.95,174.73 57.43,169.94 71.35,166.08 
		85.61,163.72 99.98,162.62 114.07,162.45 128.6,162.4 142.8,162.12 156.62,161.35 171.04,160.91 185.41,161.68 199.72,162.4 
		214.09,162.95 228.12,162.78 236.38,160.52 242.43,156.84 248.32,148.74 257.52,137.4 265.72,125.96 270.89,117.64 278.49,103.39 
		285.7,91.44 292.86,87.97 299.46,87.15 303.92,86.05 313.61,86.32 320.54,85.77 327.65,86.98 335.19,88.58 341.52,89.02 
		355.66,91.28 369.87,91.33 380.32,91.44 385.39,90.51 398.6,86.82 412.69,82.85 420.12,79.77 427.06,77.29 441.15,71.85 
		455.19,69.75 469.66,68.54 483.65,69.59 497.96,69.53 512.43,70.14 525.98,71.57 540.73,72.4 554.27,72.45 568.91,69.48 
		583.11,64.58 597.48,58.14 611.35,50.71 625.77,43.72 640.03,41.74 653.85,40.63 667.44,39.04 682.31,40.3 696.12,41.13 
		710.38,42.78 	"/>
</g>
</svg>
