<!-- Generator: Adobe Illustrator 25.0.0, SVG Export Plug-In  -->
<svg version="1.1" xmlns="http://www.w3.org/2000/svg" xmlns:xlink="http://www.w3.org/1999/xlink" x="0px" y="0px"
	 width="710.97px" height="228.66px" viewBox="0 0 710.97 228.66"
	 style="overflow:visible;enable-background:new 0 0 710.97 228.66;" xml:space="preserve">
<style type="text/css">
	.st0{fill:none;stroke:#4E4E4E;stroke-width:0.9921;stroke-miterlimit:10;}
	.st1{fill:none;stroke:#3DB54A;stroke-width:0.9921;stroke-miterlimit:10;}
	.st2{fill:none;stroke:#F79421;stroke-width:0.9921;stroke-miterlimit:10;}
	.st3{fill:none;stroke:#EC2227;stroke-width:0.9921;stroke-miterlimit:10;}
	.st4{fill:none;stroke:#67308F;stroke-width:0.9921;stroke-miterlimit:10;}
	.st5{fill:none;stroke:#000000;stroke-miterlimit:10;}
</style>
<defs>
</defs>
<g id="Normal_1_">
	<g id="Coordinates_2_">
		<path id="_x31_0_2_" class="st0" d="M710.61,228.66"/>
		<path id="_x30_1_2_" class="st1" d="M0,0"/>
		<path id="_x30_0_2_" class="st0" d="M0.08,228.66"/>
		<path id="IM_4_" class="st2" d="M511.66,217.83"/>
		<path id="MM_4_" class="st3" d="M284.29,217.83"/>
		<path id="OM_4_" class="st4" d="M85.34,217.83"/>
	</g>
	<g id="Marker_2_">
		<line id="IM_1_" class="st2" x1="511.66" y1="16.12" x2="511.66" y2="209.28"/>
		<line id="MM_1_" class="st3" x1="284.29" y1="16.12" x2="284.29" y2="209.28"/>
		<line id="OM_1_" class="st4" x1="85.34" y1="16.12" x2="85.34" y2="209.28"/>
	</g>
	<polyline class="st5" points="0.39,185.95 5.79,187.74 14.62,187.19 21.17,187.3 28.93,188.79 42.94,191.07 57.23,193.63 
		66.64,193.22 71.51,192.23 85.88,186.94 100.25,179.68 114.7,170.76 125.84,163.58 128.73,162.67 142.69,160.69 157.3,160.94 
		171.09,161.43 185.71,160.77 199.25,161.27 214.11,159.12 227.9,157.22 242.76,144.34 256.71,127.83 270.42,108.42 273.81,104.05 
		280.58,93.06 285.53,81.83 286.6,69.78 299.65,67.8 314.02,67.14 328.05,66.23 342.42,66.48 356.21,67.06 371.07,69.2 385.27,69.7 
		398.65,70.85 412.77,71.27 426.39,71.43 441.5,71.35 455.21,70.36 463.3,69.28 469.66,67.63 483.53,61.28 497.98,54.5 
		512.51,48.64 526.71,42.28 540.5,34.77 554.87,28.91 568.49,23.46 583.03,23.13 597.56,24.53 611.59,26.51 625.55,28 639.5,27.92 
		653.79,28 668.07,28.33 682.52,26.84 696.89,26.51 710.92,27.75 	"/>
</g>
</svg>
