<!-- Generator: Adobe Illustrator 25.0.0, SVG Export Plug-In  -->
<svg version="1.1" xmlns="http://www.w3.org/2000/svg" xmlns:xlink="http://www.w3.org/1999/xlink" x="0px" y="0px"
	 width="710.61px" height="228.66px" viewBox="0 0 710.61 228.66"
	 style="overflow:visible;enable-background:new 0 0 710.61 228.66;" xml:space="preserve">
<style type="text/css">
	.st0{fill:none;stroke:#4E4E4E;stroke-width:0.9921;stroke-miterlimit:10;}
	.st1{fill:none;stroke:#3DB54A;stroke-width:0.9921;stroke-miterlimit:10;}
	.st2{fill:none;stroke:#F79421;stroke-width:0.9921;stroke-miterlimit:10;}
	.st3{fill:none;stroke:#EC2227;stroke-width:0.9921;stroke-miterlimit:10;}
	.st4{fill:none;stroke:#67308F;stroke-width:0.9921;stroke-miterlimit:10;}
	.st5{fill:none;stroke:#000000;stroke-miterlimit:10;}
</style>
<defs>
</defs>
<g id="Normal_1_">
	<g id="Coordinates_2_">
		<path id="_x30_0_2_" class="st0" d="M0.08,228.66"/>
		<path id="_x30_1_2_" class="st1" d="M0,0"/>
		<path id="_x31_0_2_" class="st0" d="M710.61,228.66"/>
		<path id="IM_4_" class="st2" d="M511.66,223.83"/>
		<path id="MM_4_" class="st3" d="M284.29,223.83"/>
		<path id="OM_4_" class="st4" d="M85.34,223.83"/>
	</g>
	<g id="Marker_2_">
		<line id="IM_1_" class="st2" x1="511.66" y1="16.12" x2="511.66" y2="205.79"/>
		<line id="MM_1_" class="st3" x1="284.29" y1="16.12" x2="284.29" y2="205.79"/>
		<line id="OM_1_" class="st4" x1="85.34" y1="16.12" x2="85.34" y2="205.79"/>
	</g>
	<polyline class="st5" points="0.23,138.97 2.15,139.03 9.42,138.81 14.15,137.16 28.3,131.76 35.68,127.63 42.61,123.73 
		57.04,115.41 71.24,109.63 87.59,117.51 99.59,117.01 114.28,116.02 128.21,114.31 142.36,113.38 156.83,113.43 171.09,113.87 
		185.24,114.04 197.35,114.31 199.27,114.59 213.81,114.64 227.84,114.75 242.21,114.97 256.69,115.69 270.89,116.57 285.15,117.07 
		299.13,117.34 313.22,117.78 327.26,117.84 341.57,118.06 355.88,118.39 369.86,118.22 384.06,117.62 398.21,117.45 412.58,117.78 
		426.72,117.51 440.98,117.89 455.02,117.95 469.05,117.67 483.53,116.57 497.73,116.3 511.71,115.86 526.08,116.19 540.17,116.19 
		554.37,116.08 568.63,115.8 582.78,115.8 597.09,116.08 611.46,115.58 625.49,115.08 639.53,115.14 653.95,115.14 668.1,113.49 
		681.92,112.61 696.17,112.83 710.43,112.72 	"/>
</g>
</svg>
