<!-- Generator: Adobe Illustrator 25.0.0, SVG Export Plug-In  -->
<svg version="1.1" xmlns="http://www.w3.org/2000/svg" xmlns:xlink="http://www.w3.org/1999/xlink" x="0px" y="0px"
	 width="710.53px" height="228.66px" viewBox="0 0 710.53 228.66"
	 style="overflow:visible;enable-background:new 0 0 710.53 228.66;" xml:space="preserve">
<style type="text/css">
	.st0{fill:none;stroke:#4E4E4E;stroke-width:0.9921;stroke-miterlimit:10;}
	.st1{fill:none;stroke:#3DB54A;stroke-width:0.9921;stroke-miterlimit:10;}
	.st2{fill:none;stroke:#F79421;stroke-width:0.9921;stroke-miterlimit:10;}
	.st3{fill:none;stroke:#EC2227;stroke-width:0.9921;stroke-miterlimit:10;}
	.st4{fill:none;stroke:#67308F;stroke-width:0.9921;stroke-miterlimit:10;}
	.st5{fill:none;stroke:#000000;stroke-miterlimit:10;}
</style>
<defs>
</defs>
<g id="Normal_1_">
	<g id="Coordinates_2_">
		<path id="_x30_0_2_" class="st0" d="M0,228.66"/>
		<path id="_x30_1_2_" class="st1" d="M0,0"/>
		<path id="_x31_0_2_" class="st0" d="M710.53,228.66"/>
		<path id="IM_4_" class="st2" d="M511.58,218.83"/>
		<path id="MM_4_" class="st3" d="M284.21,218.83"/>
		<path id="OM_4_" class="st4" d="M85.26,218.83"/>
	</g>
	<g id="Marker_2_">
		<line id="IM_1_" class="st2" x1="511.58" y1="4.6" x2="511.58" y2="224.35"/>
		<line id="MM_1_" class="st3" x1="284.21" y1="4.6" x2="284.21" y2="224.35"/>
		<line id="OM_1_" class="st4" x1="85.26" y1="4.6" x2="85.26" y2="224.35"/>
	</g>
	<polyline class="st5" points="0.51,164.08 14.38,163.91 28.74,163.66 43.03,163.74 57.06,163.41 71.27,163 85.72,163.99 
		99.84,164.9 113.95,164.74 128.49,164.98 142.61,164.98 156.48,164.98 171.09,165.64 185.21,165.81 199.33,166.14 213.45,166.39 
		227.57,166.97 234.84,167.38 238.06,166.3 240.78,161.1 242.27,157.55 245.4,149.3 250.52,137.98 256.14,122.46 258.28,115.36 
		261.67,103.8 266.46,92.49 270.59,81.01 273.48,69.86 278.1,59.63 281.49,48.64 284.87,44.6 298.33,42.95 312.45,41.87 
		327.06,41.71 341.02,41.3 354.89,41.63 369.5,41.79 383.62,43.52 397.41,44.6 403.94,45.18 411.7,43.86 426.06,41.96 440.43,39.23 
		454.22,36.26 468.34,32.63 482.54,29.74 496.99,26.43 508.39,23.38 511.19,23.46 525.15,29.41 539.27,34.44 553.38,38.65 
		567.83,41.21 581.71,43.61 594.59,45.01 596.98,44.43 610.11,35.93 624.23,23.38 638.1,21.73 652.55,18.67 666.75,15.62 
		680.62,11.49 694.99,7.28 709.27,2.57 	"/>
</g>
</svg>
