<!-- Generator: Adobe Illustrator 25.0.0, SVG Export Plug-In  -->
<svg version="1.1" xmlns="http://www.w3.org/2000/svg" xmlns:xlink="http://www.w3.org/1999/xlink" x="0px" y="0px"
	 width="711.02px" height="228.66px" viewBox="0 0 711.02 228.66"
	 style="overflow:visible;enable-background:new 0 0 711.02 228.66;" xml:space="preserve">
<style type="text/css">
	.st0{fill:none;stroke:#4E4E4E;stroke-width:0.9921;stroke-miterlimit:10;}
	.st1{fill:none;stroke:#3DB54A;stroke-width:0.9921;stroke-miterlimit:10;}
	.st2{fill:none;stroke:#F79421;stroke-width:0.9921;stroke-miterlimit:10;}
	.st3{fill:none;stroke:#EC2227;stroke-width:0.9921;stroke-miterlimit:10;}
	.st4{fill:none;stroke:#67308F;stroke-width:0.9921;stroke-miterlimit:10;}
	.st5{fill:none;stroke:#000000;stroke-miterlimit:10;}
</style>
<defs>
</defs>
<g id="Normal_1_">
	<g id="Coordinates_2_">
		<path id="_x30_0_2_" class="st0" d="M0.08,228.66"/>
		<path id="_x30_1_2_" class="st1" d="M0,0"/>
		<path id="_x31_0_2_" class="st0" d="M710.61,228.66"/>
		<path id="IM_4_" class="st2" d="M511.66,223.83"/>
		<path id="MM_4_" class="st3" d="M284.29,223.83"/>
		<path id="OM_4_" class="st4" d="M85.34,223.83"/>
	</g>
	<g id="Marker_2_">
		<line id="IM_1_" class="st2" x1="511.66" y1="16.12" x2="511.66" y2="205.79"/>
		<line id="MM_1_" class="st3" x1="284.29" y1="16.12" x2="284.29" y2="205.79"/>
		<line id="OM_1_" class="st4" x1="85.34" y1="16.12" x2="85.34" y2="205.79"/>
	</g>
	<polyline class="st5" points="1.22,208.5 14.98,207.95 29.29,207.95 43.27,207.07 58.03,206.74 71.57,206.3 86.43,206.08 
		100.63,206.96 114.5,207.4 128.48,207.29 142.8,206.85 156.67,206.3 170.76,206.85 185.18,207.07 199.82,208.28 213.92,210.04 
		227.68,211.14 242.1,211.14 255.97,211.14 262.69,211.36 270.5,210.15 284.48,209.05 299.13,208.72 312.89,208.06 327.09,207.29 
		341.51,207.51 355.38,207.4 369.15,206.41 384.01,205.85 397.55,205.85 404.81,204.86 412.19,203.54 421.66,202.33 425.73,202.55 
		440.92,201.89 454.47,201.01 469.22,200.46 482.98,200.02 497.07,197.49 512.15,195.18 525.59,194.52 540.01,192.75 554.21,191.54 
		568.52,190.33 582.72,189.01 597.14,187.91 601.66,187.25 604.3,184.83 611.35,184.72 617.84,184.94 625.22,188.02 639.31,192.97 
		644.04,195.07 654.17,200.24 663.75,206.3 667.16,208.83 683.02,213.56 696.01,217.52 710.75,226.88 	"/>
</g>
</svg>
