<!-- Generator: Adobe Illustrator 25.0.0, SVG Export Plug-In  -->
<svg version="1.1" xmlns="http://www.w3.org/2000/svg" xmlns:xlink="http://www.w3.org/1999/xlink" x="0px" y="0px"
	 width="710.53px" height="228.66px" viewBox="0 0 710.53 228.66"
	 style="overflow:visible;enable-background:new 0 0 710.53 228.66;" xml:space="preserve">
<style type="text/css">
	.st0{fill:none;stroke:#4E4E4E;stroke-width:0.9921;stroke-miterlimit:10;}
	.st1{fill:none;stroke:#3DB54A;stroke-width:0.9921;stroke-miterlimit:10;}
	.st2{fill:none;stroke:#F79421;stroke-width:0.9921;stroke-miterlimit:10;}
	.st3{fill:none;stroke:#EC2227;stroke-width:0.9921;stroke-miterlimit:10;}
	.st4{fill:none;stroke:#67308F;stroke-width:0.9921;stroke-miterlimit:10;}
	.st5{fill:none;stroke:#000000;stroke-miterlimit:10;}
</style>
<defs>
</defs>
<g id="Normal_1_">
	<g id="Coordinates_2_">
		<path id="_x30_0_2_" class="st0" d="M0,228.66"/>
		<path id="_x30_1_2_" class="st1" d="M0,0"/>
		<path id="_x31_0_2_" class="st0" d="M710.53,228.66"/>
		<path id="IM_4_" class="st2" d="M511.58,218.83"/>
		<path id="MM_4_" class="st3" d="M284.21,218.83"/>
		<path id="OM_4_" class="st4" d="M85.26,218.83"/>
	</g>
	<g id="Marker_2_">
		<line id="IM_1_" class="st2" x1="511.58" y1="4.6" x2="511.58" y2="224.35"/>
		<line id="MM_1_" class="st3" x1="284.21" y1="4.6" x2="284.21" y2="224.35"/>
		<line id="OM_1_" class="st4" x1="85.26" y1="4.6" x2="85.26" y2="224.35"/>
	</g>
	<polyline class="st5" points="1.91,205.08 14.57,205.14 28.99,205.69 43.08,206.35 57.51,205.58 71.49,204.97 79.25,203.49 
		85.58,200.13 99.73,194.96 114.04,193.03 127.91,192.86 142.17,193.08 156.37,192.09 170.51,191.82 184.72,189.73 198.92,185.93 
		212.79,182.63 226.99,175.41 234.86,171.01 241.08,167.71 248.4,163.63 254.07,159.29 255.45,157.69 266.79,148.11 269.54,145.85 
		278.18,139.63 283.69,136.33 290.57,133.97 297.61,133.19 311.76,129.51 318.64,126.92 325.91,122.08 330.7,113.54 332.95,106.55 
		334,98.35 336.15,92.35 338.35,88.33 340.44,87.01 345.56,84.09 354.26,82.28 359.98,80.74 368.46,78.59 382.39,78.59 387.39,78.7 
		396.81,76.72 410.9,75.34 424.99,77.1 438.64,79.25 453.56,78.42 467.71,79.25 482.13,77.71 496,73.3 510.48,69.62 524.57,69.29 
		538.94,69.45 549.28,69.84 	"/>
</g>
</svg>
