<!-- Generator: Adobe Illustrator 25.0.0, SVG Export Plug-In  -->
<svg version="1.1" xmlns="http://www.w3.org/2000/svg" xmlns:xlink="http://www.w3.org/1999/xlink" x="0px" y="0px" width="737.5px"
	 height="202.47px" viewBox="0 0 737.5 202.47" style="overflow:visible;enable-background:new 0 0 737.5 202.47;"
	 xml:space="preserve">
<style type="text/css">
	.st0{fill:none;stroke:#4E4E4E;stroke-width:0.9921;stroke-miterlimit:10;}
	.st1{fill:none;stroke:#662D91;stroke-width:0.9921;stroke-miterlimit:10;}
	.st2{fill:none;stroke:#EC008C;stroke-width:0.9921;stroke-miterlimit:10;}
	.st3{fill:none;stroke:#ED1C24;stroke-width:0.9921;stroke-miterlimit:10;}
	.st4{fill:none;stroke:#F7941D;stroke-width:0.9921;stroke-miterlimit:10;}
	.st5{fill:none;stroke:#000000;stroke-miterlimit:10;}
</style>
<defs>
</defs>
<g id="Normal_1_">
	<g id="Coordinates_2_">
		<path class="st0" d="M737.5,202.47"/>
		<path class="st1" d="M0,202.47"/>
		<path id="M2_2_" class="st2" d="M653.69,192.64"/>
		<path id="M1_2_" class="st3" d="M511.58,192.64"/>
		<path id="IM_4_" class="st4" d="M454.74,192.64"/>
		<path id="OM_2_" class="st3" d="M255.79,192.64"/>
	</g>
	<g id="Marker_2_">
		<line id="CM2_2_" class="st2" x1="653.69" y1="0" x2="653.69" y2="192.64"/>
		<line id="CM1_2_" class="st3" x1="511.58" y1="0" x2="511.58" y2="192.64"/>
		<line id="IM_1_" class="st4" x1="454.74" y1="0" x2="454.74" y2="192.64"/>
		<line id="MM_2_" class="st3" x1="255.79" y1="0" x2="255.79" y2="192.64"/>
	</g>
	<polyline class="st5" points="0.37,179.45 14.46,178.9 28.44,179.01 42.2,178.9 56.84,179.45 70.83,179.45 85.14,179.89 
		99.89,180.66 113.65,181.32 128.29,181.76 142.17,181.65 156.37,180.88 170.13,180.11 184.55,180.22 198.31,180 212.95,179.89 
		227.16,180 241.36,180.33 255.45,180.55 269.32,180.33 283.74,180.99 297.39,181.54 312.26,181.43 326.24,180.99 340.22,180.22 
		354.53,178.79 368.95,177.58 382.94,176.15 397.36,173.83 411.23,170.64 425.65,165.91 440.07,160.95 454.05,155.67 468.48,152.04 
		482.13,147.85 496.44,142.57 510.86,138.61 524.95,134.97 538.61,130.35 553.91,126.5 567.45,122.86 581.54,119.78 595.85,117.25 
		610.27,113.94 617.21,110.53 624.59,108.77 638.24,106.46 652.77,106.02 666.97,108.22 681.83,110.53 696.04,111.96 710.35,115.16 
		722.9,122.2 736.99,138.83 	"/>
</g>
</svg>
