<!-- Generator: Adobe Illustrator 25.0.0, SVG Export Plug-In  -->
<svg version="1.1" xmlns="http://www.w3.org/2000/svg" xmlns:xlink="http://www.w3.org/1999/xlink" x="0px" y="0px"
	 width="710.88px" height="228.66px" viewBox="0 0 710.88 228.66"
	 style="overflow:visible;enable-background:new 0 0 710.88 228.66;" xml:space="preserve">
<style type="text/css">
	.st0{fill:none;stroke:#4E4E4E;stroke-width:0.9921;stroke-miterlimit:10;}
	.st1{fill:none;stroke:#3DB54A;stroke-width:0.9921;stroke-miterlimit:10;}
	.st2{fill:none;stroke:#F79421;stroke-width:0.9921;stroke-miterlimit:10;}
	.st3{fill:none;stroke:#EC2227;stroke-width:0.9921;stroke-miterlimit:10;}
	.st4{fill:none;stroke:#67308F;stroke-width:0.9921;stroke-miterlimit:10;}
	.st5{fill:none;stroke:#000000;stroke-miterlimit:10;}
</style>
<defs>
</defs>
<g id="Normal_1_">
	<g id="Coordinates_2_">
		<path id="_x31_0_2_" class="st0" d="M710.61,228.66"/>
		<path id="_x30_1_2_" class="st1" d="M0,0"/>
		<path id="_x30_0_2_" class="st0" d="M0.08,228.66"/>
		<path id="IM_4_" class="st2" d="M511.66,217.83"/>
		<path id="MM_4_" class="st3" d="M284.29,217.83"/>
		<path id="OM_4_" class="st4" d="M85.34,217.83"/>
	</g>
	<g id="Marker_2_">
		<line id="IM_1_" class="st2" x1="511.66" y1="16.12" x2="511.66" y2="209.28"/>
		<line id="MM_1_" class="st3" x1="284.29" y1="16.12" x2="284.29" y2="209.28"/>
		<line id="OM_1_" class="st4" x1="85.34" y1="16.12" x2="85.34" y2="209.28"/>
	</g>
	<polyline class="st5" points="1.21,206.43 15.45,206.51 29.69,206.8 43.52,207.38 57.48,206.47 71.88,205.98 85.88,206.68 
		100.21,206.6 114.28,206.14 128.4,206.27 142.69,204.57 156.85,203.33 171.17,202.22 185.21,201.23 199.29,201.27 213.49,200.78 
		227.57,200.73 241.32,200.24 255.89,199 270.09,197.02 284.21,194.38 298.25,191.57 312.53,187.28 326.65,183.56 341.02,179.18 
		348.86,176.46 354.97,172.91 361.49,169.28 369.09,165.81 377.02,162.75 382.8,161.76 397.16,157.88 411.2,153.59 420.12,150.61 
		425.48,149.38 439.52,147.64 454.14,147.48 468.09,147.56 482.29,148.05 489.64,147.89 496.66,146.57 510.94,144.67 524.57,143.35 
		530.51,143.68 539.1,144.92 546.53,145.25 553.63,144.75 567.5,143.18 577.58,140.95 582.28,140.54 588.81,139.72 596.32,138.89 
		602.43,138.39 610.77,136.99 617.46,135.01 621.58,135.5 624.72,136.33 638.59,142.11 648.09,148.14 653.29,151.52 667.58,159.7 
		682.11,168.7 696.31,184.8 702.42,193.47 704.98,199.08 710.51,205.27 	"/>
</g>
</svg>
