<!-- Generator: Adobe Illustrator 25.0.0, SVG Export Plug-In  -->
<svg version="1.1" xmlns="http://www.w3.org/2000/svg" xmlns:xlink="http://www.w3.org/1999/xlink" x="0px" y="0px"
	 width="710.61px" height="228.66px" viewBox="0 0 710.61 228.66"
	 style="overflow:visible;enable-background:new 0 0 710.61 228.66;" xml:space="preserve">
<style type="text/css">
	.st0{fill:none;stroke:#4E4E4E;stroke-width:0.9921;stroke-miterlimit:10;}
	.st1{fill:none;stroke:#3DB54A;stroke-width:0.9921;stroke-miterlimit:10;}
	.st2{fill:none;stroke:#F79421;stroke-width:0.9921;stroke-miterlimit:10;}
	.st3{fill:none;stroke:#EC2227;stroke-width:0.9921;stroke-miterlimit:10;}
	.st4{fill:none;stroke:#67308F;stroke-width:0.9921;stroke-miterlimit:10;}
	.st5{fill:none;stroke:#000000;stroke-miterlimit:10;}
</style>
<defs>
</defs>
<g id="Normal_1_">
	<g id="Coordinates_2_">
		<path id="_x30_0_2_" class="st0" d="M0.08,228.66"/>
		<path id="_x30_1_2_" class="st1" d="M0,0"/>
		<path id="_x31_0_2_" class="st0" d="M710.61,228.66"/>
		<path id="IM_4_" class="st2" d="M511.66,218.83"/>
		<path id="MM_4_" class="st3" d="M284.29,218.83"/>
		<path id="OM_4_" class="st4" d="M85.34,218.83"/>
	</g>
	<g id="Marker_2_">
		<line id="IM_1_" class="st2" x1="511.66" y1="13.03" x2="511.66" y2="222.68"/>
		<line id="MM_1_" class="st3" x1="284.29" y1="13.03" x2="284.29" y2="222.68"/>
		<line id="OM_1_" class="st4" x1="85.34" y1="13.03" x2="85.34" y2="222.68"/>
	</g>
	<polyline class="st5" points="1.33,199.94 5.13,201.53 13.88,202.8 28.63,204.89 42.83,206.87 52.47,208.69 57.04,208.91 
		71.18,208.19 81.37,207.92 85.16,206.87 99.59,204.78 113.95,199.94 120.01,198.18 127.77,196.36 133.82,194.54 141.92,190.41 
		147.81,187.77 156.17,184.96 162.94,183.86 170.37,182.38 178.3,180.95 184.36,180.51 198.83,179.02 213.09,178.36 226.96,177.75 
		241.27,177.09 255.37,178.03 262.41,178.69 269.46,178.3 277.71,177.31 283.93,178.41 297.86,179.85 312.34,182.1 326.48,184.85 
		340.52,187.99 354.61,188.6 359.62,188.98 363.2,188.21 368.7,184.14 373.33,180.62 382.8,174.07 387.59,171.86 396.72,169.5 
		403.05,167.9 411.14,167.74 418.3,167.4 425.29,167.4 430.36,168.29 434.37,168.73 439.44,168.84 454.03,167.4 467.84,165.64 
		482.37,164.87 496.36,168.51 510.89,171.59 524.98,172.08 533.35,173.07 539.35,173.24 553.55,173.51 567.75,173.07 581.79,175.06 
		590.48,177.42 596.32,180.12 610.63,187.83 624.67,197.35 639.2,205.22 653.51,212.05 667.6,218.27 681.92,224.65 690.61,227.18 
		698.15,227.29 	"/>
</g>
</svg>
