<!-- Generator: Adobe Illustrator 25.0.0, SVG Export Plug-In  -->
<svg version="1.1" xmlns="http://www.w3.org/2000/svg" xmlns:xlink="http://www.w3.org/1999/xlink" x="0px" y="0px"
	 width="737.65px" height="202.47px" viewBox="0 0 737.65 202.47"
	 style="overflow:visible;enable-background:new 0 0 737.65 202.47;" xml:space="preserve">
<style type="text/css">
	.st0{fill:none;stroke:#4E4E4E;stroke-width:0.9921;stroke-miterlimit:10;}
	.st1{fill:none;stroke:#662D91;stroke-width:0.9921;stroke-miterlimit:10;}
	.st2{fill:none;stroke:#EC008C;stroke-width:0.9921;stroke-miterlimit:10;}
	.st3{fill:none;stroke:#ED1C24;stroke-width:0.9921;stroke-miterlimit:10;}
	.st4{fill:none;stroke:#F7941D;stroke-width:0.9921;stroke-miterlimit:10;}
	.st5{fill:none;stroke:#000000;stroke-miterlimit:10;}
</style>
<defs>
</defs>
<g id="Normal_1_">
	<g id="Coordinates_2_">
		<path class="st0" d="M737.65,202.47"/>
		<path class="st1" d="M0.15,202.47"/>
		<path id="M2_2_" class="st2" d="M653.84,192.64"/>
		<path id="M1_2_" class="st3" d="M511.73,192.64"/>
		<path id="IM_4_" class="st4" d="M454.89,192.64"/>
		<path id="OM_2_" class="st3" d="M255.94,192.64"/>
	</g>
	<g id="Marker_2_">
		<line id="CM2_2_" class="st2" x1="653.84" y1="0" x2="653.84" y2="192.64"/>
		<line id="CM1_2_" class="st3" x1="511.73" y1="0" x2="511.73" y2="192.64"/>
		<line id="IM_1_" class="st4" x1="454.89" y1="0" x2="454.89" y2="192.64"/>
		<line id="MM_2_" class="st3" x1="255.94" y1="0" x2="255.94" y2="192.64"/>
	</g>
	<polyline class="st5" points="0.08,174.27 4.71,173.5 14.17,173.17 28.27,171.85 42.69,170.97 57.22,169.65 71.75,169.21 
		85.84,168.55 100.05,169.1 113.92,168.66 128.56,167.45 142.54,165.58 156.63,164.15 171.38,161.06 185.26,157.87 199.68,155.23 
		213.77,151.6 227.64,147.3 242.39,142.13 256.38,136.18 270.69,128.04 284.89,123.96 298.65,118.35 306.8,114.05 312.74,113.17 
		327.05,111.08 341.48,109.54 355.9,107.56 369.77,108 383.31,107.56 397.62,106.79 412.26,104.92 426.25,102.5 433.07,100.18 
		440.34,96.99 447.27,93.36 451.35,88.62 455.53,84.66 462.58,77.61 469.29,71.23 473.48,65.28 480.74,55.05 483.71,50.42 
		487.24,47.45 497.15,46.02 511.46,45.8 525.22,45.58 539.75,45.47 553.62,44.7 567.71,43.49 582.36,42.72 597.11,42.72 
		610.76,40.29 624.74,37.76 639.49,33.47 653.48,29.72 667.68,26.31 681.99,24.55 696.08,23.67 710.06,22.68 722.94,21.69 
		737.03,20.7 	"/>
</g>
</svg>
