<!-- Generator: Adobe Illustrator 25.0.0, SVG Export Plug-In  -->
<svg version="1.1" xmlns="http://www.w3.org/2000/svg" xmlns:xlink="http://www.w3.org/1999/xlink" x="0px" y="0px" width="710.7px"
	 height="228.66px" viewBox="0 0 710.7 228.66" style="overflow:visible;enable-background:new 0 0 710.7 228.66;"
	 xml:space="preserve">
<style type="text/css">
	.st0{fill:none;stroke:#4E4E4E;stroke-width:0.9921;stroke-miterlimit:10;}
	.st1{fill:none;stroke:#3DB54A;stroke-width:0.9921;stroke-miterlimit:10;}
	.st2{fill:none;stroke:#F79421;stroke-width:0.9921;stroke-miterlimit:10;}
	.st3{fill:none;stroke:#EC2227;stroke-width:0.9921;stroke-miterlimit:10;}
	.st4{fill:none;stroke:#67308F;stroke-width:0.9921;stroke-miterlimit:10;}
	.st5{fill:none;stroke:#000000;stroke-miterlimit:10;}
</style>
<defs>
</defs>
<g id="Normal_1_">
	<g id="Coordinates_2_">
		<path id="_x30_0_2_" class="st0" d="M0.08,228.66"/>
		<path id="_x30_1_2_" class="st1" d="M0,0"/>
		<path id="_x31_0_2_" class="st0" d="M710.61,228.66"/>
		<path id="IM_4_" class="st2" d="M511.66,218.83"/>
		<path id="MM_4_" class="st3" d="M284.29,218.83"/>
		<path id="OM_4_" class="st4" d="M85.34,218.83"/>
	</g>
	<g id="Marker_2_">
		<line id="IM_1_" class="st2" x1="511.66" y1="13.03" x2="511.66" y2="222.68"/>
		<line id="MM_1_" class="st3" x1="284.29" y1="13.03" x2="284.29" y2="222.68"/>
		<line id="OM_1_" class="st4" x1="85.34" y1="13.03" x2="85.34" y2="222.68"/>
	</g>
	<polyline class="st5" points="0.67,179.1 14.46,180.92 28.99,181.5 43.11,182.74 57.31,181.83 71.68,179.68 85.96,176.38 
		96.53,172.41 100.16,169.61 114.61,158.96 128.73,145.99 136.82,137.57 143.02,131.13 157.22,116.1 171.67,101.49 185.71,88.69 
		199.91,80.85 208,77.38 214.03,76.55 221.37,76.14 227.82,76.88 237.39,79.94 242.68,82.5 256.55,92.24 270.92,102.97 
		278.35,106.85 285.04,109.08 296.1,111.23 299.15,111.15 313.85,102.31 319.88,98.93 327.64,88.44 335.73,80.18 342.01,75.97 
		353.07,69.78 356.21,68.05 365.29,64.17 370.33,61.36 384.12,55.08 398.4,54.26 412.36,53.68 427.22,52.61 440.92,52.77 
		455.7,51.29 469.58,49.47 483.12,49.96 497.24,50.21 511.6,53.35 526.14,59.21 540.34,68.05 554.29,77.71 568.49,87.78 
		582.7,99.67 597.14,112.63 610.93,122.63 625.14,132.12 710.54,161.74 	"/>
</g>
</svg>
