<!-- Generator: Adobe Illustrator 25.0.0, SVG Export Plug-In  -->
<svg version="1.1" xmlns="http://www.w3.org/2000/svg" xmlns:xlink="http://www.w3.org/1999/xlink" x="0px" y="0px"
	 width="710.61px" height="228.66px" viewBox="0 0 710.61 228.66"
	 style="overflow:visible;enable-background:new 0 0 710.61 228.66;" xml:space="preserve">
<style type="text/css">
	.st0{fill:none;stroke:#4E4E4E;stroke-width:0.9921;stroke-miterlimit:10;}
	.st1{fill:none;stroke:#3DB54A;stroke-width:0.9921;stroke-miterlimit:10;}
	.st2{fill:none;stroke:#F79421;stroke-width:0.9921;stroke-miterlimit:10;}
	.st3{fill:none;stroke:#EC2227;stroke-width:0.9921;stroke-miterlimit:10;}
	.st4{fill:none;stroke:#67308F;stroke-width:0.9921;stroke-miterlimit:10;}
	.st5{fill:none;stroke:#000000;stroke-miterlimit:10;}
</style>
<defs>
</defs>
<g id="Normal_1_">
	<g id="Coordinates_2_">
		<path id="_x30_0_2_" class="st0" d="M710.53,228.66"/>
		<path id="_x30_1_2_" class="st1" d="M710.61,0"/>
		<path id="_x31_0_2_" class="st0" d="M0,228.66"/>
		<path id="IM_4_" class="st2" d="M198.95,223.83"/>
		<path id="MM_4_" class="st3" d="M426.32,223.83"/>
		<path id="OM_4_" class="st4" d="M625.26,223.83"/>
	</g>
	<g id="Marker_2_">
		<line id="IM_1_" class="st2" x1="198.95" y1="16.12" x2="198.95" y2="205.79"/>
		<line id="MM_1_" class="st3" x1="426.32" y1="16.12" x2="426.32" y2="205.79"/>
		<line id="OM_1_" class="st4" x1="625.26" y1="16.12" x2="625.26" y2="205.79"/>
	</g>
	<polyline class="st5" points="710.38,185.05 696.29,184.06 682.53,182.52 667.66,180.86 653.79,181.19 639.37,180.86 
		625.39,182.96 610.86,182.96 596.21,181.41 582.34,181.08 568.03,181.08 553.72,180.09 539.3,180.75 525.21,181.08 510.78,180.97 
		496.58,180.75 482.38,180.64 468.73,181.3 453.87,180.53 439.33,181.74 425.9,182.52 411.15,183.62 397.17,185.71 383.08,187.14 
		369.1,188.35 354.45,187.91 340.69,187.47 326.27,186.37 312.4,186.37 297.32,187.14 283.67,187.03 269.46,188.9 255.81,188.46 
		240.62,188.13 226.53,189.01 212.33,188.9 198.12,187.91 183.7,183.95 170.05,178.77 156.07,172.72 141.32,167.1 127.89,161.27 
		113.24,156.75 99.26,153.12 85.17,151.91 70.86,149.6 56.33,148.61 42.78,148.61 28.14,148.72 14.6,148.06 0.18,147.07 	"/>
</g>
</svg>
