<!-- Generator: Adobe Illustrator 25.0.0, SVG Export Plug-In  -->
<svg version="1.1" xmlns="http://www.w3.org/2000/svg" xmlns:xlink="http://www.w3.org/1999/xlink" x="0px" y="0px"
	 width="711.09px" height="228.66px" viewBox="0 0 711.09 228.66"
	 style="overflow:visible;enable-background:new 0 0 711.09 228.66;" xml:space="preserve">
<style type="text/css">
	.st0{fill:none;stroke:#4E4E4E;stroke-width:0.9921;stroke-miterlimit:10;}
	.st1{fill:none;stroke:#3DB54A;stroke-width:0.9921;stroke-miterlimit:10;}
	.st2{fill:none;stroke:#F79421;stroke-width:0.9921;stroke-miterlimit:10;}
	.st3{fill:none;stroke:#EC2227;stroke-width:0.9921;stroke-miterlimit:10;}
	.st4{fill:none;stroke:#67308F;stroke-width:0.9921;stroke-miterlimit:10;}
	.st5{fill:none;stroke:#000000;stroke-miterlimit:10;}
</style>
<defs>
</defs>
<g id="Normal_1_">
	<g id="Coordinates_2_">
		<path id="_x31_0_2_" class="st0" d="M710.61,228.66"/>
		<path id="_x30_1_2_" class="st1" d="M0,0"/>
		<path id="_x30_0_2_" class="st0" d="M0.08,228.66"/>
		<path id="IM_4_" class="st2" d="M511.66,217.83"/>
		<path id="MM_4_" class="st3" d="M284.29,217.83"/>
		<path id="OM_4_" class="st4" d="M85.34,217.83"/>
	</g>
	<g id="Marker_2_">
		<line id="IM_1_" class="st2" x1="511.66" y1="16.12" x2="511.66" y2="209.28"/>
		<line id="MM_1_" class="st3" x1="284.29" y1="16.12" x2="284.29" y2="209.28"/>
		<line id="OM_1_" class="st4" x1="85.34" y1="16.12" x2="85.34" y2="209.28"/>
	</g>
	<polyline class="st5" points="0.5,202.8 14.54,203.62 29.07,203.95 43.44,203.62 57.15,202.3 71.35,202.96 86.21,203.13 
		100.08,201.48 113.46,202.14 128.32,200.98 142.69,200.49 157.05,200.65 171.42,200.98 185.62,201.31 199.82,200.32 213.7,199.66 
		227.73,200.98 242.43,200.32 256.3,199.5 271.49,201.15 277.77,202.8 284.7,200.65 291.64,199.33 299.57,192.89 307.49,183.15 
		313.93,171.42 319.88,159.37 327.48,147.97 335.4,136.58 341.84,128.98 350.26,113.95 356.37,104.05 365.46,91.33 371.24,86.05 
		377.18,79.61 384.94,72.34 390.72,68.05 399.14,59.79 409.88,52.85 418.96,51.2 426.89,53.35 435.48,57.64 441.59,61.44 
		455.46,70.85 470.15,81.26 483.2,90.5 491.13,93.97 497.57,94.3 502.19,93.15 506.65,91.5 512.43,87.53 521.02,79.94 526.8,74.82 
		533.24,69.2 540.34,64.25 547.11,58.14 555.2,54.01 568.58,48.89 583.27,46.25 597.81,47.24 610.85,49.22 622.74,53.84 
		711.09,54.83 	"/>
</g>
</svg>
