<!-- Generator: Adobe Illustrator 25.0.0, SVG Export Plug-In  -->
<svg version="1.1" xmlns="http://www.w3.org/2000/svg" xmlns:xlink="http://www.w3.org/1999/xlink" x="0px" y="0px"
	 width="710.53px" height="228.66px" viewBox="0 0 710.53 228.66"
	 style="overflow:visible;enable-background:new 0 0 710.53 228.66;" xml:space="preserve">
<style type="text/css">
	.st0{fill:none;stroke:#4E4E4E;stroke-width:0.9921;stroke-miterlimit:10;}
	.st1{fill:none;stroke:#3DB54A;stroke-width:0.9921;stroke-miterlimit:10;}
	.st2{fill:none;stroke:#F79421;stroke-width:0.9921;stroke-miterlimit:10;}
	.st3{fill:none;stroke:#EC2227;stroke-width:0.9921;stroke-miterlimit:10;}
	.st4{fill:none;stroke:#67308F;stroke-width:0.9921;stroke-miterlimit:10;}
	.st5{fill:none;stroke:#000000;stroke-miterlimit:10;}
</style>
<defs>
</defs>
<g id="Normal_1_">
	<g id="Coordinates_2_">
		<path id="_x30_0_2_" class="st0" d="M0,228.66"/>
		<path id="_x30_1_2_" class="st1" d="M0,0"/>
		<path id="_x31_0_2_" class="st0" d="M710.53,228.66"/>
		<path id="IM_4_" class="st2" d="M511.58,218.83"/>
		<path id="MM_4_" class="st3" d="M284.21,218.83"/>
		<path id="OM_4_" class="st4" d="M85.26,218.83"/>
	</g>
	<g id="Marker_2_">
		<line id="IM_1_" class="st2" x1="511.58" y1="4.6" x2="511.58" y2="224.35"/>
		<line id="MM_1_" class="st3" x1="284.21" y1="4.6" x2="284.21" y2="224.35"/>
		<line id="OM_1_" class="st4" x1="85.26" y1="4.6" x2="85.26" y2="224.35"/>
	</g>
	<polyline class="st5" points="0.15,182.85 14.24,183.84 28.88,184.17 42.86,184.61 57.4,183.73 71.38,184.94 85.8,183.73 
		99.89,180.97 114.09,179.65 128.95,178.77 143.05,178.88 156.92,178.99 171.23,178.66 185.43,177.34 199.74,176.79 213.95,175.47 
		227.82,173.16 242.02,170.74 256.66,167.43 270.64,165.56 285.39,161.38 299.05,156.42 313.47,149.82 327.67,142.44 341.87,133.63 
		356.4,123.07 370.5,113.82 384.15,105.34 398.24,96.53 412.55,88.28 426.97,77.05 441.61,66.81 456.26,58.44 469.69,52.28 
		484,44.57 498.09,38.74 511.41,33.67 526.16,31.8 539.93,30.81 554.9,30.59 569.1,29.82 582.75,29.27 597.61,28.28 611.16,28.72 
		624.92,28.72 639.12,28.83 654.09,26.96 668.07,25.64 682.05,25.08 696.26,24.86 710.35,26.41 	"/>
</g>
</svg>
