<!-- Generator: Adobe Illustrator 25.0.0, SVG Export Plug-In  -->
<svg version="1.1" xmlns="http://www.w3.org/2000/svg" xmlns:xlink="http://www.w3.org/1999/xlink" x="0px" y="0px" width="737.5px"
	 height="204.13px" viewBox="0 0 737.5 204.13" style="overflow:visible;enable-background:new 0 0 737.5 204.13;"
	 xml:space="preserve">
<style type="text/css">
	.st0{fill:none;stroke:#4E4E4E;stroke-width:0.9921;stroke-miterlimit:10;}
	.st1{fill:none;stroke:#662D91;stroke-width:0.9921;stroke-miterlimit:10;}
	.st2{fill:none;stroke:#EC008C;stroke-width:0.9921;stroke-miterlimit:10;}
	.st3{fill:none;stroke:#ED1C24;stroke-width:0.9921;stroke-miterlimit:10;}
	.st4{fill:none;stroke:#F7941D;stroke-width:0.9921;stroke-miterlimit:10;}
	.st5{fill:none;stroke:#000000;stroke-miterlimit:10;}
</style>
<defs>
</defs>
<g id="Normal_1_">
	<g id="Coordinates_2_">
		<path class="st0" d="M737.5,204.13"/>
		<path class="st1" d="M0,204.13"/>
		<path id="M2_2_" class="st2" d="M653.69,194.3"/>
		<path id="M1_2_" class="st3" d="M511.58,194.3"/>
		<path id="IM_4_" class="st4" d="M454.74,194.3"/>
		<path id="OM_2_" class="st3" d="M255.79,194.3"/>
	</g>
	<g id="Marker_2_">
		<line id="CM2_2_" class="st2" x1="653.69" y1="1.66" x2="653.69" y2="194.3"/>
		<line id="CM1_2_" class="st3" x1="511.58" y1="1.66" x2="511.58" y2="194.3"/>
		<line id="IM_1_" class="st4" x1="454.74" y1="1.66" x2="454.74" y2="194.3"/>
		<line id="MM_2_" class="st3" x1="255.79" y1="1.66" x2="255.79" y2="194.3"/>
	</g>
	<polyline class="st5" points="1.25,159.78 15.12,160.44 29.24,161.01 43.11,161.43 57.56,161.43 72.01,161.34 86.13,160.77 
		100.25,159.86 114.37,158.95 128.32,158.54 142.44,157.88 156.48,157.38 170.6,156.64 185.21,155.9 199,155.48 213.04,155.15 
		227.57,154.08 241.28,152.84 255.39,150.53 269.43,148.55 283.88,146.23 297.75,143.84 312.45,141.2 326.57,137.65 340.94,133.44 
		354.64,129.39 368.6,125.43 382.72,122.04 396.92,118.82 411.12,115.6 424.91,112.13 439.77,108.5 453.81,104.7 467.93,100.57 
		482.13,96.03 495.92,90.91 510.61,86.21 524.65,80.43 538.69,73.9 552.97,66.39 566.93,59.37 581.54,53.1 595.49,44.51 
		609.7,35.68 623.57,23.79 638.27,12.47 652.14,3.89 662.21,1.08 666.75,0.5 673.44,0.75 681.04,1.82 688.96,3.97 695.16,6.94 
		703.49,10.99 709.77,14.62 717.12,20.15 722.07,24.03 729.17,31.22 736.27,42.12 	"/>
</g>
</svg>
