<!-- Generator: Adobe Illustrator 25.0.0, SVG Export Plug-In  -->
<svg version="1.1" xmlns="http://www.w3.org/2000/svg" xmlns:xlink="http://www.w3.org/1999/xlink" x="0px" y="0px"
	 width="710.61px" height="228.66px" viewBox="0 0 710.61 228.66"
	 style="overflow:visible;enable-background:new 0 0 710.61 228.66;" xml:space="preserve">
<style type="text/css">
	.st0{fill:none;stroke:#4E4E4E;stroke-width:0.9921;stroke-miterlimit:10;}
	.st1{fill:none;stroke:#3DB54A;stroke-width:0.9921;stroke-miterlimit:10;}
	.st2{fill:none;stroke:#F79421;stroke-width:0.9921;stroke-miterlimit:10;}
	.st3{fill:none;stroke:#EC2227;stroke-width:0.9921;stroke-miterlimit:10;}
	.st4{fill:none;stroke:#67308F;stroke-width:0.9921;stroke-miterlimit:10;}
	.st5{fill:none;stroke:#000000;stroke-miterlimit:10;}
</style>
<defs>
</defs>
<g id="Normal_1_">
	<g id="Coordinates_2_">
		<path id="_x30_0_2_" class="st0" d="M0.08,228.66"/>
		<path id="_x30_1_2_" class="st1" d="M0,0"/>
		<path id="_x31_0_2_" class="st0" d="M710.61,228.66"/>
		<path id="IM_4_" class="st2" d="M511.66,223.83"/>
		<path id="MM_4_" class="st3" d="M284.29,223.83"/>
		<path id="OM_4_" class="st4" d="M85.34,223.83"/>
	</g>
	<g id="Marker_2_">
		<line id="IM_1_" class="st2" x1="511.66" y1="16.12" x2="511.66" y2="205.79"/>
		<line id="MM_1_" class="st3" x1="284.29" y1="16.12" x2="284.29" y2="205.79"/>
		<line id="OM_1_" class="st4" x1="85.34" y1="16.12" x2="85.34" y2="205.79"/>
	</g>
	<polyline class="st5" points="0.67,175.06 14.71,180.92 29.07,186.78 43.44,192.56 57.64,197.68 71.43,201.4 84.97,204.2 
		99.92,204.37 114.61,204.62 127.66,204.53 142.27,203.96 156.72,203.38 171.01,203.13 184.88,202.72 199.74,202.22 213.53,201.56 
		227.73,200.65 242.02,199.58 256.05,198.51 270.26,198.01 284.37,197.6 298.25,197.85 312.2,197.1 326.73,196.36 341.02,197.02 
		355.47,197.19 369.59,197.68 383.7,198.01 397.66,199 411.86,199.33 425.98,199.99 440.59,199.91 454.63,200.57 469.25,200.24 
		483.03,199.58 497.4,198.84 511.36,198.26 525.39,197.1 539.84,195.12 554.13,192.15 568.33,187.77 582.61,182.41 597.06,177.04 
		611.18,170.93 625.63,164.82 640.16,158.63 	"/>
</g>
</svg>
