<!-- Generator: Adobe Illustrator 25.0.0, SVG Export Plug-In  -->
<svg version="1.1" xmlns="http://www.w3.org/2000/svg" xmlns:xlink="http://www.w3.org/1999/xlink" x="0px" y="0px"
	 width="711.39px" height="228.66px" viewBox="0 0 711.39 228.66"
	 style="overflow:visible;enable-background:new 0 0 711.39 228.66;" xml:space="preserve">
<style type="text/css">
	.st0{fill:none;stroke:#4E4E4E;stroke-width:0.9921;stroke-miterlimit:10;}
	.st1{fill:none;stroke:#3DB54A;stroke-width:0.9921;stroke-miterlimit:10;}
	.st2{fill:none;stroke:#F79421;stroke-width:0.9921;stroke-miterlimit:10;}
	.st3{fill:none;stroke:#EC2227;stroke-width:0.9921;stroke-miterlimit:10;}
	.st4{fill:none;stroke:#67308F;stroke-width:0.9921;stroke-miterlimit:10;}
	.st5{fill:none;stroke:#000000;stroke-miterlimit:10;}
</style>
<defs>
</defs>
<g id="Normal_1_">
	<g id="Coordinates_2_">
		<path id="_x31_0_2_" class="st0" d="M711.39,228.66"/>
		<path id="_x30_1_2_" class="st1" d="M0.79,0"/>
		<path id="_x30_0_2_" class="st0" d="M0.87,228.66"/>
		<path id="IM_4_" class="st2" d="M512.45,217.83"/>
		<path id="MM_4_" class="st3" d="M285.08,217.83"/>
		<path id="OM_4_" class="st4" d="M86.13,217.83"/>
	</g>
	<g id="Marker_2_">
		<line id="IM_1_" class="st2" x1="512.45" y1="16.12" x2="512.45" y2="209.28"/>
		<line id="MM_1_" class="st3" x1="285.08" y1="16.12" x2="285.08" y2="209.28"/>
		<line id="OM_1_" class="st4" x1="86.13" y1="16.12" x2="86.13" y2="209.28"/>
	</g>
	<polyline class="st5" points="0.02,198.67 14.12,198.01 28.32,197.68 42.08,198.01 56.72,198.78 71.14,198.78 84.9,198.23 
		99.33,198.23 113.53,197.68 127.73,197.24 142.26,196.91 156.02,195.92 170.22,194.71 184.65,193.72 198.19,192.5 212.61,190.85 
		227.03,188.43 240.9,186.34 255.22,183.37 268.98,178.96 284.17,173.68 297.71,168.94 311.8,162.78 325.78,155.73 339.88,149.9 
		354.74,143.62 368.5,138.34 382.81,133.39 396.9,128.21 411.44,121.94 425.42,117.53 440.17,113.68 453.82,109.17 461.31,105.75 
		468.46,101.02 482.55,92.87 489.93,88.8 497.31,86.05 505.56,83.73 510.85,83.07 524.83,82.3 539.14,82.3 553.12,82.63 
		559.29,82.3 567.66,80.65 575.14,79.22 582.08,76.14 589.23,72.94 596.5,68.54 603.77,63.92 610.26,58.52 625.01,43.66 
		639.55,23.4 	"/>
</g>
</svg>
