<!-- Generator: Adobe Illustrator 25.0.0, SVG Export Plug-In  -->
<svg version="1.1" xmlns="http://www.w3.org/2000/svg" xmlns:xlink="http://www.w3.org/1999/xlink" x="0px" y="0px"
	 width="710.61px" height="228.66px" viewBox="0 0 710.61 228.66"
	 style="overflow:visible;enable-background:new 0 0 710.61 228.66;" xml:space="preserve">
<style type="text/css">
	.st0{fill:none;stroke:#4E4E4E;stroke-width:0.9921;stroke-miterlimit:10;}
	.st1{fill:none;stroke:#3DB54A;stroke-width:0.9921;stroke-miterlimit:10;}
	.st2{fill:none;stroke:#F79421;stroke-width:0.9921;stroke-miterlimit:10;}
	.st3{fill:none;stroke:#EC2227;stroke-width:0.9921;stroke-miterlimit:10;}
	.st4{fill:none;stroke:#67308F;stroke-width:0.9921;stroke-miterlimit:10;}
	.st5{fill:none;stroke:#000000;stroke-miterlimit:10;}
</style>
<defs>
</defs>
<g id="Normal_1_">
	<g id="Coordinates_2_">
		<path id="_x30_0_2_" class="st0" d="M0.08,228.66"/>
		<path id="_x30_1_2_" class="st1" d="M0,0"/>
		<path id="_x31_0_2_" class="st0" d="M710.61,228.66"/>
		<path id="IM_4_" class="st2" d="M511.66,218.83"/>
		<path id="MM_4_" class="st3" d="M284.29,218.83"/>
		<path id="OM_4_" class="st4" d="M85.34,218.83"/>
	</g>
	<g id="Marker_2_">
		<line id="IM_1_" class="st2" x1="511.66" y1="13.03" x2="511.66" y2="222.68"/>
		<line id="MM_1_" class="st3" x1="284.29" y1="13.03" x2="284.29" y2="222.68"/>
		<line id="OM_1_" class="st4" x1="85.34" y1="13.03" x2="85.34" y2="222.68"/>
	</g>
	<polyline class="st5" points="0.5,182.16 14.62,180.67 28.25,179.68 42.53,177.86 56.98,175.72 71.02,173.4 84.97,170.93 
		99.75,167.29 113.87,163.66 127.41,160.36 142.27,154.66 156.15,150.2 170.02,146.49 184.38,143.1 198.5,139.55 212.62,136.17 
		227.24,132.45 241.27,129.07 254.9,126.42 269.43,123.86 283.38,121.72 297.83,121.63 311.95,122.05 326.15,123.95 340.36,127.41 
		354.97,133.44 369.01,141.04 382.8,147.89 397,154.08 411.53,160.11 425.65,162.75 439.77,164.4 453.97,165.15 468.42,165.15 
		482.21,164.74 496.82,163.08 510.78,159.78 525.39,157.3 538.77,153.75 553.38,150.45 568,147.07 582.53,142.85 596.32,138.23 
		610.69,131.38 624.72,122.71 639.25,112.39 653.79,102.89 659.65,98.18 	"/>
</g>
</svg>
