<!-- Generator: Adobe Illustrator 25.0.0, SVG Export Plug-In  -->
<svg version="1.1" xmlns="http://www.w3.org/2000/svg" xmlns:xlink="http://www.w3.org/1999/xlink" x="0px" y="0px"
	 width="710.53px" height="228.66px" viewBox="0 0 710.53 228.66"
	 style="overflow:visible;enable-background:new 0 0 710.53 228.66;" xml:space="preserve">
<style type="text/css">
	.st0{fill:none;stroke:#4E4E4E;stroke-width:0.9921;stroke-miterlimit:10;}
	.st1{fill:none;stroke:#3DB54A;stroke-width:0.9921;stroke-miterlimit:10;}
	.st2{fill:none;stroke:#F79421;stroke-width:0.9921;stroke-miterlimit:10;}
	.st3{fill:none;stroke:#EC2227;stroke-width:0.9921;stroke-miterlimit:10;}
	.st4{fill:none;stroke:#67308F;stroke-width:0.9921;stroke-miterlimit:10;}
	.st5{fill:none;stroke:#000000;stroke-miterlimit:10;}
</style>
<defs>
</defs>
<g id="Normal_1_">
	<g id="Coordinates_2_">
		<path id="_x30_0_2_" class="st0" d="M0,228.66"/>
		<path id="_x30_1_2_" class="st1" d="M0,0"/>
		<path id="_x31_0_2_" class="st0" d="M710.53,228.66"/>
		<path id="IM_4_" class="st2" d="M511.58,218.83"/>
		<path id="MM_4_" class="st3" d="M284.21,218.83"/>
		<path id="OM_4_" class="st4" d="M85.26,218.83"/>
	</g>
	<g id="Marker_2_">
		<line id="IM_1_" class="st2" x1="511.58" y1="4.6" x2="511.58" y2="224.35"/>
		<line id="MM_1_" class="st3" x1="284.21" y1="4.6" x2="284.21" y2="224.35"/>
		<line id="OM_1_" class="st4" x1="85.26" y1="4.6" x2="85.26" y2="224.35"/>
	</g>
	<polyline class="st5" points="0.67,136.25 14.05,129.07 28.41,120.23 42.45,112.3 56.4,103.14 70.61,94.72 78.2,91.25 84.73,90.26 
		92.98,91.5 98.93,93.31 107.76,97.44 113.38,101.98 120.97,107.6 127.25,113.71 137.82,124.86 141.37,128.9 148.55,136.25 
		155.73,142.52 162.01,147.31 169.69,152.68 177.04,156.73 184.06,159.12 191.9,159.95 197.51,158.71 202.14,157.14 212.79,152.02 
		227.16,146.16 240.7,139.88 255.15,132.29 269.02,125.27 283.3,119.08 297.26,111.97 311.54,105.45 325.91,100.17 340.03,96.53 
		353.98,93.64 368.18,91.08 382.22,90.18 395.27,91.5 404.84,93.15 412.11,95.13 421.19,97.94 432.01,101.98 439.36,105.78 
		453.31,113.71 467.84,122.05 482.29,130.14 496.08,136.99 505.25,138.15 511.52,138.07 519.61,137.32 526.47,135.18 534.72,133.36 
		538.85,131.38 552.97,123.53 560.98,119.16 567.26,113.71 574.85,108.75 581.29,103.14 595.91,93.4 601.77,88.36 610.03,84.4 
		616.96,80.1 629.27,73.17 	"/>
</g>
</svg>
