<!-- Generator: Adobe Illustrator 25.0.0, SVG Export Plug-In  -->
<svg version="1.1" xmlns="http://www.w3.org/2000/svg" xmlns:xlink="http://www.w3.org/1999/xlink" x="0px" y="0px"
	 width="714.09px" height="228.66px" viewBox="0 0 714.09 228.66"
	 style="overflow:visible;enable-background:new 0 0 714.09 228.66;" xml:space="preserve">
<style type="text/css">
	.st0{fill:none;stroke:#4E4E4E;stroke-width:0.9921;stroke-miterlimit:10;}
	.st1{fill:none;stroke:#3DB54A;stroke-width:0.9921;stroke-miterlimit:10;}
	.st2{fill:none;stroke:#F79421;stroke-width:0.9921;stroke-miterlimit:10;}
	.st3{fill:none;stroke:#EC2227;stroke-width:0.9921;stroke-miterlimit:10;}
	.st4{fill:none;stroke:#67308F;stroke-width:0.9921;stroke-miterlimit:10;}
	.st5{fill:none;stroke:#000000;stroke-miterlimit:10;}
</style>
<defs>
</defs>
<g id="Normal_1_">
	<g id="Coordinates_2_">
		<path id="_x30_0_2_" class="st0" d="M0.64,228.66"/>
		<path id="_x30_1_2_" class="st1" d="M0.56,0"/>
		<path id="_x31_0_2_" class="st0" d="M711.17,228.66"/>
		<path id="IM_4_" class="st2" d="M512.22,218.83"/>
		<path id="MM_4_" class="st3" d="M284.85,218.83"/>
		<path id="OM_4_" class="st4" d="M85.9,218.83"/>
	</g>
	<g id="Marker_2_">
		<line id="IM_1_" class="st2" x1="512.22" y1="13.03" x2="512.22" y2="222.68"/>
		<line id="MM_1_" class="st3" x1="284.85" y1="13.03" x2="284.85" y2="222.68"/>
		<line id="OM_1_" class="st4" x1="85.9" y1="13.03" x2="85.9" y2="222.68"/>
	</g>
	<polyline class="st5" points="0.02,188.6 34.25,189.7 69.26,189.15 107.69,190.47 139.94,180.78 178.14,174.51 207.1,172.85 
		241.89,166.36 272.38,154.58 302.33,144.45 332.82,131.35 372.02,129.48 412.53,133.11 455.46,140.38 496.53,138.95 530.33,141.26 
		564.57,140.82 599.24,132.56 622.03,116.05 642.4,104.71 663.32,106.25 693.48,104.49 713.74,123.86 	"/>
</g>
</svg>
