<!-- Generator: Adobe Illustrator 25.0.0, SVG Export Plug-In  -->
<svg version="1.1" xmlns="http://www.w3.org/2000/svg" xmlns:xlink="http://www.w3.org/1999/xlink" x="0px" y="0px"
	 width="720.29px" height="228.66px" viewBox="0 0 720.29 228.66"
	 style="overflow:visible;enable-background:new 0 0 720.29 228.66;" xml:space="preserve">
<style type="text/css">
	.st0{fill:none;stroke:#4E4E4E;stroke-width:0.9921;stroke-miterlimit:10;}
	.st1{fill:none;stroke:#3DB54A;stroke-width:0.9921;stroke-miterlimit:10;}
	.st2{fill:none;stroke:#F79421;stroke-width:0.9921;stroke-miterlimit:10;}
	.st3{fill:none;stroke:#EC2227;stroke-width:0.9921;stroke-miterlimit:10;}
	.st4{fill:none;stroke:#67308F;stroke-width:0.9921;stroke-miterlimit:10;}
	.st5{fill:none;stroke:#000000;stroke-miterlimit:10;}
</style>
<defs>
</defs>
<g id="Normal_1_">
	<g id="Coordinates_2_">
		<path id="_x30_0_2_" class="st0" d="M0.08,228.66"/>
		<path id="_x30_1_2_" class="st1" d="M0,0"/>
		<path id="_x31_0_2_" class="st0" d="M710.61,228.66"/>
		<path id="IM_4_" class="st2" d="M511.66,223.83"/>
		<path id="MM_4_" class="st3" d="M284.29,223.83"/>
		<path id="OM_4_" class="st4" d="M85.34,223.83"/>
	</g>
	<g id="Marker_2_">
		<line id="IM_1_" class="st2" x1="511.66" y1="16.12" x2="511.66" y2="205.79"/>
		<line id="MM_1_" class="st3" x1="284.29" y1="16.12" x2="284.29" y2="205.79"/>
		<line id="OM_1_" class="st4" x1="85.34" y1="16.12" x2="85.34" y2="205.79"/>
	</g>
	<polyline class="st5" points="1.66,190 47.79,146.63 85.55,97.19 140.37,112.17 179.24,140.57 237.26,170.74 289.99,183.51 
		341.4,185.27 391.6,185.05 439.38,184.72 488.26,183.29 522.61,169.74 574.25,144.31 609.14,138.7 649.88,142.77 691.93,167.32 
		719.9,202.55 	"/>
</g>
</svg>
