<!-- Generator: Adobe Illustrator 25.0.0, SVG Export Plug-In  -->
<svg version="1.1" xmlns="http://www.w3.org/2000/svg" xmlns:xlink="http://www.w3.org/1999/xlink" x="0px" y="0px"
	 width="737.96px" height="232.77px" viewBox="0 0 737.96 232.77"
	 style="overflow:visible;enable-background:new 0 0 737.96 232.77;" xml:space="preserve">
<style type="text/css">
	.st0{fill:none;stroke:#4E4E4E;stroke-width:0.9921;stroke-miterlimit:10;}
	.st1{fill:none;stroke:#3DB54A;stroke-width:0.9921;stroke-miterlimit:10;}
	.st2{fill:none;stroke:#F79421;stroke-width:0.9921;stroke-miterlimit:10;}
	.st3{fill:none;stroke:#EC2227;stroke-width:0.9921;stroke-miterlimit:10;}
	.st4{fill:none;stroke:#67308F;stroke-width:0.9921;stroke-miterlimit:10;}
	.st5{fill:none;stroke:#000000;stroke-width:0.9921;stroke-miterlimit:10;}
</style>
<defs>
</defs>
<g id="Normal_1_">
	<g id="Coordinates_2_">
		<path id="_x30_0_2_" class="st0" d="M2.71,232.77"/>
		<path id="_x30_1_2_" class="st1" d="M2.71,0"/>
		<path id="_x31_0_2_" class="st0" d="M737.96,232.77"/>
		<path id="IM_4_" class="st2" d="M532.09,222.77"/>
		<path id="MM_4_" class="st3" d="M296.81,222.77"/>
		<path id="OM_4_" class="st4" d="M90.94,222.77"/>
	</g>
	<g id="Marker_2_">
		<line id="IM_1_" class="st2" x1="509.34" y1="4.68" x2="509.34" y2="228.39"/>
		<line id="MM_1_" class="st3" x1="281.65" y1="4.68" x2="281.65" y2="228.39"/>
		<line id="OM_1_" class="st4" x1="83.94" y1="4.68" x2="83.94" y2="228.39"/>
	</g>
	<polyline class="st5" points="0.1,161.84 39.24,153.58 68.63,138.55 97.86,119.07 140.14,113.29 186.38,137.89 229.64,152.42 
		270.76,164.15 305.28,171.41 339.95,150.77 372.98,127.65 400.06,106.35 427.97,84.88 454.06,66.06 478.51,54.33 504.76,50.86 
		542.58,61.6 590.63,93.96 638.03,92.64 667.92,75.3 697.15,51.85 713.99,41.12 	"/>
</g>
</svg>
