<!-- Generator: Adobe Illustrator 25.0.0, SVG Export Plug-In  -->
<svg version="1.1" xmlns="http://www.w3.org/2000/svg" xmlns:xlink="http://www.w3.org/1999/xlink" x="0px" y="0px"
	 width="710.61px" height="228.66px" viewBox="0 0 710.61 228.66"
	 style="overflow:visible;enable-background:new 0 0 710.61 228.66;" xml:space="preserve">
<style type="text/css">
	.st0{fill:none;stroke:#4E4E4E;stroke-width:0.9921;stroke-miterlimit:10;}
	.st1{fill:none;stroke:#3DB54A;stroke-width:0.9921;stroke-miterlimit:10;}
	.st2{fill:none;stroke:#F79421;stroke-width:0.9921;stroke-miterlimit:10;}
	.st3{fill:none;stroke:#EC2227;stroke-width:0.9921;stroke-miterlimit:10;}
	.st4{fill:none;stroke:#67308F;stroke-width:0.9921;stroke-miterlimit:10;}
	.st5{fill:none;stroke:#000000;stroke-width:0.9921;stroke-miterlimit:10;}
</style>
<defs>
</defs>
<g id="Normal_1_">
	<g id="Coordinates_2_">
		<path id="_x31_0_2_" class="st0" d="M710.61,228.66"/>
		<path id="_x30_1_2_" class="st1" d="M0,0"/>
		<path id="_x30_0_2_" class="st0" d="M0.08,228.66"/>
		<path id="IM_4_" class="st2" d="M511.66,217.83"/>
		<path id="MM_4_" class="st3" d="M284.29,217.83"/>
		<path id="OM_4_" class="st4" d="M85.34,217.83"/>
	</g>
	<g id="Marker_2_">
		<line id="IM_1_" class="st2" x1="511.66" y1="16.12" x2="511.66" y2="209.28"/>
		<line id="MM_1_" class="st3" x1="284.29" y1="16.12" x2="284.29" y2="209.28"/>
		<line id="OM_1_" class="st4" x1="85.34" y1="16.12" x2="85.34" y2="209.28"/>
	</g>
	<polyline class="st5" points="0.17,184.05 14.38,184.8 28.82,185.38 42.86,183.97 57.56,183.48 64.99,181.83 70.69,183.15 
		85.96,184.39 100,188.84 114.28,192.89 128.24,197.68 142.93,201.23 156.81,204.7 164.48,205.52 171.09,204.78 185.62,206.1 
		199.41,205.85 213.53,206.35 227.98,207.09 235.25,206.27 242.02,178.19 256.55,135.59 263.81,114.37 270.92,88.52 283.8,45.34 
		298.99,46.99 313.44,45.01 327.39,46.83 341.92,46.41 353.73,44.6 366.37,42.37 373.71,48.15 384.61,51.37 398.57,55.41 
		412.44,59.38 426.56,62.27 440.35,61.03 455.04,63.75 469.08,68.71 483.36,73.58 497.48,78.45 512.1,83.9 525.89,89.43 
		539.68,96.2 554.54,103.47 568.58,110.07 574.44,114.2 582.78,114.45 596.9,114.53 611.1,114.45 624.89,114.12 639.25,113.95 
		653.79,113.46 667.91,112.06 682.03,113.38 710.02,112.8 	"/>
</g>
</svg>
