<!-- Generator: Adobe Illustrator 25.0.0, SVG Export Plug-In  -->
<svg version="1.1" xmlns="http://www.w3.org/2000/svg" xmlns:xlink="http://www.w3.org/1999/xlink" x="0px" y="0px" width="711.1px"
	 height="228.66px" viewBox="0 0 711.1 228.66" style="overflow:visible;enable-background:new 0 0 711.1 228.66;"
	 xml:space="preserve">
<style type="text/css">
	.st0{fill:none;stroke:#4E4E4E;stroke-width:0.9921;stroke-miterlimit:10;}
	.st1{fill:none;stroke:#3DB54A;stroke-width:0.9921;stroke-miterlimit:10;}
	.st2{fill:none;stroke:#F79421;stroke-width:0.9921;stroke-miterlimit:10;}
	.st3{fill:none;stroke:#EC2227;stroke-width:0.9921;stroke-miterlimit:10;}
	.st4{fill:none;stroke:#67308F;stroke-width:0.9921;stroke-miterlimit:10;}
	.st5{fill:none;stroke:#000000;stroke-miterlimit:10;}
</style>
<defs>
</defs>
<g id="Normal_1_">
	<g id="Coordinates_2_">
		<path id="_x30_0_2_" class="st0" d="M0.58,228.66"/>
		<path id="_x30_1_2_" class="st1" d="M0.5,0"/>
		<path id="_x31_0_2_" class="st0" d="M711.1,228.66"/>
		<path id="IM_4_" class="st2" d="M512.16,218.83"/>
		<path id="MM_4_" class="st3" d="M284.79,218.83"/>
		<path id="OM_4_" class="st4" d="M85.84,218.83"/>
	</g>
	<g id="Marker_2_">
		<line id="IM_1_" class="st2" x1="512.16" y1="13.03" x2="512.16" y2="222.68"/>
		<line id="MM_1_" class="st3" x1="284.79" y1="13.03" x2="284.79" y2="222.68"/>
		<line id="OM_1_" class="st4" x1="85.84" y1="13.03" x2="85.84" y2="222.68"/>
	</g>
	<polyline class="st5" points="0.01,135.97 14.04,136.19 28.14,136.96 38.87,138.01 42.28,138.4 49.77,138.34 56.43,138.29 
		70.63,138.78 77.51,138.67 84.83,136.96 98.98,133.83 113.46,130.08 127.44,128.1 141.75,127.17 155.62,127.39 169.88,127.28 
		176.87,126.67 184.14,125.24 192.34,124.08 198.01,123.97 205.16,123.37 212.54,122.49 220.52,121.77 226.8,120.95 240.94,119.07 
		254.87,117.04 262.41,115.55 269.46,115 283.55,114.23 297.42,115.06 311.95,115 325.99,113.51 340.36,112.63 354.56,112.03 
		368.76,111.2 382.8,111.92 397.05,112.03 410.87,112.74 425.46,112.91 439.77,112.69 454.03,111.81 468.28,111.26 482.1,111.31 
		496.52,112.3 506.37,115 510.72,115.55 525.2,116.98 539.51,118.74 553.71,121.5 568.03,124.69 582.28,128.05 596.81,130.47 
		610.69,131.51 625.27,138.01 639.36,142.8 653.73,147.64 667.93,151.72 682.24,155.9 696.83,159.64 709.88,162.23 	"/>
</g>
</svg>
