<!-- Generator: Adobe Illustrator 25.0.0, SVG Export Plug-In  -->
<svg version="1.1" xmlns="http://www.w3.org/2000/svg" xmlns:xlink="http://www.w3.org/1999/xlink" x="0px" y="0px" width="737.5px"
	 height="202.47px" viewBox="0 0 737.5 202.47" style="overflow:visible;enable-background:new 0 0 737.5 202.47;"
	 xml:space="preserve">
<style type="text/css">
	.st0{fill:none;stroke:#4E4E4E;stroke-width:0.9921;stroke-miterlimit:10;}
	.st1{fill:none;stroke:#662D91;stroke-width:0.9921;stroke-miterlimit:10;}
	.st2{fill:none;stroke:#EC008C;stroke-width:0.9921;stroke-miterlimit:10;}
	.st3{fill:none;stroke:#ED1C24;stroke-width:0.9921;stroke-miterlimit:10;}
	.st4{fill:none;stroke:#F7941D;stroke-width:0.9921;stroke-miterlimit:10;}
	.st5{fill:none;stroke:#000000;stroke-miterlimit:10;}
</style>
<defs>
</defs>
<g id="Normaö_1_">
	<g id="Coordinates_2_">
		<path class="st0" d="M737.5,202.47"/>
		<path class="st1" d="M0,202.47"/>
		<path id="M2_2_" class="st2" d="M653.69,192.64"/>
		<path id="M1_2_" class="st3" d="M511.58,192.64"/>
		<path id="IM_4_" class="st4" d="M454.74,192.64"/>
		<path id="OM_2_" class="st3" d="M255.79,192.64"/>
	</g>
	<g id="Marker_2_">
		<line id="CM2_2_" class="st2" x1="653.69" y1="0" x2="653.69" y2="192.64"/>
		<line id="CM1_2_" class="st3" x1="511.58" y1="0" x2="511.58" y2="192.64"/>
		<line id="IM_1_" class="st4" x1="454.74" y1="0" x2="454.74" y2="192.64"/>
		<line id="MM_2_" class="st3" x1="255.79" y1="0" x2="255.79" y2="192.64"/>
	</g>
	<polyline class="st5" points="0.79,115.6 14.54,113.94 28.74,111.76 42.62,109.16 56.86,106.64 70.81,104.28 85.01,102.39 
		99.17,100.61 113.25,98.67 127.58,96.48 141.57,95.28 155.78,94.09 170.06,92.81 184.34,91.82 198.55,90.87 212.62,89.59 
		226.58,89.22 240.99,88.55 254.78,86.86 268.89,86.04 283.59,85.58 297.59,84.76 311.75,83.72 325.58,82.61 340.19,81.95 
		354.31,81.04 368.35,80.5 382.39,79.64 396.83,78.52 411,76.79 424.83,76.13 439.4,75.26 453.39,73.82 467.76,72.08 481.8,70.8 
		495.71,70.47 510.41,69.77 524.57,69.73 538.23,71.01 553.01,72.25 567.13,74.06 581.29,76.29 595.95,77.2 610.07,79.55 
		624.27,82.03 638.22,85 652.59,88.39 666.63,91.94 681.12,96.28 695.16,99.83 709.69,101.68 722.36,104.33 735.82,107.3 	"/>
</g>
</svg>
