<!-- Generator: Adobe Illustrator 25.0.0, SVG Export Plug-In  -->
<svg version="1.1" xmlns="http://www.w3.org/2000/svg" xmlns:xlink="http://www.w3.org/1999/xlink" x="0px" y="0px"
	 width="710.73px" height="228.66px" viewBox="0 0 710.73 228.66"
	 style="overflow:visible;enable-background:new 0 0 710.73 228.66;" xml:space="preserve">
<style type="text/css">
	.st0{fill:none;stroke:#4E4E4E;stroke-width:0.9921;stroke-miterlimit:10;}
	.st1{fill:none;stroke:#3DB54A;stroke-width:0.9921;stroke-miterlimit:10;}
	.st2{fill:none;stroke:#F79421;stroke-width:0.9921;stroke-miterlimit:10;}
	.st3{fill:none;stroke:#EC2227;stroke-width:0.9921;stroke-miterlimit:10;}
	.st4{fill:none;stroke:#67308F;stroke-width:0.9921;stroke-miterlimit:10;}
	.st5{fill:none;stroke:#000000;stroke-miterlimit:10;}
</style>
<defs>
</defs>
<g id="NOrmal_1_">
	<g id="Coordinates_2_">
		<path id="_x30_0_2_" class="st0" d="M0.2,228.66"/>
		<path id="_x30_1_2_" class="st1" d="M0.12,0"/>
		<path id="_x31_0_2_" class="st0" d="M710.73,228.66"/>
		<path id="IM_4_" class="st2" d="M511.78,223.83"/>
		<path id="MM_4_" class="st3" d="M284.41,223.83"/>
		<path id="OM_4_" class="st4" d="M85.46,223.83"/>
	</g>
	<g id="Marker_2_">
		<line id="IM_1_" class="st2" x1="511.78" y1="16.12" x2="511.78" y2="205.79"/>
		<line id="MM_1_" class="st3" x1="284.41" y1="16.12" x2="284.41" y2="205.79"/>
		<line id="OM_1_" class="st4" x1="85.46" y1="16.12" x2="85.46" y2="205.79"/>
	</g>
	<polyline class="st5" points="0.21,182.9 6.44,180.01 14.04,177.86 28.12,174.44 42.11,172.04 56.52,169.85 66.18,168.12 
		70.31,166.47 77.74,163.41 84.93,162.26 98.63,160.77 113,160.03 126.87,159.62 141.07,157.88 155.11,157.14 169.23,157.39 
		183.51,157.22 198.13,157.55 211.83,158.71 226.12,159.62 240.49,159.45 254.44,159.86 268.72,161.35 282.68,161.19 296.71,158.13 
		311,156.97 325.28,156.23 339.48,155.08 353.69,154.74 367.89,154.17 381.93,153.09 396.29,152.52 410.33,152.1 424.28,152.02 
		438.98,150.95 453.02,150.62 467.71,150.53 481.42,149.63 488.6,148.8 495.79,145.83 509.82,143.85 518.49,142.61 524.11,142.52 
		538.23,142.11 552.59,142.52 566.8,145.66 581.25,148.72 595.78,152.27 609.57,156.64 624.26,160.77 638.38,163.5 652.5,166.39 
		667.12,168.62 680.99,170.43 695.44,171.84 	"/>
</g>
</svg>
