<!-- Generator: Adobe Illustrator 25.0.0, SVG Export Plug-In  -->
<svg version="1.1" xmlns="http://www.w3.org/2000/svg" xmlns:xlink="http://www.w3.org/1999/xlink" x="0px" y="0px"
	 width="710.61px" height="228.66px" viewBox="0 0 710.61 228.66"
	 style="overflow:visible;enable-background:new 0 0 710.61 228.66;" xml:space="preserve">
<style type="text/css">
	.st0{fill:none;stroke:#4E4E4E;stroke-width:0.9921;stroke-miterlimit:10;}
	.st1{fill:none;stroke:#3DB54A;stroke-width:0.9921;stroke-miterlimit:10;}
	.st2{fill:none;stroke:#F79421;stroke-width:0.9921;stroke-miterlimit:10;}
	.st3{fill:none;stroke:#EC2227;stroke-width:0.9921;stroke-miterlimit:10;}
	.st4{fill:none;stroke:#67308F;stroke-width:0.9921;stroke-miterlimit:10;}
	.st5{fill:none;stroke:#000000;stroke-miterlimit:10;}
</style>
<defs>
</defs>
<g id="Normal_1_">
	<g id="Coordinates_2_">
		<path id="_x31_0_2_" class="st0" d="M710.61,228.66"/>
		<path id="_x30_1_2_" class="st1" d="M0,0"/>
		<path id="_x30_0_2_" class="st0" d="M0.08,228.66"/>
		<path id="IM_4_" class="st2" d="M511.66,217.83"/>
		<path id="MM_4_" class="st3" d="M284.29,217.83"/>
		<path id="OM_4_" class="st4" d="M85.34,217.83"/>
	</g>
	<g id="Marker_2_">
		<line id="IM_1_" class="st2" x1="511.66" y1="16.12" x2="511.66" y2="209.28"/>
		<line id="MM_1_" class="st3" x1="284.29" y1="16.12" x2="284.29" y2="209.28"/>
		<line id="OM_1_" class="st4" x1="85.34" y1="16.12" x2="85.34" y2="209.28"/>
	</g>
	<polyline class="st5" points="1.33,184.47 15.31,180.39 29.51,176.21 43.6,172.47 57.7,168.28 67.6,165.09 71.57,164.43 
		85.33,162.23 99.64,161.57 114.06,160.69 128.26,159.37 142.25,158.05 156.56,155.51 170.43,153.97 185.07,151.99 198.61,150.34 
		213.15,147.37 227.13,145.5 241.33,143.07 255.42,140.54 269.62,138.01 284.04,135.04 297.92,132.72 312.01,129.75 323.79,127.44 
		325.99,127.33 335.46,126.78 339.97,125.68 354.28,122.93 368.48,119.95 382.8,117.75 396.78,114.78 411.09,111.48 425.07,108.39 
		439.38,105.64 453.81,101.9 467.46,97.94 481.99,94.3 495.75,91 510.5,88.47 524.59,87.37 538.58,86.38 552.78,86.38 567.09,87.26 
		581.62,87.26 595.16,88.36 609.36,89.79 624.23,91.77 638.1,94.3 642.83,94.85 652.3,97.83 666.61,102.67 670.58,104.43 
		681.36,107.18 695.13,110.82 708.89,114.23 	"/>
</g>
</svg>
