<!-- Generator: Adobe Illustrator 25.0.0, SVG Export Plug-In  -->
<svg version="1.1" xmlns="http://www.w3.org/2000/svg" xmlns:xlink="http://www.w3.org/1999/xlink" x="0px" y="0px"
	 width="710.53px" height="228.66px" viewBox="0 0 710.53 228.66"
	 style="overflow:visible;enable-background:new 0 0 710.53 228.66;" xml:space="preserve">
<style type="text/css">
	.st0{fill:none;stroke:#4E4E4E;stroke-width:0.9921;stroke-miterlimit:10;}
	.st1{fill:none;stroke:#3DB54A;stroke-width:0.9921;stroke-miterlimit:10;}
	.st2{fill:none;stroke:#F79421;stroke-width:0.9921;stroke-miterlimit:10;}
	.st3{fill:none;stroke:#EC2227;stroke-width:0.9921;stroke-miterlimit:10;}
	.st4{fill:none;stroke:#67308F;stroke-width:0.9921;stroke-miterlimit:10;}
	.st5{fill:none;stroke:#000000;stroke-miterlimit:10;}
</style>
<defs>
</defs>
<g id="Normal_1_">
	<g id="Coordinates_2_">
		<path id="_x30_0_2_" class="st0" d="M0,228.66"/>
		<path id="_x30_1_2_" class="st1" d="M0,0"/>
		<path id="_x31_0_2_" class="st0" d="M710.53,228.66"/>
		<path id="IM_4_" class="st2" d="M511.58,218.83"/>
		<path id="MM_4_" class="st3" d="M284.21,218.83"/>
		<path id="OM_4_" class="st4" d="M85.26,218.83"/>
	</g>
	<g id="Marker_2_">
		<line id="IM_1_" class="st2" x1="511.58" y1="4.6" x2="511.58" y2="224.35"/>
		<line id="MM_1_" class="st3" x1="284.21" y1="4.6" x2="284.21" y2="224.35"/>
		<line id="OM_1_" class="st4" x1="85.26" y1="4.6" x2="85.26" y2="224.35"/>
	</g>
	<polyline class="st5" points="0.04,180.86 13.52,181.91 28.06,183.62 42.04,183.62 56.41,184.17 64.06,184.28 70.33,183.62 
		80.9,182.63 84.86,181.41 98.9,175.63 113.1,169.74 127.25,165.12 140.96,160.28 155.49,154.22 169.58,149.49 183.84,145.08 
		197.93,138.64 208.55,134.35 212.13,133.14 226.55,129.12 240.86,125.21 254.74,120.7 264.59,117.89 268.66,117.62 282.86,115.74 
		290.63,115.03 297.23,113.49 303.51,111.78 311.49,110.9 317.65,110.41 325.74,108.86 340.11,106.94 354.04,105.4 368.24,103.63 
		382.5,102.53 396.86,101.21 410.9,100.06 425.38,98.46 439.63,97.36 453.78,96.09 467.93,95.65 482.13,94.83 496.61,94.77 
		510.75,94.83 525.01,93.73 538.99,92.85 553.36,92.63 567.73,91.47 581.98,90.2 596.51,88.72 610.72,88.44 622.66,88.5 
		625.63,89.21 639.23,92.68 653.43,97.63 668.02,103.41 682.55,110.74 696.64,118.11 709.91,126.2 	"/>
</g>
</svg>
