<!-- Generator: Adobe Illustrator 25.0.0, SVG Export Plug-In  -->
<svg version="1.1" xmlns="http://www.w3.org/2000/svg" xmlns:xlink="http://www.w3.org/1999/xlink" x="0px" y="0px"
	 width="710.61px" height="228.66px" viewBox="0 0 710.61 228.66"
	 style="overflow:visible;enable-background:new 0 0 710.61 228.66;" xml:space="preserve">
<style type="text/css">
	.st0{fill:none;stroke:#4E4E4E;stroke-width:0.9921;stroke-miterlimit:10;}
	.st1{fill:none;stroke:#3DB54A;stroke-width:0.9921;stroke-miterlimit:10;}
	.st2{fill:none;stroke:#F79421;stroke-width:0.9921;stroke-miterlimit:10;}
	.st3{fill:none;stroke:#EC2227;stroke-width:0.9921;stroke-miterlimit:10;}
	.st4{fill:none;stroke:#67308F;stroke-width:0.9921;stroke-miterlimit:10;}
	.st5{fill:none;stroke:#000000;stroke-miterlimit:10;}
</style>
<defs>
</defs>
<g id="Normal_1_">
	<g id="Coordinates_2_">
		<path id="_x31_0_2_" class="st0" d="M710.61,228.66"/>
		<path id="_x30_1_2_" class="st1" d="M0,0"/>
		<path id="_x30_0_2_" class="st0" d="M0.08,228.66"/>
		<path id="IM_4_" class="st2" d="M511.66,217.83"/>
		<path id="MM_4_" class="st3" d="M284.29,217.83"/>
		<path id="OM_4_" class="st4" d="M85.34,217.83"/>
	</g>
	<g id="Marker_2_">
		<line id="IM_1_" class="st2" x1="511.66" y1="16.12" x2="511.66" y2="209.28"/>
		<line id="MM_1_" class="st3" x1="284.29" y1="16.12" x2="284.29" y2="209.28"/>
		<line id="OM_1_" class="st4" x1="85.34" y1="16.12" x2="85.34" y2="209.28"/>
	</g>
	<polyline class="st5" points="0.67,193.05 14.38,187.11 28.91,181.83 42.78,177.86 56.82,172.91 71.18,166.8 85.55,161.02 
		98.93,157.05 113.51,151.33 127.49,145.94 141.92,140.98 156.23,136.25 169.88,131.29 184.41,126.56 198.28,121.28 212.7,115.77 
		226.69,110.38 240.89,105.31 255.09,100.91 269.51,95.95 283.49,91.77 297.37,88.03 312.01,86.27 325.99,84.28 339.64,83.18 
		353.73,82.3 368.15,81.86 382.58,79.77 396.34,77.02 410.54,74.27 425.07,70.85 439.6,66.78 453.14,63.26 467.46,58.74 
		481.44,53.68 495.75,48.5 509.84,45.2 514.14,45.42 523.82,52.36 538.03,62.05 552.78,71.4 566.76,79.77 581.4,89.35 595.6,100.03 
		609.58,111.15 624.12,123.04 	"/>
</g>
</svg>
