<!-- Generator: Adobe Illustrator 25.0.0, SVG Export Plug-In  -->
<svg version="1.1" xmlns="http://www.w3.org/2000/svg" xmlns:xlink="http://www.w3.org/1999/xlink" x="0px" y="0px" width="737.5px"
	 height="202.47px" viewBox="0 0 737.5 202.47" style="overflow:visible;enable-background:new 0 0 737.5 202.47;"
	 xml:space="preserve">
<style type="text/css">
	.st0{fill:none;stroke:#4E4E4E;stroke-width:0.9921;stroke-miterlimit:10;}
	.st1{fill:none;stroke:#662D91;stroke-width:0.9921;stroke-miterlimit:10;}
	.st2{fill:none;stroke:#EC008C;stroke-width:0.9921;stroke-miterlimit:10;}
	.st3{fill:none;stroke:#ED1C24;stroke-width:0.9921;stroke-miterlimit:10;}
	.st4{fill:none;stroke:#F7941D;stroke-width:0.9921;stroke-miterlimit:10;}
	.st5{fill:none;stroke:#000000;stroke-miterlimit:10;}
</style>
<defs>
</defs>
<g id="Normal_1_">
	<g id="Coordinates_2_">
		<path class="st0" d="M737.5,202.47"/>
		<path class="st1" d="M0,202.47"/>
		<path id="M2_2_" class="st2" d="M653.69,192.64"/>
		<path id="M1_2_" class="st3" d="M511.58,192.64"/>
		<path id="IM_4_" class="st4" d="M454.74,192.64"/>
		<path id="OM_2_" class="st3" d="M255.79,192.64"/>
	</g>
	<g id="Marker_2_">
		<line id="CM2_2_" class="st2" x1="653.69" y1="0" x2="653.69" y2="192.64"/>
		<line id="CM1_2_" class="st3" x1="511.58" y1="0" x2="511.58" y2="192.64"/>
		<line id="IM_1_" class="st4" x1="454.74" y1="0" x2="454.74" y2="192.64"/>
		<line id="MM_2_" class="st3" x1="255.79" y1="0" x2="255.79" y2="192.64"/>
	</g>
	<polyline class="st5" points="1.25,157.29 15.12,157.21 29.07,157.46 43.11,157.38 57.31,157.54 71.43,157.13 85.8,157.38 
		99.59,157.54 113.87,157.87 127.83,158.2 141.95,159.03 156.06,159.61 170.43,160.1 184.88,160.35 198.5,160.93 213.12,161.42 
		227.57,162.83 241.28,163.07 247.39,162.58 255.48,160.76 269.93,155.97 283.8,151.76 297.75,147.88 312.12,144.66 326.16,141.94 
		340.28,138.96 354.64,135.58 368.68,132.85 382.88,129.14 396.67,125.42 410.62,120.88 425.07,117.99 439.44,115.1 453.06,111.63 
		467.93,112.13 481.88,111.47 496,110.81 510.61,110.56 522.17,110.89 524.73,108.66 539.35,98.75 552.97,84.88 567.01,73.57 
		581.62,59.12 595.58,44.92 601.03,40.29 606.06,40.05 610.03,45.5 624.23,57.96 638.18,70.1 652.88,84.14 667,90.33 681.2,94.46 
		695.4,101.06 710.02,109.32 722.57,115.6 735.94,120.05 	"/>
</g>
</svg>
