<!-- Generator: Adobe Illustrator 25.0.0, SVG Export Plug-In  -->
<svg version="1.1" xmlns="http://www.w3.org/2000/svg" xmlns:xlink="http://www.w3.org/1999/xlink" x="0px" y="0px"
	 width="710.61px" height="228.66px" viewBox="0 0 710.61 228.66"
	 style="overflow:visible;enable-background:new 0 0 710.61 228.66;" xml:space="preserve">
<style type="text/css">
	.st0{fill:none;stroke:#4E4E4E;stroke-width:0.9921;stroke-miterlimit:10;}
	.st1{fill:none;stroke:#3DB54A;stroke-width:0.9921;stroke-miterlimit:10;}
	.st2{fill:none;stroke:#F79421;stroke-width:0.9921;stroke-miterlimit:10;}
	.st3{fill:none;stroke:#EC2227;stroke-width:0.9921;stroke-miterlimit:10;}
	.st4{fill:none;stroke:#67308F;stroke-width:0.9921;stroke-miterlimit:10;}
	.st5{fill:none;stroke:#000000;stroke-miterlimit:10;}
</style>
<defs>
</defs>
<g id="Normal_1_">
	<g id="Coordinates_2_">
		<path id="_x30_0_2_" class="st0" d="M0.08,228.66"/>
		<path id="_x30_1_2_" class="st1" d="M0,0"/>
		<path id="_x31_0_2_" class="st0" d="M710.61,228.66"/>
		<path id="IM_4_" class="st2" d="M511.66,218.83"/>
		<path id="MM_4_" class="st3" d="M284.29,218.83"/>
		<path id="OM_4_" class="st4" d="M85.34,218.83"/>
	</g>
	<g id="Marker_2_">
		<line id="IM_1_" class="st2" x1="511.66" y1="13.03" x2="511.66" y2="222.68"/>
		<line id="MM_1_" class="st3" x1="284.29" y1="13.03" x2="284.29" y2="222.68"/>
		<line id="OM_1_" class="st4" x1="85.34" y1="13.03" x2="85.34" y2="222.68"/>
	</g>
	<polyline class="st5" points="0.38,173.65 14.25,170.1 28.54,165.44 42.37,160.03 56.61,154.25 70.85,146.82 84.81,138.64 
		87.57,137.28 99.05,138.27 113.09,139.22 127.37,138.68 141.57,138.11 156.02,135.96 169.81,133.19 184.38,130.01 198.34,127.04 
		212.42,124.28 226.62,122.34 241.07,120.4 255.19,117.26 269.02,115.15 283.27,113.51 291.97,112.96 297.59,110.98 311.46,107.35 
		320.7,104.38 325.33,101.52 340.08,94.69 354.28,88.52 368.15,82.58 382.36,77.4 396.89,71.79 410.43,68.71 414.39,67.83 
		425.07,72.34 439.27,79.61 453.59,86.43 468.12,93.59 481.88,99.75 496.19,106.91 511.05,114.95 524.26,121.77 538.8,125.63 
		553.44,130.03 567.42,132.34 581.62,134.54 596.26,138.07 610.25,138.73 624.56,139.72 639.09,143.02 652.85,147.75 667.27,152.71 
		681.36,156.89 695.57,159.53 709.11,164.16 	"/>
</g>
</svg>
