<!-- Generator: Adobe Illustrator 25.0.0, SVG Export Plug-In  -->
<svg version="1.1" xmlns="http://www.w3.org/2000/svg" xmlns:xlink="http://www.w3.org/1999/xlink" x="0px" y="0px"
	 width="710.53px" height="228.66px" viewBox="0 0 710.53 228.66"
	 style="overflow:visible;enable-background:new 0 0 710.53 228.66;" xml:space="preserve">
<style type="text/css">
	.st0{fill:none;stroke:#4E4E4E;stroke-width:0.9921;stroke-miterlimit:10;}
	.st1{fill:none;stroke:#3DB54A;stroke-width:0.9921;stroke-miterlimit:10;}
	.st2{fill:none;stroke:#F79421;stroke-width:0.9921;stroke-miterlimit:10;}
	.st3{fill:none;stroke:#EC2227;stroke-width:0.9921;stroke-miterlimit:10;}
	.st4{fill:none;stroke:#67308F;stroke-width:0.9921;stroke-miterlimit:10;}
	.st5{fill:none;stroke:#000000;stroke-miterlimit:10;}
</style>
<defs>
</defs>
<g id="Normal_1_">
	<g id="Coordinates_2_">
		<path id="_x30_0_2_" class="st0" d="M0,228.66"/>
		<path id="_x30_1_2_" class="st1" d="M0,0"/>
		<path id="_x31_0_2_" class="st0" d="M710.53,228.66"/>
		<path id="IM_4_" class="st2" d="M511.58,218.83"/>
		<path id="MM_4_" class="st3" d="M284.21,218.83"/>
		<path id="OM_4_" class="st4" d="M85.26,218.83"/>
	</g>
	<g id="Marker_2_">
		<line id="IM_1_" class="st2" x1="511.58" y1="4.6" x2="511.58" y2="224.35"/>
		<line id="MM_1_" class="st3" x1="284.21" y1="4.6" x2="284.21" y2="224.35"/>
		<line id="OM_1_" class="st4" x1="85.26" y1="4.6" x2="85.26" y2="224.35"/>
	</g>
	<polyline class="st5" points="1.08,182.24 14.29,181.41 28.83,181.08 42.7,181.25 57.06,182.08 71.6,182.24 85.47,184.88 
		99.51,182.24 113.87,176.3 127.91,172.17 142.11,166.55 156.48,162.59 170.43,156.97 184.72,152.1 199,147.15 212.95,141.78 
		226.91,135.09 240.78,129.56 255.06,123.53 269.27,118 283.47,115.03 286.19,117.59 297.26,117.84 311.38,117.34 325.58,116.68 
		340.03,115.77 354.23,115.77 368.68,113.3 382.72,110.41 396.67,107.93 410.71,104.46 424.91,101.82 439.36,99.42 453.56,97.36 
		467.35,94.47 481.55,91.41 495.26,89.93 509.95,90.18 514.58,93.4 524.24,93.31 539.43,90.84 552.56,89.93 567.01,89.27 
		580.96,88.19 595.41,88.69 603.92,87.7 609.53,88.86 623.9,89.6 637.77,91.58 651.72,93.07 666.26,96.45 681.04,102.81 
		695.07,108.59 709.19,113.79 	"/>
</g>
</svg>
