<!-- Generator: Adobe Illustrator 25.0.0, SVG Export Plug-In  -->
<svg version="1.1" xmlns="http://www.w3.org/2000/svg" xmlns:xlink="http://www.w3.org/1999/xlink" x="0px" y="0px"
	 width="710.61px" height="228.66px" viewBox="0 0 710.61 228.66"
	 style="overflow:visible;enable-background:new 0 0 710.61 228.66;" xml:space="preserve">
<style type="text/css">
	.st0{fill:none;stroke:#4E4E4E;stroke-width:0.9921;stroke-miterlimit:10;}
	.st1{fill:none;stroke:#3DB54A;stroke-width:0.9921;stroke-miterlimit:10;}
	.st2{fill:none;stroke:#F79421;stroke-width:0.9921;stroke-miterlimit:10;}
	.st3{fill:none;stroke:#EC2227;stroke-width:0.9921;stroke-miterlimit:10;}
	.st4{fill:none;stroke:#67308F;stroke-width:0.9921;stroke-miterlimit:10;}
	.st5{fill:none;stroke:#000000;stroke-miterlimit:10;}
</style>
<defs>
</defs>
<g id="Normal_1_">
	<g id="Coordinates_2_">
		<path id="_x30_0_2_" class="st0" d="M0.08,228.66"/>
		<path id="_x30_1_2_" class="st1" d="M0,0"/>
		<path id="_x31_0_2_" class="st0" d="M710.61,228.66"/>
		<path id="IM_4_" class="st2" d="M511.66,223.83"/>
		<path id="MM_4_" class="st3" d="M284.29,223.83"/>
		<path id="OM_4_" class="st4" d="M85.34,223.83"/>
	</g>
	<g id="Marker_2_">
		<line id="IM_1_" class="st2" x1="511.66" y1="16.12" x2="511.66" y2="205.79"/>
		<line id="MM_1_" class="st3" x1="284.29" y1="16.12" x2="284.29" y2="205.79"/>
		<line id="OM_1_" class="st4" x1="85.34" y1="16.12" x2="85.34" y2="205.79"/>
	</g>
	<polyline class="st5" points="1.6,185.54 15.2,185.27 29.24,184.5 43.38,183.67 57.53,183.78 71.62,185.05 86.21,184.83 
		100.03,185.38 114.45,185.32 128.48,185.27 142.69,185.21 156.72,185.1 170.93,184.83 185.18,184.83 199.05,184.44 213.75,183.95 
		227.79,183.95 241.99,183.84 255.92,183.95 270.12,183.78 284.54,182.85 298.41,181.91 312.78,180.31 326.59,177.12 340.91,174.15 
		355.33,171.12 369.53,168.97 383.4,166.11 397.55,161.87 411.59,158.57 426.12,156.31 440.32,153.73 454.36,150.48 468.72,146.74 
		482.87,144.2 497.24,142.17 511.38,139.91 516.56,138.75 525.7,138.64 539.57,137.87 554.1,136.11 568.19,135.89 582.5,136.17 
		596.98,137.98 611.13,139.47 625.55,137.76 639.25,141.73 653.73,149.82 667.93,157.47 682.58,165.51 696.67,175.3 710.21,182.3 	
		"/>
</g>
</svg>
