<!-- Generator: Adobe Illustrator 25.0.0, SVG Export Plug-In  -->
<svg version="1.1" xmlns="http://www.w3.org/2000/svg" xmlns:xlink="http://www.w3.org/1999/xlink" x="0px" y="0px"
	 width="710.61px" height="228.66px" viewBox="0 0 710.61 228.66"
	 style="overflow:visible;enable-background:new 0 0 710.61 228.66;" xml:space="preserve">
<style type="text/css">
	.st0{fill:none;stroke:#4E4E4E;stroke-width:0.9921;stroke-miterlimit:10;}
	.st1{fill:none;stroke:#3DB54A;stroke-width:0.9921;stroke-miterlimit:10;}
	.st2{fill:none;stroke:#F79421;stroke-width:0.9921;stroke-miterlimit:10;}
	.st3{fill:none;stroke:#EC2227;stroke-width:0.9921;stroke-miterlimit:10;}
	.st4{fill:none;stroke:#67308F;stroke-width:0.9921;stroke-miterlimit:10;}
	.st5{fill:none;stroke:#000000;stroke-miterlimit:10;}
</style>
<defs>
</defs>
<g id="Normal_1_">
	<g id="Coordinates_2_">
		<path id="_x30_0_2_" class="st0" d="M0.08,228.66"/>
		<path id="_x30_1_2_" class="st1" d="M0,0"/>
		<path id="_x31_0_2_" class="st0" d="M710.61,228.66"/>
		<path id="IM_4_" class="st2" d="M511.66,223.83"/>
		<path id="MM_4_" class="st3" d="M284.29,223.83"/>
		<path id="OM_4_" class="st4" d="M85.34,223.83"/>
	</g>
	<g id="Marker_2_">
		<line id="IM_1_" class="st2" x1="511.66" y1="16.12" x2="511.66" y2="205.79"/>
		<line id="MM_1_" class="st3" x1="284.29" y1="16.12" x2="284.29" y2="205.79"/>
		<line id="OM_1_" class="st4" x1="85.34" y1="16.12" x2="85.34" y2="205.79"/>
	</g>
	<polyline class="st5" points="0.17,168.31 14.1,169.08 28.58,170.68 42.39,171.4 56.82,172.22 70.85,172.66 84.89,172.44 
		99.59,172.72 113.29,173.21 127.49,173.38 141.64,173.98 155.84,174.59 169.93,175.36 184.3,176.35 198.28,177.07 212.65,177.73 
		226.36,178.66 240.72,180.04 254.7,181.36 269.18,183.07 283.38,183.78 297.7,184.94 311.84,186.64 325.55,187.85 340.25,189.4 
		354.45,191.16 368.65,192.31 382.69,193.91 396.94,195.67 410.81,197.27 425.18,198.48 439.16,199.25 453.48,199.47 467.95,200.13 
		481.99,200.52 496.14,201.01 510.34,201.56 524.48,202.11 538.96,201.84 546.78,198.86 553.16,193.8 560.54,187.97 566.81,186.97 
		572.81,188.96 581.73,196.39 595.6,198.37 610.36,199.08 624.61,198.81 638.43,198.81 653.02,198.92 667.11,199.08 681.47,199.91 
		695.62,200.52 709.48,201.84 	"/>
</g>
</svg>
