<!-- Generator: Adobe Illustrator 25.0.0, SVG Export Plug-In  -->
<svg version="1.1" xmlns="http://www.w3.org/2000/svg" xmlns:xlink="http://www.w3.org/1999/xlink" x="0px" y="0px"
	 width="710.53px" height="228.66px" viewBox="0 0 710.53 228.66"
	 style="overflow:visible;enable-background:new 0 0 710.53 228.66;" xml:space="preserve">
<style type="text/css">
	.st0{fill:none;stroke:#4E4E4E;stroke-width:0.9921;stroke-miterlimit:10;}
	.st1{fill:none;stroke:#3DB54A;stroke-width:0.9921;stroke-miterlimit:10;}
	.st2{fill:none;stroke:#F79421;stroke-width:0.9921;stroke-miterlimit:10;}
	.st3{fill:none;stroke:#EC2227;stroke-width:0.9921;stroke-miterlimit:10;}
	.st4{fill:none;stroke:#67308F;stroke-width:0.9921;stroke-miterlimit:10;}
	.st5{fill:none;stroke:#000000;stroke-miterlimit:10;}
</style>
<defs>
</defs>
<g id="Normal_1_">
	<g id="Coordinates_2_">
		<path id="_x30_0_2_" class="st0" d="M0,228.66"/>
		<path id="_x30_1_2_" class="st1" d="M0,0"/>
		<path id="_x31_0_2_" class="st0" d="M710.53,228.66"/>
		<path id="IM_4_" class="st2" d="M511.58,218.83"/>
		<path id="MM_4_" class="st3" d="M284.21,218.83"/>
		<path id="OM_4_" class="st4" d="M85.26,218.83"/>
	</g>
	<g id="Marker_2_">
		<line id="IM_1_" class="st2" x1="511.58" y1="4.6" x2="511.58" y2="224.35"/>
		<line id="MM_1_" class="st3" x1="284.21" y1="4.6" x2="284.21" y2="224.35"/>
		<line id="OM_1_" class="st4" x1="85.26" y1="4.6" x2="85.26" y2="224.35"/>
	</g>
	<polyline class="st5" points="1.91,179.43 13.47,179.65 27.62,180.31 41.76,181.19 56.07,182.41 70.33,182.52 84.48,183.62 
		98.51,185.16 112.72,186.7 126.81,187.74 140.95,188.35 155.05,190.06 169.58,191.76 183.56,192.31 197.65,192.97 212.07,191.65 
		226.17,190.55 240.37,189.23 247.19,187.8 253.8,184.61 262.39,179.76 268.22,174.92 272.4,172.28 278.79,160.61 282.2,154.33 
		292,150.15 296.73,145.3 301.91,141.34 311.38,138.04 325.14,135.07 339.56,132.42 353.32,132.86 367.96,136.94 381.94,144.2 
		389.87,148.72 395.82,154 410.13,157.19 414.09,158.41 424.66,158.96 439.19,158.74 453.61,158.96 467.71,158.85 481.69,160.06 
		488.29,159.18 495.67,155.54 502.27,149.27 510.31,143.87 515.27,142 524.07,145.97 528.92,153.01 534.75,156.86 538.5,158.74 
		542.02,159.62 550.72,158.85 555.78,157.3 564.48,142.77 566.79,141.12 569.1,140.57 572.29,142.11 574.61,144.75 577.03,149.27 
		579.01,154.99 582.86,156.86 595.41,160.39 610.16,164.79 621.72,174.26 624.92,173.71 628.33,169.19 638.57,164.02 647.05,161.27 
		652.55,157.3 658.16,152.9 661.69,151.91 666.31,154 669.17,156.53 670.49,158.96 672.26,161.16 675.34,163.36 680.29,165.78 
		685.03,164.46 691.41,161.71 697.14,160.06 704.62,159.51 709.91,160.83 	"/>
</g>
</svg>
