<!-- Generator: Adobe Illustrator 25.0.0, SVG Export Plug-In  -->
<svg version="1.1" xmlns="http://www.w3.org/2000/svg" xmlns:xlink="http://www.w3.org/1999/xlink" x="0px" y="0px" width="737.5px"
	 height="202.47px" viewBox="0 0 737.5 202.47" style="overflow:visible;enable-background:new 0 0 737.5 202.47;"
	 xml:space="preserve">
<style type="text/css">
	.st0{fill:none;stroke:#4E4E4E;stroke-width:0.9921;stroke-miterlimit:10;}
	.st1{fill:none;stroke:#662D91;stroke-width:0.9921;stroke-miterlimit:10;}
	.st2{fill:none;stroke:#EC008C;stroke-width:0.9921;stroke-miterlimit:10;}
	.st3{fill:none;stroke:#ED1C24;stroke-width:0.9921;stroke-miterlimit:10;}
	.st4{fill:none;stroke:#F7941D;stroke-width:0.9921;stroke-miterlimit:10;}
	.st5{fill:none;stroke:#000000;stroke-miterlimit:10;}
</style>
<defs>
</defs>
<g id="Normal_1_">
	<g id="Coordinates_2_">
		<path class="st0" d="M737.5,202.47"/>
		<path class="st1" d="M0,202.47"/>
		<path id="M2_2_" class="st2" d="M653.69,192.64"/>
		<path id="M1_2_" class="st3" d="M511.58,192.64"/>
		<path id="IM_4_" class="st4" d="M454.74,192.64"/>
		<path id="OM_2_" class="st3" d="M255.79,192.64"/>
	</g>
	<g id="Marker_2_">
		<line id="CM2_2_" class="st2" x1="653.69" y1="0" x2="653.69" y2="192.64"/>
		<line id="CM1_2_" class="st3" x1="511.58" y1="0" x2="511.58" y2="192.64"/>
		<line id="IM_1_" class="st4" x1="454.74" y1="0" x2="454.74" y2="192.64"/>
		<line id="MM_2_" class="st3" x1="255.79" y1="0" x2="255.79" y2="192.64"/>
	</g>
	<polyline class="st5" points="0.26,151.6 8.43,154.57 13.47,155.06 27.67,156.63 41.71,157.95 55.83,158.78 69.95,161.09 
		84.64,162.74 98.43,163.57 112.72,165.3 126.67,166.46 141.28,168.69 155.24,170.42 169.44,171.66 183.73,172.57 197.76,172.65 
		212.54,171.74 226,168.19 240.53,159.61 254.98,147.72 265.06,139.79 268.69,139.29 283.06,144.25 287.6,145.4 297.09,145.24 
		311.29,144.74 325.74,144.08 340.28,143.92 353.98,144.08 368.35,144.08 382.55,143.17 396.67,143.01 410.71,143.34 424.91,141.69 
		433.66,139.46 439.61,136.9 453.64,126.83 459.09,122.7 467.43,106.1 470.32,100.9 474.37,93.8 479.98,88.51 481.8,87.94 
		495.92,83.97 501.78,77.61 510.7,64.07 513.5,59.78 518.29,58.95 521.68,59.78 524.49,63.08 529.94,69.61 538.11,76.87 
		553.38,81.5 563.54,85.29 567.42,85.62 581.29,87.52 585.17,88.02 596.24,85.38 610.03,82.16 615.97,81.41 623.9,83.64 
		634.55,88.76 638.35,92.15 652.38,100.82 666.5,100.65 681.28,102.05 686.32,103.05 693.5,108.5 697.38,107.59 704.4,110.64 
		709.69,108 715.88,106.76 723.64,105.61 726.28,106.6 728.93,108.33 731.65,111.63 733.63,118.16 736.77,116.75 	"/>
</g>
</svg>
