<!-- Generator: Adobe Illustrator 25.0.0, SVG Export Plug-In  -->
<svg version="1.1" xmlns="http://www.w3.org/2000/svg" xmlns:xlink="http://www.w3.org/1999/xlink" x="0px" y="0px"
	 width="710.61px" height="228.66px" viewBox="0 0 710.61 228.66"
	 style="overflow:visible;enable-background:new 0 0 710.61 228.66;" xml:space="preserve">
<style type="text/css">
	.st0{fill:none;stroke:#4E4E4E;stroke-width:0.9921;stroke-miterlimit:10;}
	.st1{fill:none;stroke:#3DB54A;stroke-width:0.9921;stroke-miterlimit:10;}
	.st2{fill:none;stroke:#F79421;stroke-width:0.9921;stroke-miterlimit:10;}
	.st3{fill:none;stroke:#EC2227;stroke-width:0.9921;stroke-miterlimit:10;}
	.st4{fill:none;stroke:#67308F;stroke-width:0.9921;stroke-miterlimit:10;}
	.st5{fill:none;stroke:#000000;stroke-miterlimit:10;}
</style>
<defs>
</defs>
<g id="Normal_1_">
	<g id="Coordinates_2_">
		<path id="_x31_0_2_" class="st0" d="M710.61,228.66"/>
		<path id="_x30_1_2_" class="st1" d="M0,0"/>
		<path id="_x30_0_2_" class="st0" d="M0.08,228.66"/>
		<path id="IM_4_" class="st2" d="M511.66,217.83"/>
		<path id="MM_4_" class="st3" d="M284.29,217.83"/>
		<path id="OM_4_" class="st4" d="M85.34,217.83"/>
	</g>
	<g id="Marker_2_">
		<line id="IM_1_" class="st2" x1="511.66" y1="16.12" x2="511.66" y2="209.28"/>
		<line id="MM_1_" class="st3" x1="284.29" y1="16.12" x2="284.29" y2="209.28"/>
		<line id="OM_1_" class="st4" x1="85.34" y1="16.12" x2="85.34" y2="209.28"/>
	</g>
	<polyline class="st5" points="1.66,177.2 14.95,176.46 28.66,176.87 43.19,177.28 57.48,178.77 71.76,180.01 85.88,181 
		99.59,181.16 114.04,180.67 128.07,180.5 135.26,179.84 142.77,178.36 156.56,176.29 170.35,176.71 177.45,177.61 184.8,176.95 
		198.83,176.71 213.2,177.37 227.24,177.2 241.36,174.97 245.57,170.76 255.06,156.97 259.93,147.39 266.29,135.92 269.35,128.65 
		272.24,124.36 278.51,113.38 283.8,107.6 290.73,97.61 297.67,95.71 312.04,95.05 326.07,93.15 340.36,91.41 354.64,87.45 
		365.37,83.24 368.35,80.51 374.37,72.01 382.14,71.6 390.72,72.09 397,73.58 404.26,76.39 410.95,76.3 416.9,76.39 424.99,75.31 
		439.27,74.49 445.96,72.59 450.01,72.34 453.89,69.2 458.02,67.88 467.92,70.52 475.27,71.84 482.04,72.01 489.64,71.02 
		496.08,70.11 503.35,69.04 510.94,70.19 524.48,72.5 532.74,73.74 538.77,73.17 549.42,70.19 555.86,60.7 557.84,55.08 
		560.81,53.43 566.92,54.92 577.41,50.54 581.21,47.57 595.66,47.73 599.7,48.72 604.82,51.45 610.03,52.94 622.41,50.95 
		627.45,56.07 633.56,66.97 638.59,76.14 644.95,90.17 652.88,104.29 657.75,112.63 664.36,124.61 667.41,129.72 677.73,147.72 
		681.36,152.93 692.35,170.18 704.81,182.24 709.93,189.26 	"/>
</g>
</svg>
