<!-- Generator: Adobe Illustrator 25.0.0, SVG Export Plug-In  -->
<svg version="1.1" xmlns="http://www.w3.org/2000/svg" xmlns:xlink="http://www.w3.org/1999/xlink" x="0px" y="0px"
	 width="710.61px" height="228.66px" viewBox="0 0 710.61 228.66"
	 style="overflow:visible;enable-background:new 0 0 710.61 228.66;" xml:space="preserve">
<style type="text/css">
	.st0{fill:none;stroke:#4E4E4E;stroke-width:0.9921;stroke-miterlimit:10;}
	.st1{fill:none;stroke:#3DB54A;stroke-width:0.9921;stroke-miterlimit:10;}
	.st2{fill:none;stroke:#F79421;stroke-width:0.9921;stroke-miterlimit:10;}
	.st3{fill:none;stroke:#EC2227;stroke-width:0.9921;stroke-miterlimit:10;}
	.st4{fill:none;stroke:#67308F;stroke-width:0.9921;stroke-miterlimit:10;}
	.st5{fill:none;stroke:#000000;stroke-miterlimit:10;}
</style>
<defs>
</defs>
<g id="Normal_1_">
	<g id="Coordinates_2_">
		<path id="_x30_0_2_" class="st0" d="M0.08,228.66"/>
		<path id="_x30_1_2_" class="st1" d="M0,0"/>
		<path id="_x31_0_2_" class="st0" d="M710.61,228.66"/>
		<path id="IM_4_" class="st2" d="M511.66,218.83"/>
		<path id="MM_4_" class="st3" d="M284.29,218.83"/>
		<path id="OM_4_" class="st4" d="M85.34,218.83"/>
	</g>
	<g id="Marker_2_">
		<line id="IM_1_" class="st2" x1="511.66" y1="13.03" x2="511.66" y2="222.68"/>
		<line id="MM_1_" class="st3" x1="284.29" y1="13.03" x2="284.29" y2="222.68"/>
		<line id="OM_1_" class="st4" x1="85.34" y1="13.03" x2="85.34" y2="222.68"/>
	</g>
	<polyline class="st5" points="1.55,163.72 15.2,162.07 29.4,158.21 34.69,154.14 39.53,147.86 43.05,142.47 46.14,132.12 
		49.22,125.29 54.61,118.69 57.37,119.02 62.76,119.79 64.74,121 67.38,124.63 68.6,127.06 71.13,129.48 76.74,135.97 81.37,140.27 
		85.33,142.8 99.97,149.29 114.28,151.94 128.04,151.61 142.25,151.94 156.67,152.16 170.76,152.27 184.85,152.49 198.94,152.05 
		213.26,151.83 227.02,148.52 241.55,141.92 249.26,136.96 255.42,130.91 269.62,117.26 276.45,109.66 283.6,108.67 288.34,107.9 
		297.59,114.51 302.21,117.81 312.01,127.28 316.08,129.92 319.27,132.56 325.88,135.31 340.63,140.16 354.61,143.02 368.37,144.67 
		382.14,145.44 396.78,146.98 411.2,148.08 425.29,149.18 439.49,150.18 453.7,153.15 468.23,156.67 482.21,157.55 496.3,156.56 
		510.94,153.15 517.77,150.29 524.59,140.93 534.72,125.29 538.91,116.27 546.83,102.18 553,89.4 557.07,81.48 566.65,84.89 
		573.03,87.75 581.18,94.69 588.56,101.52 595.27,111.42 602.65,124.19 607.71,136.41 609.92,142.69 617.07,158.98 624.78,176.71 
		630.72,187.39 638.76,194.98 650.87,203.79 660.01,208.3 667.38,210.18 681.47,211.28 695.68,211.83 709.66,210.4 	"/>
</g>
</svg>
