<!-- Generator: Adobe Illustrator 25.0.0, SVG Export Plug-In  -->
<svg version="1.1" xmlns="http://www.w3.org/2000/svg" xmlns:xlink="http://www.w3.org/1999/xlink" x="0px" y="0px" width="737.5px"
	 height="202.47px" viewBox="0 0 737.5 202.47" style="overflow:visible;enable-background:new 0 0 737.5 202.47;"
	 xml:space="preserve">
<style type="text/css">
	.st0{fill:none;stroke:#4E4E4E;stroke-width:0.9921;stroke-miterlimit:10;}
	.st1{fill:none;stroke:#662D91;stroke-width:0.9921;stroke-miterlimit:10;}
	.st2{fill:none;stroke:#EC008C;stroke-width:0.9921;stroke-miterlimit:10;}
	.st3{fill:none;stroke:#ED1C24;stroke-width:0.9921;stroke-miterlimit:10;}
	.st4{fill:none;stroke:#F7941D;stroke-width:0.9921;stroke-miterlimit:10;}
	.st5{fill:none;stroke:#000000;stroke-miterlimit:10;}
</style>
<defs>
</defs>
<g id="Normal_1_">
	<g id="Coordinates_2_">
		<path class="st0" d="M737.5,202.47"/>
		<path class="st1" d="M0,202.47"/>
		<path id="M2_2_" class="st2" d="M653.69,192.64"/>
		<path id="M1_2_" class="st3" d="M511.58,192.64"/>
		<path id="IM_4_" class="st4" d="M454.74,192.64"/>
		<path id="OM_2_" class="st3" d="M255.79,192.64"/>
	</g>
	<g id="Marker_2_">
		<line id="CM2_2_" class="st2" x1="653.69" y1="0" x2="653.69" y2="192.64"/>
		<line id="CM1_2_" class="st3" x1="511.58" y1="0" x2="511.58" y2="192.64"/>
		<line id="IM_1_" class="st4" x1="454.74" y1="0" x2="454.74" y2="192.64"/>
		<line id="MM_2_" class="st3" x1="255.79" y1="0" x2="255.79" y2="192.64"/>
	</g>
	<polyline class="st5" points="1.03,182.2 15.01,179.01 29.38,177.36 43.25,175.32 57.56,173.56 71.71,171.03 85.91,169.32 
		99.95,168.11 114.15,166.79 128.29,165.14 142.61,164.75 156.59,163.76 170.68,161.94 184.99,160.29 198.97,158.64 213.06,157.21 
		227.21,156 241.52,155.39 255.78,155.56 269.71,155.28 284.02,155.5 298.11,155.28 312.31,153.91 326.35,152.2 340.55,150.88 
		348.31,149.94 354.7,148.62 368.73,144.83 382.94,139.27 392.95,134.37 397.03,132.22 411.23,124.29 415.14,121.93 425.16,116.64 
		431.65,114.22 439.47,112.9 447.34,111.91 453.67,111.41 460.55,111.14 467.87,111.25 482.02,112.35 491.65,113.23 496.33,113.5 
		503.27,113.83 510.64,113.56 524.84,112.24 538.83,109.98 553.19,107.89 567.61,105.41 581.93,102.83 596.13,100.35 610.22,97.98 
		624.2,94.62 638.62,91.16 647.54,89.45 652.38,89.23 659.1,89.72 667.03,91.82 674.68,95.67 681.56,99.96 688.99,104.64 
		695.6,108.5 710.13,117.96 722.9,126.94 735.78,134.26 	"/>
</g>
</svg>
