<!-- Generator: Adobe Illustrator 25.0.0, SVG Export Plug-In  -->
<svg version="1.1" xmlns="http://www.w3.org/2000/svg" xmlns:xlink="http://www.w3.org/1999/xlink" x="0px" y="0px"
	 width="710.76px" height="228.94px" viewBox="0 0 710.76 228.94"
	 style="overflow:visible;enable-background:new 0 0 710.76 228.94;" xml:space="preserve">
<style type="text/css">
	.st0{fill:none;stroke:#4E4E4E;stroke-width:0.9921;stroke-miterlimit:10;}
	.st1{fill:none;stroke:#3DB54A;stroke-width:0.9921;stroke-miterlimit:10;}
	.st2{fill:none;stroke:#F79421;stroke-width:0.9921;stroke-miterlimit:10;}
	.st3{fill:none;stroke:#EC2227;stroke-width:0.9921;stroke-miterlimit:10;}
	.st4{fill:none;stroke:#67308F;stroke-width:0.9921;stroke-miterlimit:10;}
	.st5{fill:none;stroke:#000000;stroke-miterlimit:10;}
</style>
<defs>
</defs>
<g id="Normal_1_">
	<g id="Coordinates_2_">
		<path id="_x30_0_2_" class="st0" d="M0.23,228.66"/>
		<path id="_x30_1_2_" class="st1" d="M0.15,0"/>
		<path id="_x31_0_2_" class="st0" d="M710.76,228.66"/>
		<path id="IM_4_" class="st2" d="M511.81,223.83"/>
		<path id="MM_4_" class="st3" d="M284.44,223.83"/>
		<path id="OM_4_" class="st4" d="M85.49,223.83"/>
	</g>
	<g id="Marker_2_">
		<line id="IM_1_" class="st2" x1="511.81" y1="16.12" x2="511.81" y2="205.79"/>
		<line id="MM_1_" class="st3" x1="284.44" y1="16.12" x2="284.44" y2="205.79"/>
		<line id="OM_1_" class="st4" x1="85.49" y1="16.12" x2="85.49" y2="205.79"/>
	</g>
	<polyline class="st5" points="0.03,203.79 14.03,202.84 28.31,202.26 42.47,202.8 56.72,203.83 70.67,203.83 80.37,204.24 
		85.49,205.57 98.95,205.69 113.65,207.09 127.48,208.21 141.85,210.07 156.21,212.25 170.21,212.71 184.45,213.82 198.03,214.81 
		213.14,216.09 227.22,217.08 241.42,218.45 255.63,219.77 269.91,221.46 283.86,223.36 298.44,224.89 312.39,226.41 326.51,227.49 
		340.96,228.19 355.08,228.19 369.36,228.19 383.52,228.19 397.77,228.19 412.05,228.19 426.21,228.19 440.54,228.19 454.78,228.19 
		469.23,228.19 483.35,228.19 497.47,227.36 511.63,228.23 520.75,228.44 526.12,226.25 540.07,216.3 554.4,203.87 568.73,194.05 
		576.28,190.37 583.05,185.87 590.44,182.82 597.38,182.08 611.45,180.01 626.15,178.28 	"/>
</g>
</svg>
