<!-- Generator: Adobe Illustrator 25.0.0, SVG Export Plug-In  -->
<svg version="1.1" xmlns="http://www.w3.org/2000/svg" xmlns:xlink="http://www.w3.org/1999/xlink" x="0px" y="0px"
	 width="710.61px" height="228.66px" viewBox="0 0 710.61 228.66"
	 style="overflow:visible;enable-background:new 0 0 710.61 228.66;" xml:space="preserve">
<style type="text/css">
	.st0{fill:none;stroke:#4E4E4E;stroke-width:0.9921;stroke-miterlimit:10;}
	.st1{fill:none;stroke:#3DB54A;stroke-width:0.9921;stroke-miterlimit:10;}
	.st2{fill:none;stroke:#F79421;stroke-width:0.9921;stroke-miterlimit:10;}
	.st3{fill:none;stroke:#EC2227;stroke-width:0.9921;stroke-miterlimit:10;}
	.st4{fill:none;stroke:#67308F;stroke-width:0.9921;stroke-miterlimit:10;}
	.st5{fill:none;stroke:#000000;stroke-miterlimit:10;}
</style>
<defs>
</defs>
<g id="Normal_1_">
	<g id="Coordinates_2_">
		<path id="_x31_0_2_" class="st0" d="M710.61,228.66"/>
		<path id="_x30_1_2_" class="st1" d="M0,0"/>
		<path id="_x30_0_2_" class="st0" d="M0.08,228.66"/>
		<path id="IM_4_" class="st2" d="M511.66,217.83"/>
		<path id="MM_4_" class="st3" d="M284.29,217.83"/>
		<path id="OM_4_" class="st4" d="M85.34,217.83"/>
	</g>
	<g id="Marker_2_">
		<line id="IM_1_" class="st2" x1="511.66" y1="16.12" x2="511.66" y2="209.28"/>
		<line id="MM_1_" class="st3" x1="284.29" y1="16.12" x2="284.29" y2="209.28"/>
		<line id="OM_1_" class="st4" x1="85.34" y1="16.12" x2="85.34" y2="209.28"/>
	</g>
	<polyline class="st5" points="0.45,219.15 14.43,218.27 28.74,218.05 42.83,219.04 57.59,219.7 71.46,219.92 85.66,219.92 
		90.17,219.92 99.86,218.1 114.01,216.28 128.1,214.63 142.14,212.65 156.17,211.22 170.48,209.68 184.41,207.75 198.61,205.61 
		213.04,202.96 227.07,200.38 241.27,199 248.98,198.72 255.31,197.29 262.47,194.16 269.4,190.19 275.18,187.33 283.38,185.18 
		287.62,184.03 292.69,179.9 297.86,177.31 304.3,171.64 311.84,165.59 319.33,160.14 325.88,155.07 334.8,148.63 340.03,145.28 
		350.43,137.13 354.5,134.43 364.52,125.57 368.48,122.1 376.91,114.12 382.58,108.94 389.07,103.11 393.81,99.86 396.56,99.42 
		400.03,100.52 403.16,102.28 410.81,105.81 425.29,110.87 439.6,116.16 453.7,121.55 468.12,128.16 482.37,132.61 496.58,136.85 
		502.8,138.39 508.85,138.34 517.55,136.47 525.09,134.38 539.07,128.43 544.85,125.84 553.44,122.32 564.12,117.86 567.64,116.87 
		582.23,114.5 592.52,111.97 600.39,110.71 610.3,111.2 619.88,113.51 624.89,115.5 631.27,120.67 	"/>
</g>
</svg>
