<!-- Generator: Adobe Illustrator 25.0.0, SVG Export Plug-In  -->
<svg version="1.1" xmlns="http://www.w3.org/2000/svg" xmlns:xlink="http://www.w3.org/1999/xlink" x="0px" y="0px"
	 width="710.61px" height="228.66px" viewBox="0 0 710.61 228.66"
	 style="overflow:visible;enable-background:new 0 0 710.61 228.66;" xml:space="preserve">
<style type="text/css">
	.st0{fill:none;stroke:#4E4E4E;stroke-width:0.9921;stroke-miterlimit:10;}
	.st1{fill:none;stroke:#3DB54A;stroke-width:0.9921;stroke-miterlimit:10;}
	.st2{fill:none;stroke:#F79421;stroke-width:0.9921;stroke-miterlimit:10;}
	.st3{fill:none;stroke:#EC2227;stroke-width:0.9921;stroke-miterlimit:10;}
	.st4{fill:none;stroke:#67308F;stroke-width:0.9921;stroke-miterlimit:10;}
	.st5{fill:none;stroke:#000000;stroke-miterlimit:10;}
</style>
<defs>
</defs>
<g id="Normal_1_">
	<g id="Coordinates_2_">
		<path id="_x30_0_2_" class="st0" d="M0.08,228.66"/>
		<path id="_x30_1_2_" class="st1" d="M0,0"/>
		<path id="_x31_0_2_" class="st0" d="M710.61,228.66"/>
		<path id="IM_4_" class="st2" d="M511.66,218.83"/>
		<path id="MM_4_" class="st3" d="M284.29,218.83"/>
		<path id="OM_4_" class="st4" d="M85.34,218.83"/>
	</g>
	<g id="Marker_2_">
		<line id="IM_1_" class="st2" x1="511.66" y1="13.03" x2="511.66" y2="222.68"/>
		<line id="MM_1_" class="st3" x1="284.29" y1="13.03" x2="284.29" y2="222.68"/>
		<line id="OM_1_" class="st4" x1="85.34" y1="13.03" x2="85.34" y2="222.68"/>
	</g>
	<polyline class="st5" points="2.07,204.74 7.36,198.46 12.39,193.26 15.12,191.03 26.14,182.07 29.11,179.85 35.31,175.84 
		43.23,172.5 48.72,170.51 57.31,168.08 71.39,164.86 85.34,163.08 99.96,163.37 114.12,164.24 128.24,165.52 142.52,166.18 
		156.68,166.14 170.72,166.14 185.04,165.6 199,165.56 213.49,163.41 219.89,161.89 224.43,159.24 227.53,157.1 232.36,153.59 
		237.6,148.06 241.69,143.72 248.42,136.7 255.48,131.25 261.05,124.9 268.15,116.85 269.93,115.52 276.32,112.3 279.3,112.3 
		284,113.13 298.33,116.06 312.28,120.77 326.48,125.6 340.93,129.4 355.14,132.9 369.3,137.32 383.37,140.34 397.62,143.39 
		411.53,145.87 425.81,146.69 440.06,148.1 454.47,149.87 459.92,149.83 468.59,151.44 475.4,152.14 482.75,154.25 497.03,157.01 
		510.98,160.85 525.35,165.56 539.72,170.6 554.09,175.59 568.53,179.1 582.86,182.65 596.86,184.92 611.18,185.46 624.85,184.55 
		631.45,184.3 	"/>
</g>
</svg>
