<!-- Generator: Adobe Illustrator 25.0.0, SVG Export Plug-In  -->
<svg version="1.1" xmlns="http://www.w3.org/2000/svg" xmlns:xlink="http://www.w3.org/1999/xlink" x="0px" y="0px"
	 width="710.69px" height="228.66px" viewBox="0 0 710.69 228.66"
	 style="overflow:visible;enable-background:new 0 0 710.69 228.66;" xml:space="preserve">
<style type="text/css">
	.st0{fill:none;stroke:#4E4E4E;stroke-width:0.9921;stroke-miterlimit:10;}
	.st1{fill:none;stroke:#3DB54A;stroke-width:0.9921;stroke-miterlimit:10;}
	.st2{fill:none;stroke:#F79421;stroke-width:0.9921;stroke-miterlimit:10;}
	.st3{fill:none;stroke:#EC2227;stroke-width:0.9921;stroke-miterlimit:10;}
	.st4{fill:none;stroke:#67308F;stroke-width:0.9921;stroke-miterlimit:10;}
	.st5{fill:none;stroke:#000000;stroke-miterlimit:10;}
</style>
<defs>
</defs>
<g id="Normal_1_">
	<g id="Coordinates_2_">
		<path id="_x30_0_2_" class="st0" d="M0.16,228.66"/>
		<path id="_x30_1_2_" class="st1" d="M0.16,0"/>
		<path id="_x31_0_2_" class="st0" d="M710.69,228.66"/>
		<path id="IM_4_" class="st2" d="M511.74,218.83"/>
		<path id="MM_4_" class="st3" d="M284.37,218.83"/>
		<path id="OM_4_" class="st4" d="M85.42,218.83"/>
	</g>
	<g id="Marker_2_">
		<line id="IM_1_" class="st2" x1="511.74" y1="4.6" x2="511.74" y2="224.35"/>
		<line id="MM_1_" class="st3" x1="284.37" y1="4.6" x2="284.37" y2="224.35"/>
		<line id="OM_1_" class="st4" x1="85.42" y1="4.6" x2="85.42" y2="224.35"/>
	</g>
	<polyline class="st5" points="0.09,226.33 13.96,223.94 28.08,221.54 42.36,220.14 56.64,219.64 70.68,219.31 84.72,217.99 
		93.31,217.5 99.08,217.74 113.62,218.9 127.57,220.55 141.61,221.3 156.06,222.29 170.26,221.63 184.38,219.73 198.41,217.58 
		212.86,215.85 218.07,214.44 222.36,213.2 226.9,211.3 229.71,209.74 234.25,205.69 240.94,199.58 246.47,194.05 250.35,190.58 
		255.14,187.52 257.29,185.38 263.4,182.74 269.51,181.08 275.62,179.68 283.46,181.5 290.64,183.4 297.83,186.12 305.34,189.26 
		312.11,191.49 319.79,193.88 326.15,195.78 334.24,197.52 340.35,198.92 348.61,199.91 354.8,200.41 369.25,201.4 383.2,202.55 
		397.24,202.88 404.51,203.21 411.44,202.88 425.56,202.22 431.01,200.98 439.93,200.57 454.46,201.64 461.4,202.14 468.41,203.13 
		474.94,203.87 482.53,204.86 489.63,204.86 496.9,204.95 504.74,204.45 511.43,204.45 525.72,204.45 539.84,204.53 546.61,204.95 
		554.04,203.87 560.73,203.21 568.49,200.98 575.84,197.76 582.52,194.71 587.31,191.41 591.11,188.1 597.3,182.98 601.1,179.19 
		604.82,176.13 609.69,171.34 612.66,171.09 626.95,171.51 	"/>
</g>
</svg>
