<!-- Generator: Adobe Illustrator 25.0.0, SVG Export Plug-In  -->
<svg version="1.1" xmlns="http://www.w3.org/2000/svg" xmlns:xlink="http://www.w3.org/1999/xlink" x="0px" y="0px"
	 width="710.87px" height="229.61px" viewBox="0 0 710.87 229.61"
	 style="overflow:visible;enable-background:new 0 0 710.87 229.61;" xml:space="preserve">
<style type="text/css">
	.st0{fill:none;stroke:#4E4E4E;stroke-width:0.9921;stroke-miterlimit:10;}
	.st1{fill:none;stroke:#3DB54A;stroke-width:0.9921;stroke-miterlimit:10;}
	.st2{fill:none;stroke:#F79421;stroke-width:0.9921;stroke-miterlimit:10;}
	.st3{fill:none;stroke:#EC2227;stroke-width:0.9921;stroke-miterlimit:10;}
	.st4{fill:none;stroke:#67308F;stroke-width:0.9921;stroke-miterlimit:10;}
	.st5{fill:none;stroke:#000000;stroke-miterlimit:10;}
</style>
<defs>
</defs>
<g id="Normal_1_">
	<g id="Coordinates_2_">
		<path id="_x30_0_2_" class="st0" d="M0.08,228.66"/>
		<path id="_x30_1_2_" class="st1" d="M0,0"/>
		<path id="_x31_0_2_" class="st0" d="M710.61,228.66"/>
		<path id="IM_4_" class="st2" d="M511.66,218.83"/>
		<path id="MM_4_" class="st3" d="M284.29,218.83"/>
		<path id="OM_4_" class="st4" d="M85.34,218.83"/>
	</g>
	<g id="Marker_2_">
		<line id="IM_1_" class="st2" x1="511.66" y1="13.03" x2="511.66" y2="222.68"/>
		<line id="MM_1_" class="st3" x1="284.29" y1="13.03" x2="284.29" y2="222.68"/>
		<line id="OM_1_" class="st4" x1="85.34" y1="13.03" x2="85.34" y2="222.68"/>
	</g>
	<polyline class="st5" points="6.78,123.31 14.04,121.66 19.99,120.01 27.92,119.74 42.34,119.85 56.49,119.9 70.52,121 
		84.83,122.1 99.09,123.04 112.96,123.53 127.05,124.47 141.37,124.85 155.51,124.19 169.55,124.52 183.97,123.37 198.12,120.4 
		212.54,116.87 226.41,111.48 240.56,106.52 254.54,101.79 268.96,96.84 283.38,91.94 287.4,90.23 291.53,89.9 297.04,90.4 
		311.51,91.83 317.79,92.65 325.55,94.47 339.86,98.32 353.9,101.96 368.1,106.74 382.41,111.2 388.69,114.45 396.45,119.02 
		410.59,127.61 424.96,134.71 438.83,140.82 453.25,147.64 467.51,155.07 477.09,160.8 481.66,163.88 489.7,168.56 496.36,172.03 
		510.39,180.73 515.95,183.81 524.54,189.7 532.74,194.76 539.35,198.18 553.16,204.73 558.5,207.09 567.86,212.27 575.46,215.96 
		582.12,218.38 596.32,221.73 610.47,224.54 624.56,226.69 639.09,227.79 653.24,229.11 667.77,229.11 681.58,229.11 695.84,229.11 
		710.87,229.11 	"/>
</g>
</svg>
