<!-- Generator: Adobe Illustrator 25.0.0, SVG Export Plug-In  -->
<svg version="1.1" xmlns="http://www.w3.org/2000/svg" xmlns:xlink="http://www.w3.org/1999/xlink" x="0px" y="0px"
	 width="711.78px" height="229.58px" viewBox="0 0 711.78 229.58"
	 style="overflow:visible;enable-background:new 0 0 711.78 229.58;" xml:space="preserve">
<style type="text/css">
	.st0{fill:none;stroke:#4E4E4E;stroke-width:0.9921;stroke-miterlimit:10;}
	.st1{fill:none;stroke:#3DB54A;stroke-width:0.9921;stroke-miterlimit:10;}
	.st2{fill:none;stroke:#F79421;stroke-width:0.9921;stroke-miterlimit:10;}
	.st3{fill:none;stroke:#EC2227;stroke-width:0.9921;stroke-miterlimit:10;}
	.st4{fill:none;stroke:#67308F;stroke-width:0.9921;stroke-miterlimit:10;}
	.st5{fill:none;stroke:#000000;stroke-miterlimit:10;}
</style>
<defs>
</defs>
<g id="Normal_1_">
	<g id="Coordinates_2_">
		<path id="_x30_0_2_" class="st0" d="M0,228.66"/>
		<path id="_x30_1_2_" class="st1" d="M0,0"/>
		<path id="_x31_0_2_" class="st0" d="M710.53,228.66"/>
		<path id="IM_4_" class="st2" d="M511.58,218.83"/>
		<path id="MM_4_" class="st3" d="M284.21,218.83"/>
		<path id="OM_4_" class="st4" d="M85.26,218.83"/>
	</g>
	<g id="Marker_2_">
		<line id="IM_1_" class="st2" x1="511.58" y1="4.6" x2="511.58" y2="224.35"/>
		<line id="MM_1_" class="st3" x1="284.21" y1="4.6" x2="284.21" y2="224.35"/>
		<line id="OM_1_" class="st4" x1="85.26" y1="4.6" x2="85.26" y2="224.35"/>
	</g>
	<polyline class="st5" points="0.37,216.53 14.57,216.53 28.33,216.53 42.53,216.53 57.17,216.53 70.94,216.53 85.47,214.11 
		92.51,212.35 99.45,209.82 113.6,206.79 117.56,205.58 127.3,196.5 141.73,189.78 155.93,182.24 170.13,173.98 184.39,163.97 
		198.42,154.77 207.62,148.44 212.62,145.03 224.29,137.43 239.49,125.76 241.08,124.66 255.12,113.82 264.64,108.2 269.27,104.96 
		275.16,102.15 284.29,99.4 291.84,97.75 297.72,97.8 311.98,99.67 326.29,102.42 340.61,106.61 354.48,112.33 368.68,118.88 
		382.83,125.6 397.25,133.52 411.45,141.12 425.76,147.89 439.85,155.65 454.22,163.41 468.7,171.23 482.79,180.97 497.05,190 
		504.04,195.12 511.58,198.7 525.78,206.79 539.98,214.22 548.18,217.58 554.51,218.96 568.55,222.09 583.19,224.68 597.01,227.43 
		611.65,229.08 711.78,229.08 	"/>
</g>
</svg>
