<!-- Generator: Adobe Illustrator 25.0.0, SVG Export Plug-In  -->
<svg version="1.1" xmlns="http://www.w3.org/2000/svg" xmlns:xlink="http://www.w3.org/1999/xlink" x="0px" y="0px"
	 width="710.61px" height="228.66px" viewBox="0 0 710.61 228.66"
	 style="overflow:visible;enable-background:new 0 0 710.61 228.66;" xml:space="preserve">
<style type="text/css">
	.st0{fill:none;stroke:#4E4E4E;stroke-width:0.9921;stroke-miterlimit:10;}
	.st1{fill:none;stroke:#3DB54A;stroke-width:0.9921;stroke-miterlimit:10;}
	.st2{fill:none;stroke:#F79421;stroke-width:0.9921;stroke-miterlimit:10;}
	.st3{fill:none;stroke:#EC2227;stroke-width:0.9921;stroke-miterlimit:10;}
	.st4{fill:none;stroke:#67308F;stroke-width:0.9921;stroke-miterlimit:10;}
	.st5{fill:none;stroke:#000000;stroke-miterlimit:10;}
</style>
<defs>
</defs>
<g id="Normal_1_">
	<g id="Coordinates_2_">
		<path id="_x30_0_2_" class="st0" d="M0.08,228.66"/>
		<path id="_x30_1_2_" class="st1" d="M0,0"/>
		<path id="_x31_0_2_" class="st0" d="M710.61,228.66"/>
		<path id="IM_4_" class="st2" d="M511.66,223.83"/>
		<path id="MM_4_" class="st3" d="M284.29,223.83"/>
		<path id="OM_4_" class="st4" d="M85.34,223.83"/>
	</g>
	<g id="Marker_2_">
		<line id="IM_1_" class="st2" x1="511.66" y1="16.12" x2="511.66" y2="205.79"/>
		<line id="MM_1_" class="st3" x1="284.29" y1="16.12" x2="284.29" y2="205.79"/>
		<line id="OM_1_" class="st4" x1="85.34" y1="16.12" x2="85.34" y2="205.79"/>
	</g>
	<polyline class="st5" points="12.56,149.49 13.77,149.65 28.08,149.16 42.39,148.77 56.38,148.83 70.36,148.72 84.83,148.83 
		98.93,148.83 113.18,148.72 127.27,148.66 141.31,148.66 155.79,148.77 169.82,148.61 184.03,148.83 198.28,148.88 212.37,148.99 
		226.47,149.16 240.78,149.6 254.76,150.09 269.07,151.25 283.44,152.08 297.59,152.9 311.84,153.67 325.93,154.39 340.58,155.49 
		354.45,156.59 368.87,157.91 382.8,159.29 397.16,161.05 411.2,162.37 425.46,163.52 440.15,164.79 454.14,166 468.34,167.43 
		482.54,169.19 496.74,171.56 511.16,173.76 525.31,176.57 539.62,179.32 553.82,181.41 568.03,184.66 582.56,188.52 597.03,192.04 
		611.07,196.39 625.05,201.01 639.86,206.3 649.05,209.05 	"/>
</g>
</svg>
