<!-- Generator: Adobe Illustrator 25.0.0, SVG Export Plug-In  -->
<svg version="1.1" xmlns="http://www.w3.org/2000/svg" xmlns:xlink="http://www.w3.org/1999/xlink" x="0px" y="0px"
	 width="711.43px" height="228.66px" viewBox="0 0 711.43 228.66"
	 style="overflow:visible;enable-background:new 0 0 711.43 228.66;" xml:space="preserve">
<style type="text/css">
	.st0{fill:none;stroke:#4E4E4E;stroke-width:0.9921;stroke-miterlimit:10;}
	.st1{fill:none;stroke:#3DB54A;stroke-width:0.9921;stroke-miterlimit:10;}
	.st2{fill:none;stroke:#F79421;stroke-width:0.9921;stroke-miterlimit:10;}
	.st3{fill:none;stroke:#EC2227;stroke-width:0.9921;stroke-miterlimit:10;}
	.st4{fill:none;stroke:#67308F;stroke-width:0.9921;stroke-miterlimit:10;}
	.st5{fill:none;stroke:#000000;stroke-miterlimit:10;}
</style>
<defs>
</defs>
<g id="Normal_1_">
	<g id="Coordinates_2_">
		<path id="_x31_0_2_" class="st0" d="M710.61,228.66"/>
		<path id="_x30_1_2_" class="st1" d="M0,0"/>
		<path id="_x30_0_2_" class="st0" d="M0.08,228.66"/>
		<path id="IM_4_" class="st2" d="M511.66,217.83"/>
		<path id="MM_4_" class="st3" d="M284.29,217.83"/>
		<path id="OM_4_" class="st4" d="M85.34,217.83"/>
	</g>
	<g id="Marker_2_">
		<line id="IM_1_" class="st2" x1="511.66" y1="16.12" x2="511.66" y2="209.28"/>
		<line id="MM_1_" class="st3" x1="284.29" y1="16.12" x2="284.29" y2="209.28"/>
		<line id="OM_1_" class="st4" x1="85.34" y1="16.12" x2="85.34" y2="209.28"/>
	</g>
	<polyline class="st5" points="19.05,207.26 28.93,207.09 42.94,206.4 57.06,206.18 71.18,206.84 85.47,206.84 99.83,207.42 
		113.87,207.67 128.07,207.42 142.27,207.59 156.64,207.59 170.68,207.17 184.8,206.27 199,205.03 213.2,204.45 218.07,203.71 
		227.24,201.06 241.6,195.2 255.48,185.95 260.59,182.4 269.93,173.98 272.81,171.09 283.47,158.95 291.15,147.89 297.75,137.07 
		303.94,124.94 308.48,113.29 311.87,98.6 314.43,90.92 317.73,79.77 321.2,68.38 324.67,58.3 325.91,54.75 330.45,45.42 
		333.17,39.81 337.88,34.19 340.11,32.13 345.72,29.16 354.31,26.93 361.91,26.18 368.51,26.43 374.79,27.67 382.71,28.83 
		397.16,29.98 411.2,31.63 416.24,32.38 423.67,31.47 425.57,31.8 439.69,35.93 453.97,43.77 468.34,54.09 482.54,64.08 
		489.56,68.13 496.41,74.49 503.68,78.28 511.77,84.89 517.71,90.83 525.06,96.86 532.58,101.98 539.59,108.09 546.53,113.46 
		553.8,119.82 560.15,125.1 567.92,131.29 574.11,136.5 582.36,143.27 587.81,148.3 596.4,154.99 602.35,159.78 611.1,167.29 
		615.72,171.09 625.05,177.86 630.01,182.65 639.83,190.25 643.71,193.72 653.95,201.06 660.31,205.11 668.24,208.33 675.09,212.38 
		679.71,214.85 682.44,217.08 689.46,220.22 696.8,221.29 711.42,220.88 	"/>
</g>
</svg>
