<!-- Generator: Adobe Illustrator 25.0.0, SVG Export Plug-In  -->
<svg version="1.1" xmlns="http://www.w3.org/2000/svg" xmlns:xlink="http://www.w3.org/1999/xlink" x="0px" y="0px" width="737.5px"
	 height="202.47px" viewBox="0 0 737.5 202.47" style="overflow:visible;enable-background:new 0 0 737.5 202.47;"
	 xml:space="preserve">
<style type="text/css">
	.st0{fill:none;stroke:#4E4E4E;stroke-width:0.9921;stroke-miterlimit:10;}
	.st1{fill:none;stroke:#662D91;stroke-width:0.9921;stroke-miterlimit:10;}
	.st2{fill:none;stroke:#EC008C;stroke-width:0.9921;stroke-miterlimit:10;}
	.st3{fill:none;stroke:#ED1C24;stroke-width:0.9921;stroke-miterlimit:10;}
	.st4{fill:none;stroke:#F7941D;stroke-width:0.9921;stroke-miterlimit:10;}
	.st5{fill:none;stroke:#000000;stroke-miterlimit:10;}
</style>
<defs>
</defs>
<g id="Normal_1_">
	<g id="Coordinates_2_">
		<path class="st0" d="M737.5,202.47"/>
		<path class="st1" d="M0,202.47"/>
		<path id="M2_2_" class="st2" d="M653.69,192.64"/>
		<path id="M1_2_" class="st3" d="M511.58,192.64"/>
		<path id="IM_4_" class="st4" d="M454.74,192.64"/>
		<path id="OM_2_" class="st3" d="M255.79,192.64"/>
	</g>
	<g id="Marker_2_">
		<line id="CM2_2_" class="st2" x1="653.69" y1="0" x2="653.69" y2="192.64"/>
		<line id="CM1_2_" class="st3" x1="511.58" y1="0" x2="511.58" y2="192.64"/>
		<line id="IM_1_" class="st4" x1="454.74" y1="0" x2="454.74" y2="192.64"/>
		<line id="MM_2_" class="st3" x1="255.79" y1="0" x2="255.79" y2="192.64"/>
	</g>
	<polyline class="st5" points="22.96,142.68 42.78,142.51 56.98,141.61 71.02,141.85 85.3,143.42 99.34,143.34 113.71,142.1 
		127.83,141.44 142.19,140.2 149.95,139.54 156.39,139.54 162.17,139.54 170.35,140.2 184.63,139.71 198.59,140.2 212.79,140.28 
		227.32,140.61 241.03,141.19 255.15,141.94 269.6,142.84 283.55,144 297.84,144.99 311.79,145.9 320.05,145.57 326.07,144.33 
		334.5,141.61 340.69,138.88 347.95,135.58 354.31,132.36 359.93,128.89 368.43,122.28 373.3,118.4 382.22,110.72 396.5,99.16 
		403.69,94.38 410.71,90.83 418.22,87.52 424.83,84.88 433.08,81.16 439.36,78.85 446.79,76.38 453.72,74.72 467.84,72.41 
		481.72,71.01 496.08,70.93 510.2,71.42 524.82,71.75 538.61,72.83 553.14,74.31 560.16,74.97 567.5,74.72 574.69,72.41 
		581.29,71.34 587.49,69.28 596.07,66.47 602.76,64.82 610.19,63.66 622.99,61.84 628.27,59.61 634.96,59.2 638.18,60.03 
		640.83,60.44 653.29,62.26 660.39,64.32 667.16,66.3 672.86,68.37 676.25,70.35 681.12,74.72 689.38,87.11 695.65,98.92 
		700.6,110.64 705.39,121.87 710.18,132.85 715.38,144.74 720.67,155.81 723.39,161.75 725.54,167.37 728.84,178.35 730.49,185.45 	
		"/>
</g>
</svg>
