<!-- Generator: Adobe Illustrator 25.0.0, SVG Export Plug-In  -->
<svg version="1.1" xmlns="http://www.w3.org/2000/svg" xmlns:xlink="http://www.w3.org/1999/xlink" x="0px" y="0px"
	 width="710.64px" height="228.66px" viewBox="0 0 710.64 228.66"
	 style="overflow:visible;enable-background:new 0 0 710.64 228.66;" xml:space="preserve">
<style type="text/css">
	.st0{fill:none;stroke:#4E4E4E;stroke-width:0.9921;stroke-miterlimit:10;}
	.st1{fill:none;stroke:#3DB54A;stroke-width:0.9921;stroke-miterlimit:10;}
	.st2{fill:none;stroke:#F79421;stroke-width:0.9921;stroke-miterlimit:10;}
	.st3{fill:none;stroke:#EC2227;stroke-width:0.9921;stroke-miterlimit:10;}
	.st4{fill:none;stroke:#67308F;stroke-width:0.9921;stroke-miterlimit:10;}
	.st5{fill:none;stroke:#000000;stroke-miterlimit:10;}
</style>
<defs>
</defs>
<g id="Normal_1_">
	<g id="Coordinates_2_">
		<path id="_x30_0_2_" class="st0" d="M0.11,228.66"/>
		<path id="_x30_1_2_" class="st1" d="M0.11,0"/>
		<path id="_x31_0_2_" class="st0" d="M710.64,228.66"/>
		<path id="IM_4_" class="st2" d="M511.69,218.83"/>
		<path id="MM_4_" class="st3" d="M284.32,218.83"/>
		<path id="OM_4_" class="st4" d="M85.37,218.83"/>
	</g>
	<g id="Marker_2_">
		<line id="IM_1_" class="st2" x1="511.69" y1="4.6" x2="511.69" y2="224.35"/>
		<line id="MM_1_" class="st3" x1="284.32" y1="4.6" x2="284.32" y2="224.35"/>
		<line id="OM_1_" class="st4" x1="85.37" y1="4.6" x2="85.37" y2="224.35"/>
	</g>
	<polyline class="st5" points="0.04,71.49 7.3,70.94 14.4,71.43 28.5,76.5 36.2,79.91 42.86,84.15 50.96,91.47 57.18,98.46 
		61.52,102.64 70.88,110.96 75.67,114.09 85.47,121.14 94.44,125.38 99.78,126.2 114.09,126.86 127.85,126.37 142.5,124.77 
		156.48,125.05 171.01,124.39 185.38,123.62 199.14,123.01 206.46,122.74 214.06,120.86 227.93,119.05 242.13,117.78 256.17,116.3 
		264.86,114.7 270.75,111.18 280.5,103.08 284.9,98.3 291.34,91.91 298.39,80.52 299.21,78.97 306.09,73.47 313.47,71.16 
		318.09,69.01 327.67,65.43 341.71,66.09 356.13,68.41 370.33,70.94 384.53,74.24 398.73,78.09 412.83,82 422.07,85.36 
		426.97,86.52 433.08,87.51 437.71,87.45 441.12,88.28 451.3,91.91 455.27,92.96 469.63,96.7 477.01,98.24 483.72,101.49 
		487.36,103.25 493.41,103.03 497.93,103.52 505.08,105.67 510.2,106.83 511.91,105.45 514.77,103.08 518.24,100.22 526.66,96.53 
		528.92,96.64 535.36,102.75 537.78,108.48 540.09,109.3 548.46,114.48 554.73,116.96 568.77,124.28 573.5,125.82 583.3,128.52 
		588.7,125.71 593.21,122.57 597.28,117.45 601.47,115.3 604.44,115.08 605.98,116.13 607.74,118.77 611.32,119.38 624.92,120.75 
		654.31,120.48 663.31,119.41 	"/>
</g>
</svg>
