<!-- Generator: Adobe Illustrator 25.0.0, SVG Export Plug-In  -->
<svg version="1.1" xmlns="http://www.w3.org/2000/svg" xmlns:xlink="http://www.w3.org/1999/xlink" x="0px" y="0px"
	 width="710.61px" height="228.66px" viewBox="0 0 710.61 228.66"
	 style="overflow:visible;enable-background:new 0 0 710.61 228.66;" xml:space="preserve">
<style type="text/css">
	.st0{fill:none;stroke:#4E4E4E;stroke-width:0.9921;stroke-miterlimit:10;}
	.st1{fill:none;stroke:#3DB54A;stroke-width:0.9921;stroke-miterlimit:10;}
	.st2{fill:none;stroke:#F79421;stroke-width:0.9921;stroke-miterlimit:10;}
	.st3{fill:none;stroke:#EC2227;stroke-width:0.9921;stroke-miterlimit:10;}
	.st4{fill:none;stroke:#67308F;stroke-width:0.9921;stroke-miterlimit:10;}
	.st5{fill:none;stroke:#000000;stroke-miterlimit:10;}
</style>
<defs>
</defs>
<g id="Normal_1_">
	<g id="Coordinates_2_">
		<path id="_x30_0_2_" class="st0" d="M0.08,228.66"/>
		<path id="_x30_1_2_" class="st1" d="M0,0"/>
		<path id="_x31_0_2_" class="st0" d="M710.61,228.66"/>
		<path id="IM_4_" class="st2" d="M511.66,218.83"/>
		<path id="MM_4_" class="st3" d="M284.29,218.83"/>
		<path id="OM_4_" class="st4" d="M85.34,218.83"/>
	</g>
	<g id="Marker_2_">
		<line id="IM_1_" class="st2" x1="511.66" y1="13.03" x2="511.66" y2="222.68"/>
		<line id="MM_1_" class="st3" x1="284.29" y1="13.03" x2="284.29" y2="222.68"/>
		<line id="OM_1_" class="st4" x1="85.34" y1="13.03" x2="85.34" y2="222.68"/>
	</g>
	<polyline class="st5" points="0.67,162.95 6.67,163.11 15.04,160.8 29.02,153.97 35.29,150.62 42.89,143.9 47.18,139.55 
		57.48,135.92 71.62,130.36 86.21,122.54 100.08,118.3 106.58,116.49 114.89,112.8 128.71,108.67 142.8,104.93 157.16,103.28 
		171.31,101.68 185.68,100.47 199.88,99.53 214.3,98.82 228.12,97.44 242.65,95.35 249.64,94.8 256.63,95.79 263.79,94.52 
		270.78,94.41 277,95.52 285.04,94.58 287.51,92.71 294.45,81.7 299.13,70.36 303.15,60.45 305.18,52.85 309.48,47.24 312.01,45.2 
		317.9,46.8 321.81,48.23 327.26,47.68 384.23,46.74 392.87,46.58 398.7,47.74 412.36,53.13 426.45,57.97 440.54,63.81 
		448.69,65.96 454.8,69.81 469.71,79 483.48,84.89 494.21,91.61 498.01,94.08 511.71,101.07 515.9,101.29 521.13,103.33 
		525.86,106.25 540.12,111.75 545.95,113.79 549.7,114.18 554.32,114.4 557.95,113.74 562.85,109.99 568.58,103.66 574.14,97.55 
		582.67,92.16 588.61,89.18 595.6,86.87 597.03,87.09 603.7,90.84 611.35,97.55 617.46,104.6 626.59,115.28 630.17,116.32 
		634.74,115.83 637.77,116.1 640.03,116.1 643.93,116.76 647.35,116.98 651.92,117.15 653.29,116.93 659.68,115.39 665.95,113.74 
		669.58,113.4 674.87,112.96 679.82,113.29 684.34,112.8 691.16,112.58 692.59,112.36 	"/>
</g>
</svg>
