<!-- Generator: Adobe Illustrator 25.0.0, SVG Export Plug-In  -->
<svg version="1.1" xmlns="http://www.w3.org/2000/svg" xmlns:xlink="http://www.w3.org/1999/xlink" x="0px" y="0px"
	 width="711.09px" height="228.66px" viewBox="0 0 711.09 228.66"
	 style="overflow:visible;enable-background:new 0 0 711.09 228.66;" xml:space="preserve">
<style type="text/css">
	.st0{fill:none;stroke:#4E4E4E;stroke-width:0.9921;stroke-miterlimit:10;}
	.st1{fill:none;stroke:#3DB54A;stroke-width:0.9921;stroke-miterlimit:10;}
	.st2{fill:none;stroke:#F79421;stroke-width:0.9921;stroke-miterlimit:10;}
	.st3{fill:none;stroke:#EC2227;stroke-width:0.9921;stroke-miterlimit:10;}
	.st4{fill:none;stroke:#67308F;stroke-width:0.9921;stroke-miterlimit:10;}
	.st5{fill:none;stroke:#000000;stroke-miterlimit:10;}
</style>
<defs>
</defs>
<g id="Normal_1_">
	<g id="Coordinates_2_">
		<path id="_x31_0_2_" class="st0" d="M710.93,228.66"/>
		<path id="_x30_1_2_" class="st1" d="M0.32,0"/>
		<path id="_x30_0_2_" class="st0" d="M0.4,228.66"/>
		<path id="IM_4_" class="st2" d="M511.98,217.83"/>
		<path id="MM_4_" class="st3" d="M284.61,217.83"/>
		<path id="OM_4_" class="st4" d="M85.67,217.83"/>
	</g>
	<g id="Marker_2_">
		<line id="IM_1_" class="st2" x1="511.98" y1="16.12" x2="511.98" y2="209.28"/>
		<line id="MM_1_" class="st3" x1="284.61" y1="16.12" x2="284.61" y2="209.28"/>
		<line id="OM_1_" class="st4" x1="85.67" y1="16.12" x2="85.67" y2="209.28"/>
	</g>
	<polyline class="st5" points="0,159.7 13.71,159.7 28.4,160.36 42.61,159.7 56.97,157.39 71.01,156.28 85.43,154.85 99.85,154.41 
		113.83,154.41 128.37,151.88 142.68,151.55 156.55,150.56 170.53,150.89 184.95,150.78 199.6,151.11 213.91,150.34 228.33,148.58 
		242.42,146.27 256.07,143.95 270.05,142.85 285.03,142.52 298.46,142.41 310.68,137.79 313.43,136.25 318.83,133.17 327.63,124.58 
		337.54,114.56 341.61,109.61 346.24,103.33 349.43,97.61 355.93,94.41 360.11,88.25 370.24,80.54 377.5,77.46 384.44,75.92 
		398.2,76.25 412.73,79.33 427.05,80.43 441.58,80.54 455.67,80.43 469.98,80.87 483.63,80.54 498.6,80.32 503.56,79.55 
		512.04,82.74 526.68,87.26 540.11,91.11 547.26,95.07 554.64,95.73 559.82,95.95 569.06,93.97 583.38,92.76 591.74,91.44 
		597.8,88.58 612,78.67 624.33,67.77 626.2,66.34 640.51,63.59 654.38,62.38 668.92,61.39 682.46,59.4 696.88,58.74 711.08,58.52 	
		"/>
</g>
</svg>
