<!-- Generator: Adobe Illustrator 25.0.0, SVG Export Plug-In  -->
<svg version="1.1" xmlns="http://www.w3.org/2000/svg" xmlns:xlink="http://www.w3.org/1999/xlink" x="0px" y="0px"
	 width="710.78px" height="228.66px" viewBox="0 0 710.78 228.66"
	 style="overflow:visible;enable-background:new 0 0 710.78 228.66;" xml:space="preserve">
<style type="text/css">
	.st0{fill:none;stroke:#4E4E4E;stroke-width:0.9921;stroke-miterlimit:10;}
	.st1{fill:none;stroke:#3DB54A;stroke-width:0.9921;stroke-miterlimit:10;}
	.st2{fill:none;stroke:#F79421;stroke-width:0.9921;stroke-miterlimit:10;}
	.st3{fill:none;stroke:#EC2227;stroke-width:0.9921;stroke-miterlimit:10;}
	.st4{fill:none;stroke:#67308F;stroke-width:0.9921;stroke-miterlimit:10;}
	.st5{fill:none;stroke:#000000;stroke-miterlimit:10;}
</style>
<defs>
</defs>
<g id="Normal_1_">
	<g id="Coordinates_2_">
		<path id="_x30_0_2_" class="st0" d="M0.26,228.66"/>
		<path id="_x30_1_2_" class="st1" d="M0.17,0"/>
		<path id="_x31_0_2_" class="st0" d="M710.78,228.66"/>
		<path id="IM_4_" class="st2" d="M511.84,223.83"/>
		<path id="MM_4_" class="st3" d="M284.47,223.83"/>
		<path id="OM_4_" class="st4" d="M85.52,223.83"/>
	</g>
	<g id="Marker_2_">
		<line id="IM_1_" class="st2" x1="511.84" y1="16.12" x2="511.84" y2="205.79"/>
		<line id="MM_1_" class="st3" x1="284.47" y1="16.12" x2="284.47" y2="205.79"/>
		<line id="OM_1_" class="st4" x1="85.52" y1="16.12" x2="85.52" y2="205.79"/>
	</g>
	<polyline class="st5" points="0.02,159.95 14.05,160.44 28.59,160.28 41.8,160.94 56.49,159.45 70.7,156.81 85.56,152.19 
		96.79,148.55 100.09,147.23 114.13,143.76 128.16,142.11 142.2,141.12 157.23,138.97 171.76,136.66 185.3,136.17 199.17,136.66 
		213.71,137.65 228.07,138.64 242.11,141.29 256.81,143.76 270.84,146.9 284.05,150.86 298.75,153.01 313.28,155.16 327.48,156.48 
		334.26,156.81 341.85,158.96 356.05,163.08 370.26,166.39 383.8,167.21 398.33,167.05 412.37,167.71 425.91,168.2 441.26,169.52 
		454.97,170.35 469.09,171.75 483.17,173.2 497.58,174.97 511.41,177.82 525.81,180.3 539.85,182.24 554.09,182.74 568.3,184.47 
		582.87,185.25 596.87,187.15 610.9,188.23 625.27,188.93 639.43,189.26 653.34,190.08 667.5,189.92 681.83,189.09 696.07,188.1 
		710.6,186.41 	"/>
</g>
</svg>
