<svg version="1.1" xmlns="http://www.w3.org/2000/svg" xmlns:xlink="http://www.w3.org/1999/xlink" x="0px" y="0px"
	 width="710.61px" height="228.66px" viewBox="0 0 710.61 228.66"
	 style="overflow:visible;enable-background:new 0 0 710.61 228.66;" xml:space="preserve">
<style type="text/css">
	.st0{fill:none;stroke:#000000;stroke-miterlimit:10;}
	.st1{fill:none;stroke:#4E4E4E;stroke-width:0.9921;stroke-miterlimit:10;}
	.st2{fill:none;stroke:#3DB54A;stroke-width:0.9921;stroke-miterlimit:10;}
	.st3{fill:none;stroke:#F79421;stroke-width:0.9921;stroke-miterlimit:10;}
	.st4{fill:none;stroke:#EC2227;stroke-width:0.9921;stroke-miterlimit:10;}
	.st5{fill:none;stroke:#67308F;stroke-width:0.9921;stroke-miterlimit:10;}
</style>
<defs>
</defs>
<g id="Normal_1_">
	<polyline class="st0" points="0.5,68.79 14.95,69.7 29.49,68.38 43.27,67.47 57.72,61.03 71.84,49.3 86.21,44.43 100.49,41.87 
		114.86,42.12 128.57,45.26 143.02,49.8 157.3,57.73 171.42,65.57 185.95,68.63 200.15,69.04 214.36,67.3 228.48,61.61 242.51,55.5 
		256.71,47.98 271.16,43.61 285.53,43.85 299.73,43.61 313.6,43.52 327.64,45.92 342.26,47.65 356.46,46.74 370.33,45.01 
		384.53,41.54 398.98,38.74 412.85,35.43 426.97,33.86 441.17,35.85 455.21,42.04 469.66,53.85 483.86,66.64 497.9,80.02 
		511.77,91.41 526.47,91.83 540.25,88.61 554.7,82.25 568.66,74.82 579.64,70.19 583.11,70.69 597.14,75.89 605.48,79.36 
		611.35,76.88 618.12,69.78 628.11,46 	"/>
	<g id="Coordinates_2_">
		<path id="_x31_0_2_" class="st1" d="M0.08,228.66"/>
		<path id="_x30_1_2_" class="st2" d="M0,0"/>
		<path id="_x30_0_2_" class="st1" d="M710.61,228.66"/>
	</g>
	<g>
		<line id="MM_1_" class="st3" x1="511.66" y1="7.15" x2="511.66" y2="213.24"/>
		<line id="IM_1_" class="st4" x1="284.29" y1="7.15" x2="284.29" y2="213.24"/>
		<line id="OM_1_" class="st5" x1="85.34" y1="7.15" x2="85.34" y2="213.24"/>
	</g>
</g>
</svg>
