<!-- Generator: Adobe Illustrator 25.0.0, SVG Export Plug-In  -->
<svg version="1.1" xmlns="http://www.w3.org/2000/svg" xmlns:xlink="http://www.w3.org/1999/xlink" x="0px" y="0px"
	 width="738.13px" height="228.66px" viewBox="0 0 738.13 228.66"
	 style="overflow:visible;enable-background:new 0 0 738.13 228.66;" xml:space="preserve">
<style type="text/css">
	.st0{fill:none;stroke:#000000;stroke-miterlimit:10;}
	.st1{fill:none;stroke:#4E4E4E;stroke-width:0.9921;stroke-miterlimit:10;}
	.st2{fill:none;stroke:#662D91;stroke-width:0.9921;stroke-miterlimit:10;}
	.st3{fill:none;stroke:#EC008C;stroke-width:0.9921;stroke-miterlimit:10;}
	.st4{fill:none;stroke:#ED1C24;stroke-width:0.9921;stroke-miterlimit:10;}
	.st5{fill:none;stroke:#F7941D;stroke-width:0.9921;stroke-miterlimit:10;}
</style>
<defs>
</defs>
<g id="Normal_1_">
	<polyline class="st0" points="0.28,159.01 5.24,155.6 14.6,154.11 23.07,154.06 28.91,155.27 43.05,159.4 47.46,161.05 
		57.15,165.84 71.51,174.09 85.93,181.14 100.19,182.41 114.23,182.63 128.87,181.69 143.29,178.66 157.49,172.33 171.48,162.64 
		179.68,157.97 185.9,157.03 199.99,154.72 214.69,151.52 228.45,145.47 242.65,140.08 256.8,135.73 262.8,134.68 271.22,135.51 
		279.48,138.2 285.7,140.74 292.47,144.48 299.02,152.9 307.99,160.28 313.71,164.02 328.19,168.37 342.12,172.55 356.21,176.9 
		370.85,180.81 385.16,183.73 398.7,185.05 413.02,184.22 427.55,178.5 441.53,171.07 456.34,159.95 469.82,148.83 484.19,134.9 
		498.28,122.46 512.59,117.34 526.74,115.41 540.94,116.19 555.42,116.57 569.29,116.74 583.77,116.74 598.03,118.5 611.73,119.38 
		626.04,116.85 640.25,109.41 654.23,95.05 668.21,85.75 682.58,75.29 696.67,66.15 711.25,61.47 724.03,63.45 737.9,67.91 	"/>
	<g id="Coordinates_2_">
		<path class="st1" d="M0.63,228.66"/>
		<path class="st2" d="M0.63,0"/>
		<path class="st1" d="M738.13,228.66"/>
	</g>
	<g>
		<line id="CM2_2_" class="st3" x1="654.32" y1="11.23" x2="654.32" y2="219.3"/>
		<line id="CM1_2_" class="st4" x1="512.21" y1="11.23" x2="512.21" y2="219.3"/>
		<line id="IM_2_" class="st5" x1="455.37" y1="11.23" x2="455.37" y2="219.3"/>
		<line id="MM_2_" class="st4" x1="256.42" y1="11.23" x2="256.42" y2="219.3"/>
	</g>
</g>
</svg>
