<!-- Generator: Adobe Illustrator 25.0.0, SVG Export Plug-In  -->
<svg version="1.1" xmlns="http://www.w3.org/2000/svg" xmlns:xlink="http://www.w3.org/1999/xlink" x="0px" y="0px"
	 width="710.61px" height="228.66px" viewBox="0 0 710.61 228.66"
	 style="overflow:visible;enable-background:new 0 0 710.61 228.66;" xml:space="preserve">
<style type="text/css">
	.st0{fill:none;stroke:#000000;stroke-miterlimit:10;}
	.st1{fill:none;stroke:#4E4E4E;stroke-width:0.9921;stroke-miterlimit:10;}
	.st2{fill:none;stroke:#3DB54A;stroke-width:0.9921;stroke-miterlimit:10;}
	.st3{fill:none;stroke:#F79421;stroke-width:0.9921;stroke-miterlimit:10;}
	.st4{fill:none;stroke:#EC2227;stroke-width:0.9921;stroke-miterlimit:10;}
	.st5{fill:none;stroke:#67308F;stroke-width:0.9921;stroke-miterlimit:10;}
</style>
<defs>
</defs>
<g>
	<polyline class="st0" points="0.23,159.15 14.32,159.04 28.85,159.81 42.72,159.48 57.15,155.73 71.13,147.81 85.66,145.61 
		99.97,145.05 113.84,146.16 128.71,149.57 142.58,154.19 156.78,160.69 170.76,164.87 185.07,168.06 199.38,172.25 213.81,174.78 
		228.12,176.1 242.43,175.66 252.12,172.47 256.3,169.28 266.65,158.6 270.5,154.74 276.45,147.37 284.93,139.44 287.35,136.25 
		299.24,126.67 313.33,121.05 327.09,116.65 341.4,111.7 356.04,105.64 369.92,99.59 383.9,91.11 398.1,81.97 412.52,72.72 
		426.39,69.97 440.59,68.76 454.91,67.22 469.66,66.23 477.92,67.88 483.64,71.73 490.8,79.44 497.62,89.46 505.22,101.9 
		511.82,110.82 526.03,127.88 539.9,138.34 553.88,144.39 568.52,148.91 582.72,149.9 597.14,147.48 604.74,144.28 611.46,139.44 
		614.21,136.03 618.72,129.42 621.47,124.58 625.11,117.64 626.32,114.78 631.93,113.13 	"/>
	<g id="Coordinates_2_">
		<path class="st1" d="M0.08,228.66"/>
		<path class="st2" d="M0,0"/>
		<path class="st1" d="M710.61,228.66"/>
	</g>
	<g>
		<line id="IM_2_" class="st3" x1="511.66" y1="11.78" x2="511.66" y2="219.19"/>
		<line id="MM_2_" class="st4" x1="284.29" y1="11.78" x2="284.29" y2="219.19"/>
		<line id="OM_2_" class="st5" x1="85.34" y1="11.78" x2="85.34" y2="219.19"/>
	</g>
</g>
</svg>
