<svg version="1.1" xmlns="http://www.w3.org/2000/svg" xmlns:xlink="http://www.w3.org/1999/xlink" x="0px" y="0px"
	 width="710.53px" height="228.66px" viewBox="0 0 710.53 228.66"
	 style="overflow:visible;enable-background:new 0 0 710.53 228.66;" xml:space="preserve">
<style type="text/css">
	.st0{fill:none;stroke:#000000;stroke-miterlimit:10;}
	.st1{fill:none;stroke:#4E4E4E;stroke-width:0.9921;stroke-miterlimit:10;}
	.st2{fill:none;stroke:#3DB54A;stroke-width:0.9921;stroke-miterlimit:10;}
	.st3{fill:none;stroke:#F79421;stroke-width:0.9921;stroke-miterlimit:10;}
	.st4{fill:none;stroke:#EC2227;stroke-width:0.9921;stroke-miterlimit:10;}
	.st5{fill:none;stroke:#67308F;stroke-width:0.9921;stroke-miterlimit:10;}
</style>
<defs>
</defs>
<g id="Normal_1_">
	<polyline class="st0" points="0.26,114.53 14.46,115.69 29.32,116.85 42.86,115.86 57.06,115.86 63.67,114.2 71.43,103.97 
		83.16,92.41 85.63,92.08 100,98.02 108.92,101.32 114.53,106.11 128.9,117.01 142.44,116.68 156.31,116.02 171.01,125.1 
		185.21,135.67 199.41,142.99 213.95,150.37 228.37,156.97 242.46,158.3 256.33,156.75 270.75,153.01 273.39,148.61 276.92,137.16 
		280,125.6 285.06,114.04 292.88,102.7 299.05,97.41 312.59,91.14 327.34,88.94 341.76,88.94 355.85,91.91 370.28,91.36 
		384.26,88.72 398.57,86.74 412.66,83.65 426.42,79.25 440.73,70.33 451.3,63.18 455.38,62.19 469.14,58.99 483.23,58 492.48,56.57 
		497.43,52.94 503.27,45.78 508.88,33.78 512.29,25.75 517.14,17.82 526.16,13.75 532.44,10.77 539.82,10.22 554.35,9.89 
		568.88,9.78 582.31,10.33 597.06,12.2 610.94,15.51 625.25,22.88 	"/>
	<g id="Coordinates_2_">
		<path class="st1" d="M0,228.66"/>
		<path class="st2" d="M0,0"/>
		<path class="st1" d="M710.53,228.66"/>
	</g>
	<g id="Marker_2_">
		<line id="IM_2_" class="st3" x1="511.58" y1="9.78" x2="511.58" y2="223.01"/>
		<line id="MM_2_" class="st4" x1="284.21" y1="9.78" x2="284.21" y2="223.01"/>
		<line id="OM_2_" class="st5" x1="85.26" y1="9.78" x2="85.26" y2="223.01"/>
	</g>
</g>
</svg>
