<!-- Generator: Adobe Illustrator 25.0.0, SVG Export Plug-In  -->
<svg version="1.1" xmlns="http://www.w3.org/2000/svg" xmlns:xlink="http://www.w3.org/1999/xlink" x="0px" y="0px"
	 width="710.99px" height="228.84px" viewBox="0 0 710.99 228.84"
	 style="overflow:visible;enable-background:new 0 0 710.99 228.84;" xml:space="preserve">
<style type="text/css">
	.st0{fill:none;stroke:#F79421;stroke-width:0.9921;stroke-miterlimit:10;}
	.st1{fill:none;stroke:#EC2227;stroke-width:0.9921;stroke-miterlimit:10;}
	.st2{fill:none;stroke:#67308F;stroke-width:0.9921;stroke-miterlimit:10;}
	.st3{fill:none;stroke:#000000;stroke-miterlimit:10;}
	.st4{fill:none;stroke:#FFF200;stroke-width:0.9921;stroke-miterlimit:10;}
	.st5{fill:none;stroke:#ED1C24;stroke-width:0.7087;stroke-miterlimit:10;}
</style>
<defs>
</defs>
<g>
	<g id="Marker_2_">
		<line id="IM_2_" class="st0" x1="512.04" y1="5.23" x2="512.04" y2="219.01"/>
		<line id="MM_2_" class="st1" x1="284.67" y1="5.23" x2="284.67" y2="219.01"/>
		<line id="OM_2_" class="st2" x1="85.72" y1="5.23" x2="85.72" y2="219.01"/>
	</g>
	<polyline class="st3" points="0.06,23.4 14.18,21.74 28.63,20.34 43.08,19.52 57.03,19.52 71.23,20.09 85.35,21.08 99.72,22.24 
		114.09,24.96 128.53,29.92 138.61,34.38 142.57,36.11 156.94,43.63 171.22,51.06 185.51,58.9 199.63,66.74 213.91,75.66 
		221.59,80.2 227.95,83.59 242.73,89.53 256.6,84.74 270.8,76.49 278.23,72.19 285,70.13 299.2,69.06 313.65,67.9 327.77,68.48 
		341.97,69.88 356.18,70.46 370.46,73.18 384.33,79.63 398.86,87.39 412.74,97.63 427.02,108.77 433.87,113.97 440.97,119.42 
		449.64,124.87 455.51,129.08 463.02,133.63 469.46,135.85 476.56,138.5 483.75,139.9 497.95,139.9 511.98,139.16 526.27,137.26 
		540.72,134.7 554.84,128.92 563.59,125.04 568.87,122.56 583.08,118.02 597.28,114.63 611.73,111.99 620.4,110.75 625.52,111.17 
		628.08,112.24 	"/>
	<g id="Coordinates_2_">
		<path class="st4" d="M0.38,0"/>
		<path class="st5" d="M710.99,228.84"/>
		<path class="st4" d="M0.38,228.84"/>
	</g>
</g>
</svg>
