<svg version="1.1" xmlns="http://www.w3.org/2000/svg" xmlns:xlink="http://www.w3.org/1999/xlink" x="0px" y="0px"
	 width="710.61px" height="228.66px" viewBox="0 0 710.61 228.66"
	 style="overflow:visible;enable-background:new 0 0 710.61 228.66;" xml:space="preserve">
<style type="text/css">
	.st0{fill:none;stroke:#4E4E4E;stroke-width:0.9921;stroke-miterlimit:10;}
	.st1{fill:none;stroke:#3DB54A;stroke-width:0.9921;stroke-miterlimit:10;}
	.st2{fill:none;stroke:#F79421;stroke-width:0.9921;stroke-miterlimit:10;}
	.st3{fill:none;stroke:#EC2227;stroke-width:0.9921;stroke-miterlimit:10;}
	.st4{fill:none;stroke:#67308F;stroke-width:0.9921;stroke-miterlimit:10;}
	.st5{fill:none;stroke:#000000;stroke-miterlimit:10;}
</style>
<defs>
</defs>
<g>
	<g id="Coordinates_2_">
		<path id="_x30_0_2_" class="st0" d="M0.08,228.66"/>
		<path id="_x30_1_2_" class="st1" d="M0,0"/>
		<path id="_x31_0_2_" class="st0" d="M710.61,228.66"/>
	</g>
	<g id="Marker_2_">
		<line id="IM_1_" class="st2" x1="511.66" y1="13.03" x2="511.66" y2="222.68"/>
		<line id="MM_1_" class="st3" x1="284.29" y1="13.03" x2="284.29" y2="222.68"/>
		<line id="OM_1_" class="st4" x1="85.34" y1="13.03" x2="85.34" y2="222.68"/>
	</g>
	<polyline class="st5" points="0.67,161.68 14.79,164.32 29.4,168.78 35.51,169.11 43.19,167.05 50.38,164.4 54.92,161.1 
		57.72,158.96 67.47,149.62 71.93,144.84 80.26,138.23 86.37,134.85 100.25,133.69 114.12,134.27 128.82,136.08 142.85,137.07 
		157.3,137.57 171.34,137.49 185.21,141.2 194.04,144.51 199.74,145.83 208.25,147.64 214.27,148.63 228.23,152.6 242.59,156.4 
		256.3,155.49 270.92,154 284.79,149.38 294.04,143.1 299.15,140.13 304.69,137.9 313.11,134.76 318.81,131.96 327.56,125.93 
		341.35,114.78 349.11,110.07 355.71,105.86 369.92,101.74 383.95,98.68 398.07,97.52 412.52,96.12 426.39,95.79 440.51,97.03 
		454.63,102.97 468.83,108.51 483.03,114.7 497.15,122.38 511.19,129.89 525.31,136.66 539.76,142.52 553.8,145.83 561.31,146.74 
		568,149.54 582.28,150.78 596.24,153.01 610.69,154.08 618.86,154.17 624.64,152.02 627.36,148.8 639.01,135.67 642.23,131.05 
		646.93,127.33 652.96,122.71 667.66,114.12 673.69,110.4 681.2,109.33 695.07,107.93 708.61,110.07 	"/>
</g>
</svg>
