<svg version="1.1" xmlns="http://www.w3.org/2000/svg" xmlns:xlink="http://www.w3.org/1999/xlink" x="0px" y="0px"
	 width="710.61px" height="228.66px" viewBox="0 0 710.61 228.66"
	 style="overflow:visible;enable-background:new 0 0 710.61 228.66;" xml:space="preserve">
<style type="text/css">
	.st0{fill:none;stroke:#4E4E4E;stroke-width:0.9921;stroke-miterlimit:10;}
	.st1{fill:none;stroke:#3DB54A;stroke-width:0.9921;stroke-miterlimit:10;}
	.st2{fill:none;stroke:#F79421;stroke-width:0.9921;stroke-miterlimit:10;}
	.st3{fill:none;stroke:#EC2227;stroke-width:0.9921;stroke-miterlimit:10;}
	.st4{fill:none;stroke:#67308F;stroke-width:0.9921;stroke-miterlimit:10;}
	.st5{fill:none;stroke:#000000;stroke-miterlimit:10;}
</style>
<defs>
</defs>
<g id="Normal_1_">
	<g id="Coordinates_2_">
		<path id="_x30_0_2_" class="st0" d="M0.08,228.66"/>
		<path id="_x30_1_2_" class="st1" d="M0,0"/>
		<path id="_x31_0_2_" class="st0" d="M710.61,228.66"/>
	</g>
	<g id="Marker_2_">
		<line id="IM_1_" class="st2" x1="511.66" y1="16.12" x2="511.66" y2="205.79"/>
		<line id="MM_1_" class="st3" x1="284.29" y1="16.12" x2="284.29" y2="205.79"/>
		<line id="OM_1_" class="st4" x1="85.34" y1="16.12" x2="85.34" y2="205.79"/>
	</g>
	<polyline class="st5" points="0.5,137.16 14.71,138.31 28.91,140.3 43.03,144.34 50.13,147.31 57.23,149.21 71.43,149.54 
		86.04,148.14 99.83,146.57 114.61,146.65 128.48,144.92 135.5,142.28 141.12,136.91 147.72,130.72 154.74,125.1 160.85,121.97 
		166.05,120.31 171.17,121.06 178.36,123.04 183.97,126.18 188.84,127.99 194.04,129.73 199.91,129.07 214.03,129.97 228.06,133.44 
		242.1,135.84 246.64,144.67 259.93,149.13 271.66,152.52 285.37,155.74 298.91,156.4 313.85,155.08 319.38,153.59 327.31,149.54 
		341.76,137.98 351.83,131.96 356.21,132.37 363.23,133.69 370.25,138.23 376.19,142.36 382.05,148.72 384.78,153.59 390.56,155.98 
		398.81,155.74 412.36,155.98 426.89,156.4 440.84,156.48 455.04,157.8 469.49,157.97 473.54,157.47 483.53,152.1 487.91,148.22 
		494.59,141.95 497.57,140.71 504.09,137.9 511.11,136.99 519.12,138.15 525.64,141.2 532.16,144.42 540.25,147.64 548.51,147.97 
		554.7,149.46 562.05,152.02 568.66,155.16 574.6,157.97 582.7,160.44 597.23,165.4 610.85,161.93 625.47,157.3 639.42,152.02 
		653.04,149.13 667.74,146.32 681.86,144.34 695.98,142.03 710.35,141.45 	"/>
</g>
</svg>
