<svg version="1.1" xmlns="http://www.w3.org/2000/svg" xmlns:xlink="http://www.w3.org/1999/xlink" x="0px" y="0px"
	 width="711.12px" height="228.66px" viewBox="0 0 711.12 228.66"
	 style="overflow:visible;enable-background:new 0 0 711.12 228.66;" xml:space="preserve">
<style type="text/css">
	.st0{fill:none;stroke:#4E4E4E;stroke-width:0.9921;stroke-miterlimit:10;}
	.st1{fill:none;stroke:#3DB54A;stroke-width:0.9921;stroke-miterlimit:10;}
	.st2{fill:none;stroke:#F79421;stroke-width:0.9921;stroke-miterlimit:10;}
	.st3{fill:none;stroke:#EC2227;stroke-width:0.9921;stroke-miterlimit:10;}
	.st4{fill:none;stroke:#67308F;stroke-width:0.9921;stroke-miterlimit:10;}
	.st5{fill:none;stroke:#000000;stroke-miterlimit:10;}
</style>
<defs>
</defs>
<g id="Normal_1_">
	<g id="Coordinates_2_">
		<path id="_x31_0_2_" class="st0" d="M710.61,228.66"/>
		<path id="_x30_1_2_" class="st1" d="M0,0"/>
		<path id="_x30_0_2_" class="st0" d="M0.08,228.66"/>
	</g>
	<g id="Marker_2_">
		<line id="IM_1_" class="st2" x1="512.1" y1="16.18" x2="512.1" y2="209.34"/>
		<line id="MM_1_" class="st3" x1="284.73" y1="16.18" x2="284.73" y2="209.34"/>
		<line id="OM_1_" class="st4" x1="86.56" y1="16.23" x2="86.56" y2="209.39"/>
	</g>
	<polyline class="st5" points="0.45,137.4 14.76,138.17 29.24,136.96 43.44,134.65 57.64,133.22 72.12,129.81 80.43,127.22 
		86.32,126.83 100.58,127.77 114.89,127.77 129.15,129.97 143.24,132.39 147.64,133.55 157.55,133.94 167.62,135.09 171.75,134.16 
		185.9,131.51 200.15,131.02 214.41,130.63 228.5,131.07 235.66,130.69 242.82,131.46 256.91,130.69 270.72,130.69 278.54,130.36 
		285.2,131.02 291.97,129.64 299.4,127.28 313.93,122.27 327.86,118.69 342.12,114.78 356.26,107.62 370.63,100.85 384.61,95.13 
		398.81,90.67 412.96,88.63 427.11,88.19 441.48,84.83 455.68,82.3 469.66,80.65 483.97,80.71 498.12,82.74 512.48,84.83 
		526.41,88.91 540.34,91.94 545.84,92.05 554.65,95.02 568.91,99.64 578.87,103 582.94,105.15 587.84,107.02 597.14,109.55 
		600.56,111.42 607.99,103.33 611.57,98.82 617.24,94.63 625.88,91.39 639.97,87.48 653.95,83.68 667.99,82.3 682.52,80.49 
		689.57,80.43 696.23,83.24 710.92,89.68 	"/>
</g>
</svg>
