<!-- Generator: Adobe Illustrator 25.0.0, SVG Export Plug-In  -->
<svg version="1.1" xmlns="http://www.w3.org/2000/svg" xmlns:xlink="http://www.w3.org/1999/xlink" x="0px" y="0px"
	 width="710.84px" height="228.66px" viewBox="0 0 710.84 228.66"
	 style="overflow:visible;enable-background:new 0 0 710.84 228.66;" xml:space="preserve">
<style type="text/css">
	.st0{fill:none;stroke:#4E4E4E;stroke-width:0.9921;stroke-miterlimit:10;}
	.st1{fill:none;stroke:#3DB54A;stroke-width:0.9921;stroke-miterlimit:10;}
	.st2{fill:none;stroke:#F79421;stroke-width:0.9921;stroke-miterlimit:10;}
	.st3{fill:none;stroke:#EC2227;stroke-width:0.9921;stroke-miterlimit:10;}
	.st4{fill:none;stroke:#67308F;stroke-width:0.9921;stroke-miterlimit:10;}
	.st5{fill:none;stroke:#000000;stroke-miterlimit:10;}
</style>
<defs>
</defs>
<g>
	<g id="Coordinates_2_">
		<path id="_x30_0_2_" class="st0" d="M0.31,228.66"/>
		<path id="_x30_1_2_" class="st1" d="M0.31,0"/>
		<path id="_x31_0_2_" class="st0" d="M710.84,228.66"/>
		<path id="IM_4_" class="st2" d="M511.89,218.83"/>
		<path id="MM_4_" class="st3" d="M284.52,218.83"/>
		<path id="OM_4_" class="st4" d="M85.58,218.83"/>
	</g>
	<g id="Marker_2_">
		<line id="IM_1_" class="st2" x1="511.89" y1="4.6" x2="511.89" y2="224.35"/>
		<line id="MM_1_" class="st3" x1="284.52" y1="4.6" x2="284.52" y2="224.35"/>
		<line id="OM_1_" class="st4" x1="85.58" y1="4.6" x2="85.58" y2="224.35"/>
	</g>
	<polyline class="st5" points="0.02,171.95 14,172.5 23.91,173.05 27.98,172.72 34.48,172.17 42.18,171.95 56.28,171.73 
		70.48,171.29 84.79,171.73 99.32,173.16 112.75,174.15 127.29,173.93 141.6,174.81 155.91,175.47 169.45,175.91 184.42,175.36 
		191.47,175.47 198.18,177.01 212.5,177.34 221.3,175.91 226.7,175.03 232.42,174.59 240.68,173.82 245.85,173.6 255.32,170.41 
		260.17,168.42 266.44,165.67 269.3,163.47 273.38,159.62 277.23,156.09 283.18,152.13 291.43,146.74 297.82,146.41 311.58,144.86 
		325.78,144.97 339.98,144.2 347.25,144.42 353.96,146.08 362.11,148.28 368.39,149.38 382.37,150.7 390.29,150.7 397.01,149.93 
		410.88,147.84 425.08,145.52 439.62,142.55 453.82,140.46 467.58,139.69 481.78,137.27 496.31,133.86 510.4,127.91 524.83,122.41 
		538.92,118.77 553.23,116.68 567.32,115.36 582.51,113.16 596.28,111.4 603.1,110.63 610.48,111.29 617.96,112.83 624.35,115.8 
		638.88,121.63 653.41,128.24 667.06,134.08 681.49,137.93 696.02,143.65 710,147.84 	"/>
</g>
</svg>
