<!-- Generator: Adobe Illustrator 25.0.0, SVG Export Plug-In  -->
<svg version="1.1" xmlns="http://www.w3.org/2000/svg" xmlns:xlink="http://www.w3.org/1999/xlink" x="0px" y="0px"
	 width="738.54px" height="202.47px" viewBox="0 0 738.54 202.47"
	 style="overflow:visible;enable-background:new 0 0 738.54 202.47;" xml:space="preserve">
<style type="text/css">
	.st0{fill:none;stroke:#4E4E4E;stroke-width:0.9921;stroke-miterlimit:10;}
	.st1{fill:none;stroke:#662D91;stroke-width:0.9921;stroke-miterlimit:10;}
	.st2{fill:none;stroke:#EC008C;stroke-width:0.9921;stroke-miterlimit:10;}
	.st3{fill:none;stroke:#ED1C24;stroke-width:0.9921;stroke-miterlimit:10;}
	.st4{fill:none;stroke:#F7941D;stroke-width:0.9921;stroke-miterlimit:10;}
	.st5{fill:none;stroke:#000000;stroke-miterlimit:10;}
</style>
<defs>
</defs>
<g id="Normal_1_">
	<g id="Coordinates_2_">
		<path class="st0" d="M737.62,202.47"/>
		<path class="st1" d="M0.12,202.47"/>
		<path id="M2_2_" class="st2" d="M653.8,192.64"/>
		<path id="M1_2_" class="st3" d="M511.7,192.64"/>
		<path id="IM_4_" class="st4" d="M454.86,192.64"/>
		<path id="OM_2_" class="st3" d="M255.91,192.64"/>
	</g>
	<g id="Marker_2_">
		<line id="CM2_2_" class="st2" x1="653.8" y1="0" x2="653.8" y2="192.64"/>
		<line id="CM1_2_" class="st3" x1="511.7" y1="0" x2="511.7" y2="192.64"/>
		<line id="IM_1_" class="st4" x1="454.86" y1="0" x2="454.86" y2="192.64"/>
		<line id="MM_2_" class="st3" x1="255.91" y1="0" x2="255.91" y2="192.64"/>
	</g>
	<polyline class="st5" points="0.05,147.3 14.14,145.98 28.01,145.76 41.99,144.44 56.52,143.89 70.84,144.11 84.38,144.55 
		99.35,143.78 113.55,143.56 127.53,143.78 141.51,143.78 156.27,143.56 170.25,143.12 184.12,142.46 198.54,143.01 213.18,143.01 
		226.84,142.46 233.88,139.38 240.93,135.74 248.3,134.53 255.35,133.98 264.38,134.09 269.88,134.97 277.81,136.4 284.19,137.83 
		291.24,139.27 298.61,140.7 305.11,141.36 312.27,142.35 318.76,143.23 326.03,144.22 333.07,144.66 340.78,144.44 347.61,144 
		354.54,144.11 369.07,144.88 377.33,144.77 383.28,142.9 397.04,138.5 404.52,137.5 411.79,136.84 419.72,134.64 426.32,132.66 
		439.86,128.48 454.61,121.87 468.38,114.61 475.53,109.76 482.14,105.25 488.19,102.28 497.11,97.87 502.39,96.44 511.2,95.23 
		525.73,93.8 539.16,93.8 553.92,95.56 568.45,98.42 582.87,102.83 596.85,107.01 611.38,109.87 624.82,110.64 640.01,109.98 
		654.43,105.14 668.63,102.83 682.83,98.42 697.04,93.36 711.57,91.05 723.9,88.29 738.32,95.23 	"/>
</g>
</svg>
