<!-- Generator: Adobe Illustrator 25.0.0, SVG Export Plug-In  -->
<svg version="1.1" xmlns="http://www.w3.org/2000/svg" xmlns:xlink="http://www.w3.org/1999/xlink" x="0px" y="0px"
	 width="713.26px" height="228.66px" viewBox="0 0 713.26 228.66"
	 style="overflow:visible;enable-background:new 0 0 713.26 228.66;" xml:space="preserve">
<style type="text/css">
	.st0{fill:none;stroke:#4E4E4E;stroke-width:0.9921;stroke-miterlimit:10;}
	.st1{fill:none;stroke:#3DB54A;stroke-width:0.9921;stroke-miterlimit:10;}
	.st2{fill:none;stroke:#F79421;stroke-width:0.9921;stroke-miterlimit:10;}
	.st3{fill:none;stroke:#EC2227;stroke-width:0.9921;stroke-miterlimit:10;}
	.st4{fill:none;stroke:#67308F;stroke-width:0.9921;stroke-miterlimit:10;}
	.st5{fill:none;stroke:#000000;stroke-miterlimit:10;}
</style>
<defs>
</defs>
<g id="Normal_1_">
	<g id="Coordinates_2_">
		<path id="_x30_0_2_" class="st0" d="M1.27,228.66"/>
		<path id="_x30_1_2_" class="st1" d="M1.19,0"/>
		<path id="_x31_0_2_" class="st0" d="M711.8,228.66"/>
		<path id="IM_4_" class="st2" d="M512.85,218.83"/>
		<path id="MM_4_" class="st3" d="M285.49,218.83"/>
		<path id="OM_4_" class="st4" d="M86.54,218.83"/>
	</g>
	<g id="Marker_2_">
		<line id="IM_1_" class="st2" x1="512.85" y1="13.03" x2="512.85" y2="222.68"/>
		<line id="MM_1_" class="st3" x1="285.49" y1="13.03" x2="285.49" y2="222.68"/>
		<line id="OM_1_" class="st4" x1="86.54" y1="13.03" x2="86.54" y2="222.68"/>
	</g>
	<polyline class="st5" points="0.29,98.27 4.84,94.96 7.06,92.98 14.33,86.79 21.1,81.26 28.53,78.2 35.14,74.24 42.82,71.93 
		48.51,70.52 56.11,70.03 63.05,69.53 70.73,69.29 75.51,69.29 85.5,70.19 91.04,71.6 99.54,75.07 106.48,78.45 113.91,81.59 
		120.6,84.56 128.03,88.19 135.05,92.4 142.15,96.53 156.43,104.79 164.52,109.25 170.8,113.05 174.68,115.36 185.08,121.72 
		190.04,124.61 194.66,126.51 199.04,128.4 203.41,129.56 206.14,129.73 209.61,129.81 213.57,129.89 217.12,129.89 220.5,129.81 
		228.35,125.6 241.97,116.68 255.84,105.62 259.15,103.55 269.88,97.85 275.5,95.05 282.68,92.16 284.99,91.66 290.28,91.17 
		297.38,90.01 301.42,89.76 307.7,89.68 312.98,90.18 323.8,90.75 328.17,91.25 335.44,91.66 339.9,91.74 343.04,91.74 355.5,91.74 
		369.62,91.91 383.66,92.07 397.61,91.83 407.27,91.25 412.15,90.67 419.16,89.1 426.68,86.29 440.88,81.75 447.98,79.28 
		455.16,75.97 461.44,72.26 469.7,68.29 476.55,64.08 483.65,58.22 489.35,53.85 493.81,50.29 497.61,46.91 501.32,44.18 
		503.22,42.95 506.85,43.03 511.72,43.52 514.28,45.26 523.94,49.72 528.9,52.61 540.54,60.2 554.91,70.28 569.19,78.62 
		583.72,84.81 598.42,91.66 611.96,99.34 618.24,101.57 626.33,102.4 641.36,105.12 655.23,108.26 669.51,112.88 683.88,116.1 
		698.49,119.24 713.11,124.03 	"/>
</g>
</svg>
