<!-- Generator: Adobe Illustrator 25.0.0, SVG Export Plug-In  -->
<svg version="1.1" xmlns="http://www.w3.org/2000/svg" xmlns:xlink="http://www.w3.org/1999/xlink" x="0px" y="0px"
	 width="710.61px" height="228.66px" viewBox="0 0 710.61 228.66"
	 style="overflow:visible;enable-background:new 0 0 710.61 228.66;" xml:space="preserve">
<style type="text/css">
	.st0{fill:none;stroke:#4E4E4E;stroke-width:0.9921;stroke-miterlimit:10;}
	.st1{fill:none;stroke:#3DB54A;stroke-width:0.9921;stroke-miterlimit:10;}
	.st2{fill:none;stroke:#F79421;stroke-width:0.9921;stroke-miterlimit:10;}
	.st3{fill:none;stroke:#EC2227;stroke-width:0.9921;stroke-miterlimit:10;}
	.st4{fill:none;stroke:#67308F;stroke-width:0.9921;stroke-miterlimit:10;}
	.st5{fill:none;stroke:#000000;stroke-miterlimit:10;}
</style>
<defs>
</defs>
<g id="Normal_1_">
	<g id="Coordinates_2_">
		<path id="_x31_0_2_" class="st0" d="M710.61,228.66"/>
		<path id="_x30_1_2_" class="st1" d="M0,0"/>
		<path id="_x30_0_2_" class="st0" d="M0.08,228.66"/>
		<path id="IM_4_" class="st2" d="M511.66,217.83"/>
		<path id="MM_4_" class="st3" d="M284.29,217.83"/>
		<path id="OM_4_" class="st4" d="M85.34,217.83"/>
	</g>
	<g id="Marker_2_">
		<line id="IM_1_" class="st2" x1="511.66" y1="16.12" x2="511.66" y2="209.28"/>
		<line id="MM_1_" class="st3" x1="284.29" y1="16.12" x2="284.29" y2="209.28"/>
		<line id="OM_1_" class="st4" x1="85.34" y1="16.12" x2="85.34" y2="209.28"/>
	</g>
	<polyline class="st5" points="0.78,148.36 9.04,145.94 14.1,145.72 27.86,145.94 42.28,146.82 56.93,147.15 71.13,148.36 
		85.22,148.14 99.53,148.58 113.84,148.47 127.38,149.24 141.7,149.68 155.9,149.9 169.99,149.13 184.19,148.69 198.06,148.91 
		212.59,148.25 226.25,147.7 240.78,147.26 247.16,144.5 254.65,141.09 261.81,136.36 269.07,132.72 273.7,128.98 283.49,122.93 
		289.55,117.64 296.48,114.78 299.57,114.78 305.95,115.99 311.79,117.09 319.05,120.06 325.99,125.13 331.49,127.99 340.3,132.72 
		346.14,135.04 354.28,137.13 368.26,139.11 382.36,136.58 396.78,132.06 404.15,129.86 410.87,126.01 416.81,122.16 425.18,117.31 
		432.78,114.45 439.05,113.13 452.92,112.8 467.57,113.13 474.61,112.58 482.1,114.34 490.03,115.33 496.85,116.65 510.72,119.73 
		516.89,121.83 524.37,119.95 528.67,117.86 536.37,113.68 538.69,112.47 543.31,110.71 549.7,108.17 552.89,108.06 559.82,108.83 
		567.75,110.93 573.92,111.92 582.17,114.78 595.93,118.3 610.03,124.25 624.01,129.53 638.32,132.94 653.18,137.02 667.27,139.55 
		681.25,141.53 696.23,142.74 706.91,143.18 	"/>
</g>
</svg>
