<!-- Generator: Adobe Illustrator 25.0.0, SVG Export Plug-In  -->
<svg version="1.1" xmlns="http://www.w3.org/2000/svg" xmlns:xlink="http://www.w3.org/1999/xlink" x="0px" y="0px"
	 width="710.61px" height="228.66px" viewBox="0 0 710.61 228.66"
	 style="overflow:visible;enable-background:new 0 0 710.61 228.66;" xml:space="preserve">
<style type="text/css">
	.st0{fill:none;stroke:#4E4E4E;stroke-width:0.9921;stroke-miterlimit:10;}
	.st1{fill:none;stroke:#3DB54A;stroke-width:0.9921;stroke-miterlimit:10;}
	.st2{fill:none;stroke:#F79421;stroke-width:0.9921;stroke-miterlimit:10;}
	.st3{fill:none;stroke:#EC2227;stroke-width:0.9921;stroke-miterlimit:10;}
	.st4{fill:none;stroke:#67308F;stroke-width:0.9921;stroke-miterlimit:10;}
	.st5{fill:none;stroke:#000000;stroke-miterlimit:10;}
</style>
<defs>
</defs>
<g id="Normal_1_">
	<g id="Coordinates_2_">
		<path id="_x30_0_2_" class="st0" d="M0.08,228.66"/>
		<path id="_x30_1_2_" class="st1" d="M0,0"/>
		<path id="_x31_0_2_" class="st0" d="M710.61,228.66"/>
		<path id="IM_4_" class="st2" d="M511.66,223.83"/>
		<path id="MM_4_" class="st3" d="M284.29,223.83"/>
		<path id="OM_4_" class="st4" d="M85.34,223.83"/>
	</g>
	<g id="Marker_2_">
		<line id="IM_1_" class="st2" x1="511.66" y1="16.12" x2="511.66" y2="205.79"/>
		<line id="MM_1_" class="st3" x1="284.29" y1="16.12" x2="284.29" y2="205.79"/>
		<line id="OM_1_" class="st4" x1="85.34" y1="16.12" x2="85.34" y2="205.79"/>
	</g>
	<polyline class="st5" points="0.45,183.62 14.32,183.84 29.51,183.84 42.94,183.62 57.04,183.84 71.35,184.72 85.22,185.16 
		99.75,185.16 114.06,185.38 127.93,185.6 142.25,185.6 155.9,185.82 170.1,186.37 184.63,186.2 198.5,186.37 213.2,186.53 
		227.57,187.52 241.77,187.85 255.48,189.01 269.68,189.67 284.21,189.51 297.75,189.67 312.28,190.5 326.15,190.83 340.69,190.83 
		354.56,190.5 368.26,191.16 382.96,191.82 396.83,191.98 411.37,190.5 424.74,190.33 439.6,189.51 453.64,188.85 467.84,187.69 
		483.03,185.38 495.92,182.9 510.61,180.26 524.48,178.77 539.18,178.44 553.05,177.45 567.09,176.96 581.46,177.12 595.82,177.12 
		610.03,176.13 624.06,173.32 638.1,172.33 642.89,170.85 652.8,172.5 667,176.13 681.2,179.6 688.14,182.74 695.57,187.52 
		710.1,196.94 	"/>
</g>
</svg>
