<!-- Generator: Adobe Illustrator 25.0.0, SVG Export Plug-In  -->
<svg version="1.1" xmlns="http://www.w3.org/2000/svg" xmlns:xlink="http://www.w3.org/1999/xlink" x="0px" y="0px"
	 width="710.95px" height="228.66px" viewBox="0 0 710.95 228.66"
	 style="overflow:visible;enable-background:new 0 0 710.95 228.66;" xml:space="preserve">
<style type="text/css">
	.st0{fill:none;stroke:#4E4E4E;stroke-width:0.9921;stroke-miterlimit:10;}
	.st1{fill:none;stroke:#3DB54A;stroke-width:0.9921;stroke-miterlimit:10;}
	.st2{fill:none;stroke:#F79421;stroke-width:0.9921;stroke-miterlimit:10;}
	.st3{fill:none;stroke:#EC2227;stroke-width:0.9921;stroke-miterlimit:10;}
	.st4{fill:none;stroke:#67308F;stroke-width:0.9921;stroke-miterlimit:10;}
	.st5{fill:none;stroke:#000000;stroke-miterlimit:10;}
</style>
<defs>
</defs>
<g id="Normal_1_">
	<g id="Coordinates_2_">
		<path id="_x30_0_2_" class="st0" d="M0.42,228.66"/>
		<path id="_x30_1_2_" class="st1" d="M0.34,0"/>
		<path id="_x31_0_2_" class="st0" d="M710.95,228.66"/>
		<path id="IM_4_" class="st2" d="M512,218.83"/>
		<path id="MM_4_" class="st3" d="M284.63,218.83"/>
		<path id="OM_4_" class="st4" d="M85.68,218.83"/>
	</g>
	<g id="Marker_2_">
		<line id="IM_1_" class="st2" x1="512" y1="13.03" x2="512" y2="222.68"/>
		<line id="MM_1_" class="st3" x1="284.63" y1="13.03" x2="284.63" y2="222.68"/>
		<line id="OM_1_" class="st4" x1="85.68" y1="13.03" x2="85.68" y2="222.68"/>
	</g>
	<polyline class="st5" points="0.02,159.37 14.22,159.86 28.34,160.36 42.38,161.1 56.66,161.68 61.2,161.43 70.78,160.77 
		85.56,160.36 90.1,158.13 99.1,152.68 107.6,147.89 113.55,144.51 119.16,141.37 127.42,136.74 141.79,131.29 155.91,126.09 
		170.27,120.64 173.58,118.83 180.51,113.96 184.23,111.4 198.68,101.07 212.8,93.07 226.09,89.76 241.37,90.26 255.4,89.93 
		269.19,88.77 281.16,79.52 284.3,75.89 294.29,70.44 297.68,71.18 300.9,70.94 312.21,70.44 326.33,69.95 340.45,68.13 
		354.48,67.39 368.69,68.13 383.3,68.71 397.42,69.37 411.62,69.45 425.91,68.96 440.03,67.55 454.31,68.46 467.93,68.79 
		482.63,67.06 496.75,67.06 511.03,66.4 525.24,65.82 539.69,65.57 547.78,65.98 553.64,64.33 567.92,60.95 576.1,57.97 
		582.54,54.42 596.82,46.83 610.7,44.02 625.06,43.52 639.84,44.43 644.88,46.17 	"/>
</g>
</svg>
