<!-- Generator: Adobe Illustrator 25.0.0, SVG Export Plug-In  -->
<svg version="1.1" xmlns="http://www.w3.org/2000/svg" xmlns:xlink="http://www.w3.org/1999/xlink" x="0px" y="0px" width="737.5px"
	 height="206.44px" viewBox="0 0 737.5 206.44" style="overflow:visible;enable-background:new 0 0 737.5 206.44;"
	 xml:space="preserve">
<style type="text/css">
	.st0{fill:none;stroke:#4E4E4E;stroke-width:0.9921;stroke-miterlimit:10;}
	.st1{fill:none;stroke:#662D91;stroke-width:0.9921;stroke-miterlimit:10;}
	.st2{fill:none;stroke:#EC008C;stroke-width:0.9921;stroke-miterlimit:10;}
	.st3{fill:none;stroke:#ED1C24;stroke-width:0.9921;stroke-miterlimit:10;}
	.st4{fill:none;stroke:#F7941D;stroke-width:0.9921;stroke-miterlimit:10;}
	.st5{fill:none;stroke:#000000;stroke-miterlimit:10;}
</style>
<defs>
</defs>
<g id="Normal_1_">
	<g id="Coordinates_2_">
		<path class="st0" d="M737.5,206.44"/>
		<path class="st1" d="M0,206.44"/>
		<path id="M2_2_" class="st2" d="M653.69,196.61"/>
		<path id="M1_2_" class="st3" d="M511.58,196.61"/>
		<path id="IM_4_" class="st4" d="M454.74,196.61"/>
		<path id="OM_2_" class="st3" d="M255.79,196.61"/>
	</g>
	<g id="Marker_2_">
		<line id="CM2_2_" class="st2" x1="653.69" y1="3.97" x2="653.69" y2="196.61"/>
		<line id="CM1_2_" class="st3" x1="511.58" y1="3.97" x2="511.58" y2="196.61"/>
		<line id="IM_1_" class="st4" x1="454.74" y1="3.97" x2="454.74" y2="196.61"/>
		<line id="MM_2_" class="st3" x1="255.79" y1="3.97" x2="255.79" y2="196.61"/>
	</g>
	<polyline class="st5" points="0.42,159.53 14.62,159.36 28.41,159.78 42.95,159.61 56.98,158.87 70.85,158.54 85.72,158.95 
		99.17,157.79 113.79,158.21 127.58,157.55 142.19,156.23 156.06,153.83 170.43,151.77 184.3,150.36 198.26,148.13 212.79,145.24 
		226.74,140.29 240.86,140.54 255.56,136.24 269.1,134.35 283.55,134.18 297.5,132.45 311.87,132.53 326.16,133.85 340.44,133.52 
		354.31,133.85 368.6,133.27 382.47,134.26 397.17,134.26 404.18,133.19 411.2,129.89 414.5,127 424.91,116.84 439.19,102.31 
		443.16,98.1 445.72,92.57 450.59,81.09 454.14,72.34 461.98,67.96 468.09,67.46 474.53,68.87 482.21,68.62 489.39,66.23 
		496.25,61.6 501.61,55.24 510.45,48.72 519.94,45.01 524.32,45.58 538.27,46.33 552.81,46.16 567.26,47.32 581.46,48.06 
		590.21,48.72 595.58,47.9 610.19,43.27 620.1,37.49 624.15,35.18 629.51,31.46 638.51,19.41 644.29,13.05 652.55,5.46 658.25,2.98 
		666.26,1.57 680.87,1.49 695.07,0.5 702.26,1.08 709.69,6.12 716.21,11.9 722.24,16.68 728.02,20.98 731.49,24.12 737.02,32.95 	
		"/>
</g>
</svg>
