<!-- Generator: Adobe Illustrator 25.0.0, SVG Export Plug-In  -->
<svg version="1.1" xmlns="http://www.w3.org/2000/svg" xmlns:xlink="http://www.w3.org/1999/xlink" x="0px" y="0px"
	 width="710.61px" height="228.66px" viewBox="0 0 710.61 228.66"
	 style="overflow:visible;enable-background:new 0 0 710.61 228.66;" xml:space="preserve">
<style type="text/css">
	.st0{fill:none;stroke:#4E4E4E;stroke-width:0.9921;stroke-miterlimit:10;}
	.st1{fill:none;stroke:#3DB54A;stroke-width:0.9921;stroke-miterlimit:10;}
	.st2{fill:none;stroke:#F79421;stroke-width:0.9921;stroke-miterlimit:10;}
	.st3{fill:none;stroke:#EC2227;stroke-width:0.9921;stroke-miterlimit:10;}
	.st4{fill:none;stroke:#67308F;stroke-width:0.9921;stroke-miterlimit:10;}
	.st5{fill:none;stroke:#000000;stroke-miterlimit:10;}
</style>
<defs>
</defs>
<g id="Normal_1_">
	<g id="Coordinates_2_">
		<path id="_x31_0_2_" class="st0" d="M710.61,228.66"/>
		<path id="_x30_1_2_" class="st1" d="M0,0"/>
		<path id="_x30_0_2_" class="st0" d="M0.08,228.66"/>
		<path id="IM_4_" class="st2" d="M511.66,217.83"/>
		<path id="MM_4_" class="st3" d="M284.29,217.83"/>
		<path id="OM_4_" class="st4" d="M85.34,217.83"/>
	</g>
	<g id="Marker_2_">
		<line id="IM_1_" class="st2" x1="511.66" y1="16.12" x2="511.66" y2="209.28"/>
		<line id="MM_1_" class="st3" x1="284.29" y1="16.12" x2="284.29" y2="209.28"/>
		<line id="OM_1_" class="st4" x1="85.34" y1="16.12" x2="85.34" y2="209.28"/>
	</g>
	<polyline class="st5" points="1.41,179.84 3.97,180.17 15.04,184.14 29.15,184.05 43.11,184.22 57.39,183.89 71.35,184.3 
		78.94,184.14 86.04,182.07 99.83,175.39 105.45,172.74 107.68,170.43 114.04,166.3 121.47,163.16 128.15,161.76 142.36,161.43 
		156.64,161.93 170.68,161.84 184.71,162.17 199,161.43 212.95,160.11 227.24,160.36 241.6,158.71 255.48,158.38 270.01,157.39 
		278.18,157.22 284.21,158.62 288.5,159.28 291.39,157.05 297.83,154.74 303.2,153.67 312.37,148.47 326.07,141.12 333.26,138.23 
		340.44,137.82 354.56,137.4 368.76,137.73 383.13,137.4 397.49,137.57 411.2,137.24 425.4,138.15 439.44,137.32 453.64,137.32 
		468.09,137.07 477.09,135.92 482.37,134.02 488.65,128.98 496.41,116.43 503.84,103.39 510.78,93.64 520.27,80.51 524.9,72.42 
		532.16,66.15 538.93,64.08 543.47,63.01 549.83,58.88 553.71,56.49 567.92,48.31 577.16,44.76 582.28,44.6 596.4,45.01 
		610.44,45.75 624.72,46.74 638.92,46.33 648.75,46.91 653.37,48.15 667.49,51.53 673.85,53.02 682.03,52.85 695.9,52.94 
		704.48,53.68 710.1,55 	"/>
</g>
</svg>
