<!-- Generator: Adobe Illustrator 25.0.0, SVG Export Plug-In  -->
<svg version="1.1" xmlns="http://www.w3.org/2000/svg" xmlns:xlink="http://www.w3.org/1999/xlink" x="0px" y="0px"
	 width="711.39px" height="228.66px" viewBox="0 0 711.39 228.66"
	 style="overflow:visible;enable-background:new 0 0 711.39 228.66;" xml:space="preserve">
<style type="text/css">
	.st0{fill:none;stroke:#4E4E4E;stroke-width:0.9921;stroke-miterlimit:10;}
	.st1{fill:none;stroke:#3DB54A;stroke-width:0.9921;stroke-miterlimit:10;}
	.st2{fill:none;stroke:#F79421;stroke-width:0.9921;stroke-miterlimit:10;}
	.st3{fill:none;stroke:#EC2227;stroke-width:0.9921;stroke-miterlimit:10;}
	.st4{fill:none;stroke:#67308F;stroke-width:0.9921;stroke-miterlimit:10;}
	.st5{fill:none;stroke:#000000;stroke-miterlimit:10;}
</style>
<defs>
</defs>
<g id="Normal_1_">
	<g id="Coordinates_2_">
		<path id="_x30_0_2_" class="st0" d="M0.08,228.66"/>
		<path id="_x30_1_2_" class="st1" d="M0,0"/>
		<path id="_x31_0_2_" class="st0" d="M710.61,228.66"/>
		<path id="IM_4_" class="st2" d="M511.66,223.83"/>
		<path id="MM_4_" class="st3" d="M284.29,223.83"/>
		<path id="OM_4_" class="st4" d="M85.34,223.83"/>
	</g>
	<g id="Marker_2_">
		<line id="IM_1_" class="st2" x1="511.66" y1="16.12" x2="511.66" y2="205.79"/>
		<line id="MM_1_" class="st3" x1="284.29" y1="16.12" x2="284.29" y2="205.79"/>
		<line id="OM_1_" class="st4" x1="85.34" y1="16.12" x2="85.34" y2="205.79"/>
	</g>
	<polyline class="st5" points="1.08,181.95 13.63,182.03 28.12,182.69 42.16,182.45 56.4,182.36 70.56,183.73 84.97,184.06 
		94.55,183.77 98.97,182.12 113.25,176.09 127.37,170.35 132.98,168.29 141.7,167.38 156.02,164.74 169.69,163.62 184.22,161.56 
		198.13,159.41 212.7,158.3 226.78,158.71 240.98,160.03 255.06,159.86 269.43,160.11 277.52,159.12 283.76,156.19 297.92,146.94 
		308.4,136.87 312.2,133.03 319.18,125.72 324.71,120.44 326.15,119.69 340.73,115.9 354.72,114.24 369.05,113.01 383.33,111.31 
		397.49,111.6 411.7,113.42 425.9,113.58 440.1,113.5 454.47,112.35 468.83,112.26 483.03,113.42 496.99,113.54 511.56,113.58 
		525.93,113.87 540.05,115.44 554.21,117.05 561.76,117.26 568.74,116.52 583.03,113.63 597.43,110.94 611.59,110.53 626.21,111.11 
		640.25,112.8 654.74,114.91 669.02,115.65 683.02,116.85 697.14,118.37 711.38,118.62 	"/>
</g>
</svg>
