<!-- Generator: Adobe Illustrator 25.0.0, SVG Export Plug-In  -->
<svg version="1.1" xmlns="http://www.w3.org/2000/svg" xmlns:xlink="http://www.w3.org/1999/xlink" x="0px" y="0px"
	 width="710.95px" height="228.66px" viewBox="0 0 710.95 228.66"
	 style="overflow:visible;enable-background:new 0 0 710.95 228.66;" xml:space="preserve">
<style type="text/css">
	.st0{fill:none;stroke:#4E4E4E;stroke-width:0.9921;stroke-miterlimit:10;}
	.st1{fill:none;stroke:#3DB54A;stroke-width:0.9921;stroke-miterlimit:10;}
	.st2{fill:none;stroke:#F79421;stroke-width:0.9921;stroke-miterlimit:10;}
	.st3{fill:none;stroke:#EC2227;stroke-width:0.9921;stroke-miterlimit:10;}
	.st4{fill:none;stroke:#67308F;stroke-width:0.9921;stroke-miterlimit:10;}
	.st5{fill:none;stroke:#000000;stroke-miterlimit:10;}
</style>
<defs>
</defs>
<g id="Normal_1_">
	<g id="Coordinates_2_">
		<path id="_x30_0_2_" class="st0" d="M0.08,228.66"/>
		<path id="_x30_1_2_" class="st1" d="M0,0"/>
		<path id="_x31_0_2_" class="st0" d="M710.61,228.66"/>
		<path id="IM_4_" class="st2" d="M511.66,218.83"/>
		<path id="MM_4_" class="st3" d="M284.29,218.83"/>
		<path id="OM_4_" class="st4" d="M85.34,218.83"/>
	</g>
	<g id="Marker_2_">
		<line id="IM_1_" class="st2" x1="511.66" y1="13.03" x2="511.66" y2="222.68"/>
		<line id="MM_1_" class="st3" x1="284.29" y1="13.03" x2="284.29" y2="222.68"/>
		<line id="OM_1_" class="st4" x1="85.34" y1="13.03" x2="85.34" y2="222.68"/>
	</g>
	<polyline class="st5" points="0.34,174.31 4.55,174.64 14.95,172.5 28.66,168.45 43.44,166.14 49.88,165.73 56.9,163.17 
		71.26,159.12 85.55,156.56 99.75,153.59 113.87,150.7 127.82,147.15 142.03,143.43 156.31,139.14 170.76,134.51 184.63,131.21 
		198.67,127.99 213.2,125.68 227.07,124.69 241.19,124.03 255.56,123.7 269.51,123.37 283.71,121.55 298.41,120.15 312.12,119.07 
		326.4,118.25 340.6,117.67 354.56,117.42 369.01,117.01 382.8,116.76 396.83,117.42 410.87,117.84 425.57,119.07 439.69,121.14 
		454.05,121.88 468.5,121.96 482.46,121.72 496.74,120.48 510.94,117.09 525.39,113.54 539.51,110.82 553.71,108.75 568.08,106.94 
		582.7,106.52 596.48,106.77 610.69,107.85 624.97,109.25 639.5,109.91 653.79,111.48 667.58,113.21 682.52,114.7 693.25,116.35 
		710.92,117.34 	"/>
</g>
</svg>
