<!-- Generator: Adobe Illustrator 25.0.0, SVG Export Plug-In  -->
<svg version="1.1" xmlns="http://www.w3.org/2000/svg" xmlns:xlink="http://www.w3.org/1999/xlink" x="0px" y="0px"
	 width="710.79px" height="228.66px" viewBox="0 0 710.79 228.66"
	 style="overflow:visible;enable-background:new 0 0 710.79 228.66;" xml:space="preserve">
<style type="text/css">
	.st0{fill:none;stroke:#4E4E4E;stroke-width:0.9921;stroke-miterlimit:10;}
	.st1{fill:none;stroke:#3DB54A;stroke-width:0.9921;stroke-miterlimit:10;}
	.st2{fill:none;stroke:#F79421;stroke-width:0.9921;stroke-miterlimit:10;}
	.st3{fill:none;stroke:#EC2227;stroke-width:0.9921;stroke-miterlimit:10;}
	.st4{fill:none;stroke:#67308F;stroke-width:0.9921;stroke-miterlimit:10;}
	.st5{fill:none;stroke:#000000;stroke-miterlimit:10;}
</style>
<defs>
</defs>
<g id="Normal_1_">
	<g id="Coordinates_2_">
		<path id="_x30_0_2_" class="st0" d="M0.26,228.66"/>
		<path id="_x30_1_2_" class="st1" d="M0.26,0"/>
		<path id="_x31_0_2_" class="st0" d="M710.79,228.66"/>
		<path id="IM_4_" class="st2" d="M511.84,218.83"/>
		<path id="MM_4_" class="st3" d="M284.48,218.83"/>
		<path id="OM_4_" class="st4" d="M85.53,218.83"/>
	</g>
	<g id="Marker_2_">
		<line id="IM_1_" class="st2" x1="510.52" y1="4.43" x2="510.52" y2="224.19"/>
		<line id="MM_1_" class="st3" x1="283.15" y1="4.93" x2="283.15" y2="224.68"/>
		<line id="OM_1_" class="st4" x1="85.36" y1="4.43" x2="85.36" y2="224.19"/>
	</g>
	<polyline class="st5" points="0.27,138.64 14.48,129.31 28.35,122.13 42.47,114.62 56.59,106.52 71.04,100.66 85.57,95.46 
		99.27,90.75 112.98,87.62 127.68,84.4 141.55,81.92 155.67,79.61 169.79,76.63 183.99,74.49 198.11,72.42 212.31,69.78 
		226.6,66.97 240.71,63.51 254.5,60.37 268.54,59.38 283.4,59.96 297.03,60.29 311.56,60.7 325.84,59.96 340.04,59.3 353.75,59.21 
		367.95,58.39 382.4,57.4 396.11,56.82 410.72,55.91 424.68,55 438.88,53.68 452.92,53.43 467.61,51.53 481.48,51.04 495.93,51.29 
		510.05,50.38 524.5,47.41 538.04,45.42 552.58,42.86 566.86,39.07 581.48,37.58 595.43,36.84 609.71,37.41 623.75,39.31 
		638.12,41.63 652.07,43.19 666.69,43.19 680.72,43.69 695.59,45.09 709.13,46.91 	"/>
</g>
</svg>
