<!-- Generator: Adobe Illustrator 25.0.0, SVG Export Plug-In  -->
<svg version="1.1" xmlns="http://www.w3.org/2000/svg" xmlns:xlink="http://www.w3.org/1999/xlink" x="0px" y="0px"
	 width="710.91px" height="228.66px" viewBox="0 0 710.91 228.66"
	 style="overflow:visible;enable-background:new 0 0 710.91 228.66;" xml:space="preserve">
<style type="text/css">
	.st0{fill:none;stroke:#4E4E4E;stroke-width:0.9921;stroke-miterlimit:10;}
	.st1{fill:none;stroke:#3DB54A;stroke-width:0.9921;stroke-miterlimit:10;}
	.st2{fill:none;stroke:#F79421;stroke-width:0.9921;stroke-miterlimit:10;}
	.st3{fill:none;stroke:#EC2227;stroke-width:0.9921;stroke-miterlimit:10;}
	.st4{fill:none;stroke:#67308F;stroke-width:0.9921;stroke-miterlimit:10;}
	.st5{fill:none;stroke:#000000;stroke-miterlimit:10;}
</style>
<defs>
</defs>
<g id="Normal_1_">
	<g id="Coordinates_2_">
		<path id="_x30_0_2_" class="st0" d="M0.38,228.66"/>
		<path id="_x30_1_2_" class="st1" d="M0.3,0"/>
		<path id="_x31_0_2_" class="st0" d="M710.91,228.66"/>
		<path id="IM_4_" class="st2" d="M511.96,223.83"/>
		<path id="MM_4_" class="st3" d="M284.59,223.83"/>
		<path id="OM_4_" class="st4" d="M85.64,223.83"/>
	</g>
	<g id="Marker_2_">
		<line id="IM_1_" class="st2" x1="511.96" y1="16.12" x2="511.96" y2="205.79"/>
		<line id="MM_1_" class="st3" x1="284.59" y1="16.12" x2="284.59" y2="205.79"/>
		<line id="OM_1_" class="st4" x1="85.64" y1="16.12" x2="85.64" y2="205.79"/>
	</g>
	<polyline class="st5" points="0.22,184.97 14.51,177.86 28.63,173.24 42.5,169.19 56.78,166.88 70.41,164.98 84.94,163.58 
		99.06,162.92 113.51,161.76 127.63,161.43 141.66,161.19 156.03,160.28 170.15,159.95 184.27,160.52 198.22,162.01 212.51,163.08 
		227.04,163.33 241.32,163.25 255.19,163.08 269.4,163.58 283.68,163.5 297.72,163.83 312.25,164.24 325.96,163.83 340.32,163.66 
		354.36,163.17 368.73,163.5 382.52,164.41 397.13,164.49 411.17,164.74 425.45,164.49 439.41,164.24 453.85,162.42 468.06,161.6 
		482.09,161.02 496.21,161.52 510.25,161.76 525.11,161.6 539.4,161.52 553.1,161.19 567.55,161.02 581.92,161.6 595.96,162.09 
		609.91,164.98 624.77,166.88 638.73,168.86 652.51,169.36 667.62,168.37 681.74,168.12 696.03,169.28 709.32,171.51 	"/>
</g>
</svg>
