<!-- Generator: Adobe Illustrator 25.0.0, SVG Export Plug-In  -->
<svg version="1.1" xmlns="http://www.w3.org/2000/svg" xmlns:xlink="http://www.w3.org/1999/xlink" x="0px" y="0px"
	 width="737.68px" height="202.47px" viewBox="0 0 737.68 202.47"
	 style="overflow:visible;enable-background:new 0 0 737.68 202.47;" xml:space="preserve">
<style type="text/css">
	.st0{fill:none;stroke:#4E4E4E;stroke-width:0.9921;stroke-miterlimit:10;}
	.st1{fill:none;stroke:#662D91;stroke-width:0.9921;stroke-miterlimit:10;}
	.st2{fill:none;stroke:#EC008C;stroke-width:0.9921;stroke-miterlimit:10;}
	.st3{fill:none;stroke:#ED1C24;stroke-width:0.9921;stroke-miterlimit:10;}
	.st4{fill:none;stroke:#F7941D;stroke-width:0.9921;stroke-miterlimit:10;}
	.st5{fill:none;stroke:#000000;stroke-miterlimit:10;}
</style>
<defs>
</defs>
<g id="Normal_1_">
	<g id="Coordinates_2_">
		<path class="st0" d="M737.5,202.47"/>
		<path class="st1" d="M0,202.47"/>
		<path id="M2_2_" class="st2" d="M653.69,192.64"/>
		<path id="M1_2_" class="st3" d="M511.58,192.64"/>
		<path id="IM_4_" class="st4" d="M454.74,192.64"/>
		<path id="OM_2_" class="st3" d="M255.79,192.64"/>
	</g>
	<g id="Marker_2_">
		<line id="CM2_2_" class="st2" x1="653.69" y1="0" x2="653.69" y2="192.64"/>
		<line id="CM1_2_" class="st3" x1="511.58" y1="0" x2="511.58" y2="192.64"/>
		<line id="IM_1_" class="st4" x1="454.74" y1="0" x2="454.74" y2="192.64"/>
		<line id="MM_2_" class="st3" x1="255.79" y1="0" x2="255.79" y2="192.64"/>
	</g>
	<polyline class="st5" points="0.42,161.75 14.62,160.6 28.91,160.35 42.86,160.68 57.06,161.26 71.18,161.42 85.39,160.02 
		99.59,159.36 113.71,158.53 127.91,157.54 141.86,156.22 156.23,154.16 170.43,152.67 184.55,150.85 198.67,148.29 212.95,144.91 
		227.16,142.68 237.73,139.05 241.36,139.13 250.61,137.89 255.56,137.06 269.51,135.16 283.88,131.7 298.08,128.72 312.2,126.74 
		326.07,124.18 340.52,121.46 354.72,118.73 368.84,116.09 383.05,114.52 396.59,113.86 408.39,112.05 411.37,110.56 425.16,104.2 
		439.69,97.18 454.3,87.94 467.84,79.68 477.09,76.21 482.05,73.24 496.41,62.92 510.61,55.82 524.49,52.02 539.27,49.46 
		553.05,47.06 567.42,42.85 581.95,39.14 595.99,36.91 610.19,35.34 624.15,36.25 638.68,37.98 653.46,38.56 667.16,40.46 
		681.53,43.35 695.57,46.32 710.43,52.76 722.73,59.04 731.82,64.73 737.35,69.52 	"/>
</g>
</svg>
