<!-- Generator: Adobe Illustrator 25.0.0, SVG Export Plug-In  -->
<svg version="1.1" xmlns="http://www.w3.org/2000/svg" xmlns:xlink="http://www.w3.org/1999/xlink" x="0px" y="0px"
	 width="710.61px" height="228.66px" viewBox="0 0 710.61 228.66"
	 style="overflow:visible;enable-background:new 0 0 710.61 228.66;" xml:space="preserve">
<style type="text/css">
	.st0{fill:none;stroke:#4E4E4E;stroke-width:0.9921;stroke-miterlimit:10;}
	.st1{fill:none;stroke:#3DB54A;stroke-width:0.9921;stroke-miterlimit:10;}
	.st2{fill:none;stroke:#F79421;stroke-width:0.9921;stroke-miterlimit:10;}
	.st3{fill:none;stroke:#EC2227;stroke-width:0.9921;stroke-miterlimit:10;}
	.st4{fill:none;stroke:#67308F;stroke-width:0.9921;stroke-miterlimit:10;}
	.st5{fill:none;stroke:#000000;stroke-miterlimit:10;}
</style>
<defs>
</defs>
<g id="Normal_1_">
	<g id="Coordinates_2_">
		<path id="_x31_0_2_" class="st0" d="M710.61,228.66"/>
		<path id="_x30_1_2_" class="st1" d="M0,0"/>
		<path id="_x30_0_2_" class="st0" d="M0.08,228.66"/>
		<path id="IM_4_" class="st2" d="M511.66,217.83"/>
		<path id="MM_4_" class="st3" d="M284.29,217.83"/>
		<path id="OM_4_" class="st4" d="M85.34,217.83"/>
	</g>
	<g id="Marker_2_">
		<line id="IM_1_" class="st2" x1="511.66" y1="16.12" x2="511.66" y2="209.28"/>
		<line id="MM_1_" class="st3" x1="284.29" y1="16.12" x2="284.29" y2="209.28"/>
		<line id="OM_1_" class="st4" x1="85.34" y1="16.12" x2="85.34" y2="209.28"/>
	</g>
	<polyline class="st5" points="0.5,57.64 14.6,71.57 29.02,85.5 35.07,91.22 43.16,97.88 50.49,102.72 57.31,106.41 71.18,113.29 
		78.06,116.54 85.77,118.52 91.33,119.79 99.7,119.84 113.95,119.18 127.99,115.88 142.08,111.59 156.56,108.06 170.65,104.65 
		184.74,100.8 198.72,97.44 207.53,95.4 213.2,94.63 227.4,92.49 241.66,90.67 255.42,88.14 269.57,85.83 283.99,83.35 
		298.08,81.31 306.06,79.94 312.12,78.5 326.26,73.61 340.74,70.25 354.89,67.28 368.98,64.85 383.02,62.27 397.05,59.79 
		411.14,56.32 425.62,52.52 439.88,48.95 454.25,45.53 468.17,43 482.48,39.48 496.63,37.33 510.89,36.72 525.09,37.61 
		539.29,38.76 553.55,41.4 567.81,44.71 582.01,48.61 596.32,53.46 610.52,57.48 624.78,60.61 639.25,60.56 653.51,62.6 
		667.66,63.59 681.92,65.57 696.17,68.6 702.89,70.85 709.77,71.07 	"/>
</g>
</svg>
