<!-- Generator: Adobe Illustrator 25.0.0, SVG Export Plug-In  -->
<svg version="1.1" xmlns="http://www.w3.org/2000/svg" xmlns:xlink="http://www.w3.org/1999/xlink" x="0px" y="0px"
	 width="738.34px" height="202.47px" viewBox="0 0 738.34 202.47"
	 style="overflow:visible;enable-background:new 0 0 738.34 202.47;" xml:space="preserve">
<style type="text/css">
	.st0{fill:none;stroke:#4E4E4E;stroke-width:0.9921;stroke-miterlimit:10;}
	.st1{fill:none;stroke:#662D91;stroke-width:0.9921;stroke-miterlimit:10;}
	.st2{fill:none;stroke:#EC008C;stroke-width:0.9921;stroke-miterlimit:10;}
	.st3{fill:none;stroke:#ED1C24;stroke-width:0.9921;stroke-miterlimit:10;}
	.st4{fill:none;stroke:#F7941D;stroke-width:0.9921;stroke-miterlimit:10;}
	.st5{fill:none;stroke:#000000;stroke-miterlimit:10;}
</style>
<defs>
</defs>
<g id="Normal_1_">
	<g id="Coordinates_2_">
		<path class="st0" d="M737.62,202.47"/>
		<path class="st1" d="M0.12,202.47"/>
		<path id="M2_2_" class="st2" d="M653.81,192.64"/>
		<path id="M1_2_" class="st3" d="M511.7,192.64"/>
		<path id="IM_4_" class="st4" d="M454.86,192.64"/>
		<path id="OM_2_" class="st3" d="M255.91,192.64"/>
	</g>
	<g id="Marker_2_">
		<line id="CM2_2_" class="st2" x1="653.81" y1="0" x2="653.81" y2="192.64"/>
		<line id="CM1_2_" class="st3" x1="511.7" y1="0" x2="511.7" y2="192.64"/>
		<line id="IM_1_" class="st4" x1="454.86" y1="0" x2="454.86" y2="192.64"/>
		<line id="MM_2_" class="st3" x1="255.91" y1="0" x2="255.91" y2="192.64"/>
	</g>
	<polyline class="st5" points="0.05,88.1 14.42,89.5 28.78,88.35 42.82,86.04 57.6,83.39 71.14,79.43 85.84,76.05 99.96,73.24 
		114.41,70.68 128.44,68.45 143.14,65.31 157.09,62.83 171.21,60.69 185.33,58.29 199.7,55.4 214.23,53.01 228.35,51.11 
		242.47,48.96 256.42,45.41 270.79,40.87 284.75,38.15 299.11,34.84 313.64,32.37 327.6,30.63 342.21,29.48 355.92,28.4 
		370.62,26.09 384.41,23.7 398.69,20.97 406.7,18.91 412.81,18.5 427.18,18.33 441.46,17.92 455.41,19.49 470.44,23.04 
		483.98,26.67 498.1,31.21 512.3,35.42 526.42,39.8 540.87,39.88 554.83,38.89 569.03,36.33 579.19,32.7 583.31,30.96 597.6,25.76 
		611.63,20.81 626.08,13.21 640.2,7.18 653.83,3.63 668.52,2.39 682.64,5.12 688.51,7.6 696.6,9.17 711.05,11.06 719.63,13.38 
		723.68,15.44 738.21,19.24 	"/>
</g>
</svg>
