<!-- Generator: Adobe Illustrator 25.0.0, SVG Export Plug-In  -->
<svg version="1.1" xmlns="http://www.w3.org/2000/svg" xmlns:xlink="http://www.w3.org/1999/xlink" x="0px" y="0px"
	 width="710.53px" height="228.66px" viewBox="0 0 710.53 228.66"
	 style="overflow:visible;enable-background:new 0 0 710.53 228.66;" xml:space="preserve">
<style type="text/css">
	.st0{fill:none;stroke:#4E4E4E;stroke-width:0.9921;stroke-miterlimit:10;}
	.st1{fill:none;stroke:#3DB54A;stroke-width:0.9921;stroke-miterlimit:10;}
	.st2{fill:none;stroke:#F79421;stroke-width:0.9921;stroke-miterlimit:10;}
	.st3{fill:none;stroke:#EC2227;stroke-width:0.9921;stroke-miterlimit:10;}
	.st4{fill:none;stroke:#67308F;stroke-width:0.9921;stroke-miterlimit:10;}
	.st5{fill:none;stroke:#000000;stroke-miterlimit:10;}
</style>
<defs>
</defs>
<g id="normal_1_">
	<g id="Coordinates_2_">
		<path id="_x30_0_2_" class="st0" d="M0,228.66"/>
		<path id="_x30_1_2_" class="st1" d="M0,0"/>
		<path id="_x31_0_2_" class="st0" d="M710.53,228.66"/>
		<path id="IM_4_" class="st2" d="M511.58,218.83"/>
		<path id="MM_4_" class="st3" d="M284.21,218.83"/>
		<path id="OM_4_" class="st4" d="M85.26,218.83"/>
	</g>
	<g id="Marker_2_">
		<line id="IM_1_" class="st2" x1="511.58" y1="4.6" x2="511.58" y2="224.35"/>
		<line id="MM_1_" class="st3" x1="284.21" y1="4.6" x2="284.21" y2="224.35"/>
		<line id="OM_1_" class="st4" x1="85.26" y1="4.6" x2="85.26" y2="224.35"/>
	</g>
	<polyline class="st5" points="51.95,93.4 57.45,93.4 71.54,93.84 86.4,94 100.39,93.23 114.64,91.08 128.95,89.98 143.27,89.05 
		157.47,87.34 171.84,84.75 185.71,83.32 199.91,82.22 214.5,81.45 228.7,79.69 243.01,77.43 256.99,75.67 271.36,72.53 
		285.56,70.83 299.76,67.36 314.02,63.62 328.06,58.77 342.48,55.19 356.51,52.17 370.88,47.05 385.03,41.93 389.16,40.11 
		399.01,39.07 413.32,39.56 427.3,40.11 441.5,41.32 456.26,42.2 470.02,41.98 484,41.98 498.42,41.71 512.68,40.61 526.77,39.56 
		541.08,37.97 555.28,36.48 569.32,36.26 575.87,34.77 583.47,32.02 591.45,29.1 598,25.58 601.36,23.43 611.87,17.16 622.11,13.47 
		626.29,11.6 632.79,10.88 640.38,11.54 646.44,13.69 654.2,16.66 665.38,23.21 668.51,25.91 678.31,34.72 680.29,37.41 	"/>
</g>
</svg>
