<!-- Generator: Adobe Illustrator 25.0.0, SVG Export Plug-In  -->
<svg version="1.1" xmlns="http://www.w3.org/2000/svg" xmlns:xlink="http://www.w3.org/1999/xlink" x="0px" y="0px"
	 width="711.37px" height="228.66px" viewBox="0 0 711.37 228.66"
	 style="overflow:visible;enable-background:new 0 0 711.37 228.66;" xml:space="preserve">
<style type="text/css">
	.st0{fill:none;stroke:#4E4E4E;stroke-width:0.9921;stroke-miterlimit:10;}
	.st1{fill:none;stroke:#3DB54A;stroke-width:0.9921;stroke-miterlimit:10;}
	.st2{fill:none;stroke:#F79421;stroke-width:0.9921;stroke-miterlimit:10;}
	.st3{fill:none;stroke:#EC2227;stroke-width:0.9921;stroke-miterlimit:10;}
	.st4{fill:none;stroke:#67308F;stroke-width:0.9921;stroke-miterlimit:10;}
	.st5{fill:none;stroke:#000000;stroke-miterlimit:10;}
</style>
<defs>
</defs>
<g>
	<g id="Coordinates_2_">
		<path id="_x30_0_2_" class="st0" d="M0.08,228.66"/>
		<path id="_x30_1_2_" class="st1" d="M0,0"/>
		<path id="_x31_0_2_" class="st0" d="M710.61,228.66"/>
		<path id="IM_4_" class="st2" d="M511.66,218.83"/>
		<path id="MM_4_" class="st3" d="M284.29,218.83"/>
		<path id="OM_4_" class="st4" d="M85.34,218.83"/>
	</g>
	<g id="Marker_2_">
		<line id="IM_1_" class="st2" x1="511.66" y1="13.03" x2="511.66" y2="222.68"/>
		<line id="MM_1_" class="st3" x1="284.29" y1="13.03" x2="284.29" y2="222.68"/>
		<line id="OM_1_" class="st4" x1="85.34" y1="13.03" x2="85.34" y2="222.68"/>
	</g>
	<polyline class="st5" points="85.55,114.62 90.67,113.21 99.83,112.8 113.95,108.67 128.15,104.05 142.36,101.07 157.05,98.1 
		171.01,93.64 185.54,87.62 199.41,82.83 208.08,80.02 214.19,77.79 228.39,72.01 241.03,68.21 256.96,64.83 270.75,61.61 
		285.28,55.58 299.57,51.62 313.93,47.32 327.39,42.37 341.92,37.25 355.96,34.03 370.58,32.05 384.37,27.84 390.97,26.68 
		398.9,27.51 412.93,32.05 427.14,36.59 441.42,39.73 455.29,43.94 469.74,46.99 483.86,48.15 498.23,48.81 512.35,49.06 
		526.47,49.14 540.75,48.64 554.95,48.56 568.99,47.9 583.6,46.99 597.56,46 611.92,46.66 625.8,46.66 640.08,47.65 654.45,50.29 
		668.57,54.67 682.6,59.79 696.56,66.73 711.09,76.47 	"/>
</g>
</svg>
