<!-- Generator: Adobe Illustrator 25.0.0, SVG Export Plug-In  -->
<svg version="1.1" xmlns="http://www.w3.org/2000/svg" xmlns:xlink="http://www.w3.org/1999/xlink" x="0px" y="0px"
	 width="710.82px" height="228.66px" viewBox="0 0 710.82 228.66"
	 style="overflow:visible;enable-background:new 0 0 710.82 228.66;" xml:space="preserve">
<style type="text/css">
	.st0{fill:none;stroke:#4E4E4E;stroke-width:0.9921;stroke-miterlimit:10;}
	.st1{fill:none;stroke:#3DB54A;stroke-width:0.9921;stroke-miterlimit:10;}
	.st2{fill:none;stroke:#F79421;stroke-width:0.9921;stroke-miterlimit:10;}
	.st3{fill:none;stroke:#EC2227;stroke-width:0.9921;stroke-miterlimit:10;}
	.st4{fill:none;stroke:#67308F;stroke-width:0.9921;stroke-miterlimit:10;}
	.st5{fill:none;stroke:#000000;stroke-miterlimit:10;}
</style>
<defs>
</defs>
<g id="Normal_1_">
	<g id="Coordinates_2_">
		<path id="_x31_0_2_" class="st0" d="M710.82,228.66"/>
		<path id="_x30_1_2_" class="st1" d="M0.21,0"/>
		<path id="_x30_0_2_" class="st0" d="M0.29,228.66"/>
		<path id="IM_4_" class="st2" d="M511.87,217.83"/>
		<path id="MM_4_" class="st3" d="M284.5,217.83"/>
		<path id="OM_4_" class="st4" d="M85.55,217.83"/>
	</g>
	<g id="Marker_2_">
		<line id="IM_1_" class="st2" x1="511.87" y1="16.12" x2="511.87" y2="209.28"/>
		<line id="MM_1_" class="st3" x1="284.5" y1="16.12" x2="284.5" y2="209.28"/>
		<line id="OM_1_" class="st4" x1="85.55" y1="16.12" x2="85.55" y2="209.28"/>
	</g>
	<polyline class="st5" points="0.05,114.28 8.75,113.4 14.42,113.35 28.84,115.83 43.21,115.5 57.24,115.22 71.83,114.67 
		85.7,111.92 99.9,110.71 114.55,111.42 128.53,111.64 142.89,111.92 157.15,109.61 171.35,106.69 185.44,105.26 199.59,102.28 
		214.4,97.94 228.44,94.85 242.53,93.09 256.78,91.77 270.88,88.96 284.97,85.66 299.11,84.78 313.26,84.56 327.41,83.73 
		341.88,82.8 356.14,82.91 370.12,81.97 384.16,80.16 398.47,77.95 412.67,75.81 426.66,74.43 441.13,73.44 455.39,73.11 
		469.65,72.28 483.74,71.79 497.88,70.85 512.09,68.16 526.29,66.78 540.32,64.03 554.58,60.34 568.73,54.67 583.04,50.76 
		590.14,48.67 597.13,48.61 604.67,48.45 613.1,44.87 618.82,42.34 625.43,45.26 639.3,53.9 645.57,58.58 653.99,65.07 
		664.12,73.83 669.41,74.65 678.82,79.66 682.18,82.14 694.29,91.17 710.42,105.75 	"/>
</g>
</svg>
