<!-- Generator: Adobe Illustrator 25.0.0, SVG Export Plug-In  -->
<svg version="1.1" xmlns="http://www.w3.org/2000/svg" xmlns:xlink="http://www.w3.org/1999/xlink" x="0px" y="0px"
	 width="711.41px" height="228.66px" viewBox="0 0 711.41 228.66"
	 style="overflow:visible;enable-background:new 0 0 711.41 228.66;" xml:space="preserve">
<style type="text/css">
	.st0{fill:none;stroke:#4E4E4E;stroke-width:0.9921;stroke-miterlimit:10;}
	.st1{fill:none;stroke:#3DB54A;stroke-width:0.9921;stroke-miterlimit:10;}
	.st2{fill:none;stroke:#F79421;stroke-width:0.9921;stroke-miterlimit:10;}
	.st3{fill:none;stroke:#EC2227;stroke-width:0.9921;stroke-miterlimit:10;}
	.st4{fill:none;stroke:#67308F;stroke-width:0.9921;stroke-miterlimit:10;}
	.st5{fill:none;stroke:#000000;stroke-miterlimit:10;}
</style>
<defs>
</defs>
<g id="Normal_1_">
	<g id="Coordinates_2_">
		<path id="_x30_0_2_" class="st0" d="M0.08,228.66"/>
		<path id="_x30_1_2_" class="st1" d="M0,0"/>
		<path id="_x31_0_2_" class="st0" d="M710.61,228.66"/>
		<path id="IM_4_" class="st2" d="M511.66,223.83"/>
		<path id="MM_4_" class="st3" d="M284.29,223.83"/>
		<path id="OM_4_" class="st4" d="M85.34,223.83"/>
	</g>
	<g id="Marker_2_">
		<line id="IM_1_" class="st2" x1="511.66" y1="16.12" x2="511.66" y2="205.79"/>
		<line id="MM_1_" class="st3" x1="284.29" y1="16.12" x2="284.29" y2="205.79"/>
		<line id="OM_1_" class="st4" x1="85.34" y1="16.12" x2="85.34" y2="205.79"/>
	</g>
	<polyline class="st5" points="0.23,114.7 14.6,113.43 28.74,111.23 43.05,105.23 46.96,103.58 57.31,96.64 62.1,93.56 65.79,92.08 
		71.57,90.75 78.83,88.61 85.33,87.67 100.41,87.51 114.34,88.94 128.48,90.2 143.13,92.08 157.16,94.06 171.53,95.05 185.68,96.37 
		199.71,98.3 214.19,101.54 220.8,103.19 228.45,105.67 242.59,109.86 252.01,112.5 256.63,113.27 271.05,113.1 285.15,113.21 
		299.29,112.61 313.66,111.56 328.03,111.07 342.34,109.14 356.43,107.76 370.52,107.76 384.56,107.65 399.03,106.28 413.02,104.46 
		427.05,104.35 441.48,102.48 455.62,99.84 469.93,96.92 483.42,96.59 498.23,93.34 510.45,90.7 526.69,91.63 554.87,92.02 
		569.07,91.14 583.44,90.7 597.86,92.68 611.79,93.29 626.1,93.89 639.81,95.65 654.23,98.85 668.48,101.93 682.47,104.57 
		696.72,108.31 711.25,113.05 	"/>
</g>
</svg>
