<!-- Generator: Adobe Illustrator 25.0.0, SVG Export Plug-In  -->
<svg version="1.1" xmlns="http://www.w3.org/2000/svg" xmlns:xlink="http://www.w3.org/1999/xlink" x="0px" y="0px"
	 width="710.83px" height="228.66px" viewBox="0 0 710.83 228.66"
	 style="overflow:visible;enable-background:new 0 0 710.83 228.66;" xml:space="preserve">
<style type="text/css">
	.st0{fill:none;stroke:#4E4E4E;stroke-width:0.9921;stroke-miterlimit:10;}
	.st1{fill:none;stroke:#3DB54A;stroke-width:0.9921;stroke-miterlimit:10;}
	.st2{fill:none;stroke:#F79421;stroke-width:0.9921;stroke-miterlimit:10;}
	.st3{fill:none;stroke:#EC2227;stroke-width:0.9921;stroke-miterlimit:10;}
	.st4{fill:none;stroke:#67308F;stroke-width:0.9921;stroke-miterlimit:10;}
	.st5{fill:none;stroke:#000000;stroke-miterlimit:10;}
</style>
<defs>
</defs>
<g id="Normal_1_">
	<g id="Coordinates_2_">
		<path id="_x30_0_2_" class="st0" d="M0.08,228.66"/>
		<path id="_x30_1_2_" class="st1" d="M0,0"/>
		<path id="_x31_0_2_" class="st0" d="M710.61,228.66"/>
		<path id="IM_4_" class="st2" d="M511.66,223.83"/>
		<path id="MM_4_" class="st3" d="M284.29,223.83"/>
		<path id="OM_4_" class="st4" d="M85.34,223.83"/>
	</g>
	<g id="Marker_2_">
		<line id="IM_1_" class="st2" x1="511.66" y1="16.12" x2="511.66" y2="205.79"/>
		<line id="MM_1_" class="st3" x1="284.29" y1="16.12" x2="284.29" y2="205.79"/>
		<line id="OM_1_" class="st4" x1="85.34" y1="16.12" x2="85.34" y2="205.79"/>
	</g>
	<polyline class="st5" points="2.87,174.97 14.65,174.04 16.58,173.76 28.63,176.96 43,179.93 50.49,181.03 57.15,181.08 
		71.4,180.31 85.05,179.71 99.37,177.73 113.62,174.42 127.55,171.95 142.03,170.68 156.06,169.8 170.43,168.86 184.52,168.7 
		198.94,169.25 212.93,170.02 227.24,170.68 241.44,171.67 255.37,171.73 269.57,170.02 284.15,169.25 297.81,169.47 312.23,169.41 
		326.43,169.36 340.8,168.53 354.56,167.82 368.65,166.83 383.13,165.4 397.22,163.8 411.31,161.82 425.62,159.89 439.71,158.63 
		454.03,158.41 468.23,158.08 482.48,158.08 496.63,158.41 511.11,159.12 525.25,161.21 532.74,162.64 539.35,162.92 553.44,164.08 
		568.08,165.12 582.34,166.17 596.7,166.66 610.85,166.55 625.27,165.89 639.36,166.06 653.51,166.99 667.66,168.31 682.41,170.13 
		696.39,170.63 710.81,171.18 	"/>
</g>
</svg>
