<!-- Generator: Adobe Illustrator 25.0.0, SVG Export Plug-In  -->
<svg version="1.1" xmlns="http://www.w3.org/2000/svg" xmlns:xlink="http://www.w3.org/1999/xlink" x="0px" y="0px"
	 width="710.61px" height="228.66px" viewBox="0 0 710.61 228.66"
	 style="overflow:visible;enable-background:new 0 0 710.61 228.66;" xml:space="preserve">
<style type="text/css">
	.st0{fill:none;stroke:#4E4E4E;stroke-width:0.9921;stroke-miterlimit:10;}
	.st1{fill:none;stroke:#3DB54A;stroke-width:0.9921;stroke-miterlimit:10;}
	.st2{fill:none;stroke:#F79421;stroke-width:0.9921;stroke-miterlimit:10;}
	.st3{fill:none;stroke:#EC2227;stroke-width:0.9921;stroke-miterlimit:10;}
	.st4{fill:none;stroke:#67308F;stroke-width:0.9921;stroke-miterlimit:10;}
	.st5{fill:none;stroke:#000000;stroke-miterlimit:10;}
</style>
<defs>
</defs>
<g id="Normal_1_">
	<g id="Coordinates_2_">
		<path id="_x30_0_2_" class="st0" d="M0.08,228.66"/>
		<path id="_x30_1_2_" class="st1" d="M0,0"/>
		<path id="_x31_0_2_" class="st0" d="M710.61,228.66"/>
		<path id="IM_4_" class="st2" d="M511.66,218.83"/>
		<path id="MM_4_" class="st3" d="M284.29,218.83"/>
		<path id="OM_4_" class="st4" d="M85.34,218.83"/>
	</g>
	<g id="Marker_2_">
		<line id="IM_1_" class="st2" x1="511.66" y1="13.03" x2="511.66" y2="222.68"/>
		<line id="MM_1_" class="st3" x1="284.29" y1="13.03" x2="284.29" y2="222.68"/>
		<line id="OM_1_" class="st4" x1="85.34" y1="13.03" x2="85.34" y2="222.68"/>
	</g>
	<polyline class="st5" points="0.89,147.97 7.71,145.99 14.54,141.7 24.78,136.74 28.96,134.1 35.46,130.25 42.72,125.96 
		49.33,123.53 57.04,121.44 71.13,117.26 85.44,112.19 99.42,107.68 113.51,101.96 127.71,97 142.14,91.5 156.01,86.54 
		170.54,81.59 184.52,77.29 198.61,71.9 212.93,66.84 227.35,61.66 241.22,59.24 255.09,57.15 269.62,55.28 283.27,53.96 
		298.03,53.52 312.45,55.94 326.21,58.14 340.74,62.21 355.05,65.74 369.03,69.37 383.24,73.88 397.66,78.95 411.75,84.45 
		425.73,90.95 440.37,97.88 454.36,104.05 460.3,106.69 468.89,109.66 482.65,112.74 490.58,114.18 496.85,114.4 505.33,113.85 
		511.6,111.86 517.77,109.33 525.36,106.03 532.08,103.5 539.35,98.98 553.99,88.85 568.3,79.5 575.02,77.85 582.72,78.29 
		588.67,80.05 597.25,83.68 611.13,91.5 625.44,99.53 639.31,106.14 653.62,109.88 667.6,113.07 682.47,116.38 696.67,116.93 	"/>
</g>
</svg>
