<!-- Generator: Adobe Illustrator 25.0.0, SVG Export Plug-In  -->
<svg version="1.1" xmlns="http://www.w3.org/2000/svg" xmlns:xlink="http://www.w3.org/1999/xlink" x="0px" y="0px"
	 width="710.61px" height="228.66px" viewBox="0 0 710.61 228.66"
	 style="overflow:visible;enable-background:new 0 0 710.61 228.66;" xml:space="preserve">
<style type="text/css">
	.st0{fill:none;stroke:#4E4E4E;stroke-width:0.9921;stroke-miterlimit:10;}
	.st1{fill:none;stroke:#3DB54A;stroke-width:0.9921;stroke-miterlimit:10;}
	.st2{fill:none;stroke:#F79421;stroke-width:0.9921;stroke-miterlimit:10;}
	.st3{fill:none;stroke:#EC2227;stroke-width:0.9921;stroke-miterlimit:10;}
	.st4{fill:none;stroke:#67308F;stroke-width:0.9921;stroke-miterlimit:10;}
	.st5{fill:none;stroke:#000000;stroke-miterlimit:10;}
</style>
<defs>
</defs>
<g id="Normal_1_">
	<g id="Coordinates_2_">
		<path id="_x31_0_2_" class="st0" d="M710.61,228.66"/>
		<path id="_x30_1_2_" class="st1" d="M0,0"/>
		<path id="_x30_0_2_" class="st0" d="M0.08,228.66"/>
		<path id="IM_4_" class="st2" d="M511.66,217.83"/>
		<path id="MM_4_" class="st3" d="M284.29,217.83"/>
		<path id="OM_4_" class="st4" d="M85.34,217.83"/>
	</g>
	<g id="Marker_2_">
		<line id="IM_1_" class="st2" x1="511.66" y1="16.12" x2="511.66" y2="209.28"/>
		<line id="MM_1_" class="st3" x1="284.29" y1="16.12" x2="284.29" y2="209.28"/>
		<line id="OM_1_" class="st4" x1="85.34" y1="16.12" x2="85.34" y2="209.28"/>
	</g>
	<polyline class="st5" points="1.38,151.88 7.11,143.57 14.21,138.94 28.36,130.25 42.72,124.63 56.54,118.25 70.69,111.04 
		85,104.27 99.09,96.83 113.46,90.28 127.27,84.45 141.48,78.45 155.79,73.55 169.93,67.66 184.08,62.27 198.06,58.19 212.48,54.56 
		226.63,51.04 240.89,47.13 254.7,44.38 268.96,40.19 283.33,36.83 297.37,34.14 311.57,32.76 325.88,32.49 339.86,32.71 
		354.12,32.21 368.15,31.72 382.47,30.89 396.5,32.54 410.7,33.97 425.13,34.91 439.11,35.13 453.37,34.85 467.62,34.8 
		481.71,35.02 496.08,34.52 510.01,33.86 524.32,33.2 538.58,32.16 553.33,32.21 567.31,32.27 574.91,31.17 581.35,29.46 
		587.35,26.54 595.93,21.2 599.73,19.88 602.59,19.94 609.86,23.51 616.96,29.73 624.34,39.48 638.48,57.26 652.8,73.99 
		667.16,86.21 681.58,98.27 695.62,110.6 709.88,123.48 	"/>
</g>
</svg>
