<!-- Generator: Adobe Illustrator 25.0.0, SVG Export Plug-In  -->
<svg version="1.1" xmlns="http://www.w3.org/2000/svg" xmlns:xlink="http://www.w3.org/1999/xlink" x="0px" y="0px"
	 width="711.67px" height="228.66px" viewBox="0 0 711.67 228.66"
	 style="overflow:visible;enable-background:new 0 0 711.67 228.66;" xml:space="preserve">
<style type="text/css">
	.st0{fill:none;stroke:#4E4E4E;stroke-width:0.9921;stroke-miterlimit:10;}
	.st1{fill:none;stroke:#3DB54A;stroke-width:0.9921;stroke-miterlimit:10;}
	.st2{fill:none;stroke:#F79421;stroke-width:0.9921;stroke-miterlimit:10;}
	.st3{fill:none;stroke:#EC2227;stroke-width:0.9921;stroke-miterlimit:10;}
	.st4{fill:none;stroke:#67308F;stroke-width:0.9921;stroke-miterlimit:10;}
	.st5{fill:none;stroke:#000000;stroke-miterlimit:10;}
</style>
<defs>
</defs>
<g id="Normal_1_">
	<g id="Coordinates_2_">
		<path id="_x30_0_2_" class="st0" d="M0.79,228.66"/>
		<path id="_x30_1_2_" class="st1" d="M0.79,0"/>
		<path id="_x31_0_2_" class="st0" d="M711.32,228.66"/>
		<path id="IM_4_" class="st2" d="M512.37,218.83"/>
		<path id="MM_4_" class="st3" d="M285.01,218.83"/>
		<path id="OM_4_" class="st4" d="M86.06,218.83"/>
	</g>
	<g id="Marker_2_">
		<line id="IM_1_" class="st2" x1="512.37" y1="4.6" x2="512.37" y2="224.35"/>
		<line id="MM_1_" class="st3" x1="285.01" y1="4.6" x2="285.01" y2="224.35"/>
		<line id="OM_1_" class="st4" x1="86.06" y1="4.6" x2="86.06" y2="224.35"/>
	</g>
	<polyline class="st5" points="0.14,102.64 7,104.71 14.1,105.2 28.3,105.86 35.24,105.78 42.5,105.2 50.43,104.79 56.95,104.21 
		70.91,102.56 75.45,101.74 85.44,98.68 99.39,96.29 113.51,93.07 127.8,89.6 141.75,85.47 156.12,79.03 170.15,73.99 184.77,68.38 
		198.39,63.26 213.17,57.31 227.29,52.86 241.24,48.23 254.95,45.18 261.47,42.78 269.73,41.21 277.82,40.47 283.68,39.97 
		293.02,40.64 297.89,41.21 312.09,42.7 326.29,45.92 340.74,50.38 354.78,56.74 368.98,63.84 383.01,71.35 397.55,79.03 
		411.42,84.81 421.16,87.62 425.7,87.7 431.65,86.63 440.24,84.97 454.44,81.67 468.72,77.38 482.68,73.25 497.12,69.95 
		512.15,67.47 517.93,66.48 525.69,66.4 539.57,66.48 554.1,68.87 568.13,72.34 582.75,75.23 596.79,79.86 602.4,81.59 
		610.66,85.06 618.17,86.79 625.02,86.63 639.72,80.02 653.92,73.91 668.79,67.06 673.57,66.64 682.57,67.63 688.6,68.96 
		696.78,72.67 702.14,75.64 706.6,78.95 711.31,83.82 	"/>
</g>
</svg>
