<!-- Generator: Adobe Illustrator 25.0.0, SVG Export Plug-In  -->
<svg version="1.1" xmlns="http://www.w3.org/2000/svg" xmlns:xlink="http://www.w3.org/1999/xlink" x="0px" y="0px"
	 width="738.06px" height="202.47px" viewBox="0 0 738.06 202.47"
	 style="overflow:visible;enable-background:new 0 0 738.06 202.47;" xml:space="preserve">
<style type="text/css">
	.st0{fill:none;stroke:#4E4E4E;stroke-width:0.9921;stroke-miterlimit:10;}
	.st1{fill:none;stroke:#662D91;stroke-width:0.9921;stroke-miterlimit:10;}
	.st2{fill:none;stroke:#EC008C;stroke-width:0.9921;stroke-miterlimit:10;}
	.st3{fill:none;stroke:#ED1C24;stroke-width:0.9921;stroke-miterlimit:10;}
	.st4{fill:none;stroke:#F7941D;stroke-width:0.9921;stroke-miterlimit:10;}
	.st5{fill:none;stroke:#000000;stroke-miterlimit:10;}
</style>
<defs>
</defs>
<g id="Normal_1_">
	<g id="Coordinates_2_">
		<path class="st0" d="M737.5,202.47"/>
		<path class="st1" d="M0,202.47"/>
		<path id="M2_2_" class="st2" d="M653.69,192.64"/>
		<path id="M1_2_" class="st3" d="M511.58,192.64"/>
		<path id="IM_4_" class="st4" d="M454.74,192.64"/>
		<path id="OM_2_" class="st3" d="M255.79,192.64"/>
	</g>
	<g id="Marker_2_">
		<line id="CM2_2_" class="st2" x1="653.69" y1="0" x2="653.69" y2="192.64"/>
		<line id="CM1_2_" class="st3" x1="511.58" y1="0" x2="511.58" y2="192.64"/>
		<line id="IM_1_" class="st4" x1="454.74" y1="0" x2="454.74" y2="192.64"/>
		<line id="MM_2_" class="st3" x1="255.79" y1="0" x2="255.79" y2="192.64"/>
	</g>
	<polyline class="st5" points="0.42,155.23 14.46,156.05 28.66,156.05 43.19,156.05 56.9,156.05 71.27,156.05 85.47,156.05 
		99.67,156.05 114.2,156.05 128.07,157.71 142.28,158.7 155.98,159.69 170.02,159.36 184.39,159.94 198.84,161.09 213.28,161.42 
		227.24,161.17 241.28,159.11 253.83,157.21 262.66,152.26 269.6,147.55 283.8,136.57 297.92,123.11 312.04,109.65 326.4,97.6 
		340.52,85.54 354.64,73.73 369.09,61.27 382.55,47.89 388.74,43.02 397.33,36.91 402.78,33.44 410.95,28.82 425.57,22.13 
		439.61,19.32 448.61,19.32 453.97,20.56 458.84,22.05 464.87,26.59 468.26,30.3 471.23,33.52 478.33,43.02 482.71,50.7 
		490.72,65.31 496.33,74.31 502.19,80.42 510.86,86.37 519.28,89.75 524.98,90.91 529.19,90.41 539.43,87.03 553.8,76.71 
		568.25,65.06 582.28,56.23 586.16,54.5 596.65,50.04 603.42,48.3 610.77,46.65 625.3,43.02 639.42,40.13 653.62,36.58 
		667.83,32.78 682.11,30.47 696.15,29.06 710.68,29.81 723.64,32.28 737.93,36.17 	"/>
</g>
</svg>
