<!-- Generator: Adobe Illustrator 25.0.0, SVG Export Plug-In  -->
<svg version="1.1" xmlns="http://www.w3.org/2000/svg" xmlns:xlink="http://www.w3.org/1999/xlink" x="0px" y="0px" width="737.5px"
	 height="202.47px" viewBox="0 0 737.5 202.47" style="overflow:visible;enable-background:new 0 0 737.5 202.47;"
	 xml:space="preserve">
<style type="text/css">
	.st0{fill:none;stroke:#4E4E4E;stroke-width:0.9921;stroke-miterlimit:10;}
	.st1{fill:none;stroke:#662D91;stroke-width:0.9921;stroke-miterlimit:10;}
	.st2{fill:none;stroke:#EC008C;stroke-width:0.9921;stroke-miterlimit:10;}
	.st3{fill:none;stroke:#ED1C24;stroke-width:0.9921;stroke-miterlimit:10;}
	.st4{fill:none;stroke:#F7941D;stroke-width:0.9921;stroke-miterlimit:10;}
	.st5{fill:none;stroke:#000000;stroke-miterlimit:10;}
</style>
<defs>
</defs>
<g id="Normal_1_">
	<g id="Coordinates_2_">
		<path class="st0" d="M737.5,202.47"/>
		<path class="st1" d="M0,202.47"/>
		<path id="M2_2_" class="st2" d="M653.69,192.64"/>
		<path id="M1_2_" class="st3" d="M511.58,192.64"/>
		<path id="IM_4_" class="st4" d="M454.74,192.64"/>
		<path id="OM_2_" class="st3" d="M255.79,192.64"/>
	</g>
	<g id="Marker_2_">
		<line id="CM2_2_" class="st2" x1="653.69" y1="0" x2="653.69" y2="192.64"/>
		<line id="CM1_2_" class="st3" x1="511.58" y1="0" x2="511.58" y2="192.64"/>
		<line id="IM_1_" class="st4" x1="454.74" y1="0" x2="454.74" y2="192.64"/>
		<line id="MM_2_" class="st3" x1="255.79" y1="0" x2="255.79" y2="192.64"/>
	</g>
	<polyline class="st5" points="0.42,179.5 14.38,178.18 28,180 42.7,179.42 57.06,179.67 71.18,179.34 85.63,179.09 99.84,178.18 
		113.79,177.69 127.91,178.1 141.95,180.16 156.31,181.16 170.35,181.9 184.8,182.48 198.67,183.14 213.12,183.55 227.07,183.96 
		241.36,183.96 255.31,182.23 269.35,181.9 283.39,181.16 297.92,179.5 311.95,178.1 326.16,177.19 340.52,175.38 354.48,173.72 
		368.68,172.07 382.8,171.16 397.25,170.17 411.12,169.02 425.4,167.37 439.44,164.39 453.89,159.27 468.09,154.4 476.18,151.1 
		482.13,147.39 489.06,144.25 496.41,141.03 502.77,139.13 510.86,135.66 524.16,135.25 538.44,135.16 553.05,133.76 567.17,130.79 
		575.6,130.71 578.9,130.13 581.62,128.39 586.49,126.25 595.99,125.26 610.19,123.11 618.12,121.05 624.39,120.39 631.83,119.39 
		638.6,119.31 652.72,120.96 667.25,123.69 681.37,125.42 695.65,126.74 709.77,128.89 723.31,131.78 736.03,135.16 	"/>
</g>
</svg>
