<!-- Generator: Adobe Illustrator 25.0.0, SVG Export Plug-In  -->
<svg version="1.1" xmlns="http://www.w3.org/2000/svg" xmlns:xlink="http://www.w3.org/1999/xlink" x="0px" y="0px"
	 width="710.61px" height="228.66px" viewBox="0 0 710.61 228.66"
	 style="overflow:visible;enable-background:new 0 0 710.61 228.66;" xml:space="preserve">
<style type="text/css">
	.st0{fill:none;stroke:#4E4E4E;stroke-width:0.9921;stroke-miterlimit:10;}
	.st1{fill:none;stroke:#3DB54A;stroke-width:0.9921;stroke-miterlimit:10;}
	.st2{fill:none;stroke:#F79421;stroke-width:0.9921;stroke-miterlimit:10;}
	.st3{fill:none;stroke:#EC2227;stroke-width:0.9921;stroke-miterlimit:10;}
	.st4{fill:none;stroke:#67308F;stroke-width:0.9921;stroke-miterlimit:10;}
	.st5{fill:none;stroke:#000000;stroke-miterlimit:10;}
</style>
<defs>
</defs>
<g id="Normal_1_">
	<g id="Coordinates_2_">
		<path id="_x30_0_2_" class="st0" d="M0.08,228.66"/>
		<path id="_x30_1_2_" class="st1" d="M0,0"/>
		<path id="_x31_0_2_" class="st0" d="M710.61,228.66"/>
		<path id="IM_4_" class="st2" d="M511.66,223.83"/>
		<path id="MM_4_" class="st3" d="M284.29,223.83"/>
		<path id="OM_4_" class="st4" d="M85.34,223.83"/>
	</g>
	<g id="Marker_2_">
		<line id="IM_1_" class="st2" x1="511.66" y1="16.12" x2="511.66" y2="205.79"/>
		<line id="MM_1_" class="st3" x1="284.29" y1="16.12" x2="284.29" y2="205.79"/>
		<line id="OM_1_" class="st4" x1="85.34" y1="16.12" x2="85.34" y2="205.79"/>
	</g>
	<polyline class="st5" points="0.34,204.7 14.21,205.11 28.25,206.68 32.29,207.01 42.45,206.93 56.98,205.44 70.6,203.96 
		85.05,205.11 98.93,206.02 113.21,206.02 127.58,206.1 141.37,206.52 155.82,207.51 170.02,208.08 184.22,209.08 198.42,210.07 
		212.54,211.8 226.99,214.28 240.78,215.35 255.39,216.75 269.59,218.24 283.38,216.42 297.83,213.78 311.87,211.96 325.99,210.15 
		340.36,208.08 353.81,206.27 368.43,204.62 382.14,204.12 397.33,203.79 410.95,203.96 425.07,204.7 439.93,205.44 453.89,206.93 
		468.17,209.41 482.29,211.63 496.41,214.69 510.94,217.91 524.73,217.5 539.59,215.43 553.38,213.78 567.92,212.71 582.12,211.63 
		596.15,209.9 610.03,209.41 624.14,210.4 638.59,215.43 646.52,219.97 652.71,226.99 	"/>
</g>
</svg>
