<!-- Generator: Adobe Illustrator 25.0.0, SVG Export Plug-In  -->
<svg version="1.1" xmlns="http://www.w3.org/2000/svg" xmlns:xlink="http://www.w3.org/1999/xlink" x="0px" y="0px"
	 width="710.61px" height="228.67px" viewBox="0 0 710.61 228.67"
	 style="overflow:visible;enable-background:new 0 0 710.61 228.67;" xml:space="preserve">
<style type="text/css">
	.st0{fill:none;stroke:#4E4E4E;stroke-width:0.9921;stroke-miterlimit:10;}
	.st1{fill:none;stroke:#3DB54A;stroke-width:0.9921;stroke-miterlimit:10;}
	.st2{fill:none;stroke:#F79421;stroke-width:0.9921;stroke-miterlimit:10;}
	.st3{fill:none;stroke:#EC2227;stroke-width:0.9921;stroke-miterlimit:10;}
	.st4{fill:none;stroke:#67308F;stroke-width:0.9921;stroke-miterlimit:10;}
	.st5{fill:none;stroke:#000000;stroke-miterlimit:10;}
</style>
<defs>
</defs>
<g id="Normal_1_">
	<g id="Coordinates_2_">
		<path id="_x31_0_2_" class="st0" d="M710.61,228.66"/>
		<path id="_x30_1_2_" class="st1" d="M0,0"/>
		<path id="_x30_0_2_" class="st0" d="M0.08,228.66"/>
		<path id="IM_4_" class="st2" d="M511.66,217.83"/>
		<path id="MM_4_" class="st3" d="M284.29,217.83"/>
		<path id="OM_4_" class="st4" d="M85.34,217.83"/>
	</g>
	<g id="Marker_2_">
		<line id="IM_1_" class="st2" x1="511.66" y1="16.12" x2="511.66" y2="209.28"/>
		<line id="MM_1_" class="st3" x1="284.29" y1="16.12" x2="284.29" y2="209.28"/>
		<line id="OM_1_" class="st4" x1="85.34" y1="16.12" x2="85.34" y2="209.28"/>
	</g>
	<polyline class="st5" points="0.5,185.13 14.21,184.96 28.25,184.47 42.28,183.48 56.65,181.99 70.85,181.16 84.89,182.49 
		99.75,184.3 113.62,185.29 127.99,186.94 142.36,186.94 156.56,186.78 170.59,187.94 184.47,188.1 198.67,188.1 212.87,188.1 
		226.91,188.43 241.27,188.43 255.31,188.43 269.84,186.78 283.88,186.78 297.26,185.95 311.62,183.15 325.82,179.35 340.52,174.72 
		354.72,170.43 368.59,165.31 381.64,162.01 397.16,159.7 410.87,158.71 425.57,157.22 439.6,156.23 453.97,155.4 468.17,154.41 
		482.37,152.93 496.91,152.43 510.78,152.1 524.65,151.28 538.85,150.61 552.89,151.61 567.75,154.41 581.95,159.53 596.65,167.46 
		603.75,171.09 610.69,176.71 620.1,182.98 624.56,187.44 633.47,194.54 639.75,200.16 647.02,205.77 653.46,212.21 659.24,216.5 
		667.99,223.11 677.4,228.23 	"/>
</g>
</svg>
