<!-- Generator: Adobe Illustrator 25.0.0, SVG Export Plug-In  -->
<svg version="1.1" xmlns="http://www.w3.org/2000/svg" xmlns:xlink="http://www.w3.org/1999/xlink" x="0px" y="0px" width="711px"
	 height="228.66px" viewBox="0 0 711 228.66" style="overflow:visible;enable-background:new 0 0 711 228.66;" xml:space="preserve"
	>
<style type="text/css">
	.st0{fill:none;stroke:#4E4E4E;stroke-width:0.9921;stroke-miterlimit:10;}
	.st1{fill:none;stroke:#3DB54A;stroke-width:0.9921;stroke-miterlimit:10;}
	.st2{fill:none;stroke:#F79421;stroke-width:0.9921;stroke-miterlimit:10;}
	.st3{fill:none;stroke:#EC2227;stroke-width:0.9921;stroke-miterlimit:10;}
	.st4{fill:none;stroke:#67308F;stroke-width:0.9921;stroke-miterlimit:10;}
	.st5{fill:none;stroke:#000000;stroke-miterlimit:10;}
</style>
<defs>
</defs>
<g id="Normal_1_">
	<g id="Coordinates_2_">
		<path id="_x30_0_2_" class="st0" d="M0.47,228.66"/>
		<path id="_x30_1_2_" class="st1" d="M0.47,0"/>
		<path id="_x31_0_2_" class="st0" d="M711,228.66"/>
		<path id="IM_4_" class="st2" d="M512.05,218.83"/>
		<path id="MM_4_" class="st3" d="M284.68,218.83"/>
		<path id="OM_4_" class="st4" d="M85.74,218.83"/>
	</g>
	<g id="Marker_2_">
		<line id="IM_1_" class="st2" x1="512.05" y1="4.6" x2="512.05" y2="224.35"/>
		<line id="MM_1_" class="st3" x1="284.68" y1="4.6" x2="284.68" y2="224.35"/>
		<line id="OM_1_" class="st4" x1="85.74" y1="4.6" x2="85.74" y2="224.35"/>
	</g>
	<polyline class="st5" points="0.18,183.84 8.99,180.42 14.05,178.99 22.53,176.46 28.36,174.04 34.97,169.74 42.24,166.22 
		56.33,161.27 64.25,160.06 70.2,160.28 85.17,160.5 98.82,162.7 113.57,165.23 127.34,167.65 141.32,170.85 155.63,173.27 
		161.91,174.81 170.05,178.33 183.48,183.73 190.86,184.83 197.68,183.51 212.77,179.65 227.08,175.25 241.5,170.96 255.15,166.99 
		269.46,162.15 283.89,160.28 297.32,158.96 311.63,157.97 326.05,158.85 340.58,159.62 354.79,160.28 368.77,161.49 382.64,162.26 
		389.68,160.83 397.39,158.63 411.15,152.13 425.9,147.51 439.89,141.34 454.09,139.91 467.85,138.04 474.01,138.26 482.93,141.45 
		496.8,145.19 511.45,151.03 525.32,157.08 539.08,164.46 553.94,171.18 568.25,179.54 582.78,187.14 597.1,194.08 611.08,201.12 
		625.72,209.16 640.25,218.85 646.86,224.46 653.24,227.54 	"/>
</g>
</svg>
