<!-- Generator: Adobe Illustrator 25.0.0, SVG Export Plug-In  -->
<svg version="1.1" xmlns="http://www.w3.org/2000/svg" xmlns:xlink="http://www.w3.org/1999/xlink" x="0px" y="0px"
	 width="710.88px" height="228.66px" viewBox="0 0 710.88 228.66"
	 style="overflow:visible;enable-background:new 0 0 710.88 228.66;" xml:space="preserve">
<style type="text/css">
	.st0{fill:none;stroke:#4E4E4E;stroke-width:0.9921;stroke-miterlimit:10;}
	.st1{fill:none;stroke:#3DB54A;stroke-width:0.9921;stroke-miterlimit:10;}
	.st2{fill:none;stroke:#F79421;stroke-width:0.9921;stroke-miterlimit:10;}
	.st3{fill:none;stroke:#EC2227;stroke-width:0.9921;stroke-miterlimit:10;}
	.st4{fill:none;stroke:#67308F;stroke-width:0.9921;stroke-miterlimit:10;}
	.st5{fill:none;stroke:#000000;stroke-miterlimit:10;}
</style>
<defs>
</defs>
<g id="Normal_1_">
	<g id="Coordinates_2_">
		<path id="_x30_0_2_" class="st0" d="M0.36,228.66"/>
		<path id="_x30_1_2_" class="st1" d="M0.27,0"/>
		<path id="_x31_0_2_" class="st0" d="M710.88,228.66"/>
		<path id="IM_4_" class="st2" d="M511.94,218.83"/>
		<path id="MM_4_" class="st3" d="M284.57,218.83"/>
		<path id="OM_4_" class="st4" d="M85.62,218.83"/>
	</g>
	<g id="Marker_2_">
		<line id="IM_1_" class="st2" x1="511.94" y1="13.03" x2="511.94" y2="222.68"/>
		<line id="MM_1_" class="st3" x1="284.57" y1="13.03" x2="284.57" y2="222.68"/>
		<line id="OM_1_" class="st4" x1="85.62" y1="13.03" x2="85.62" y2="222.68"/>
	</g>
	<polyline class="st5" points="0.28,206.1 6.06,202.14 13.49,199.5 27.7,196.19 41.81,193.72 55.85,190.66 60.89,189.34 
		70.14,186.62 84.83,186.7 92.35,186.78 98.46,187.94 112.58,189.75 126.61,191.07 140.73,192.81 155.51,194.46 169.47,194.96 
		183.09,194.79 197.62,195.95 211.25,196.77 226.11,197.43 240.14,196.77 254.02,195.2 268.38,195.04 282.67,195.2 296.87,195.12 
		311.24,195.7 325.69,195.95 339.31,196.11 353.76,196.11 368.04,197.18 382.25,197.85 396.53,198.59 410.4,200.07 424.6,201.64 
		438.89,203.62 452.92,205.28 467.37,205.85 481.58,206.93 495.69,207.26 510.31,208.5 524.18,208.74 538.55,208.66 552.67,210.48 
		567.12,211.47 581.57,214.36 595.27,215.6 609.8,215.93 623.92,219.64 638.13,223.69 646.13,227.9 	"/>
</g>
</svg>
