<!-- Generator: Adobe Illustrator 25.0.0, SVG Export Plug-In  -->
<svg version="1.1" xmlns="http://www.w3.org/2000/svg" xmlns:xlink="http://www.w3.org/1999/xlink" x="0px" y="0px"
	 width="710.61px" height="228.66px" viewBox="0 0 710.61 228.66"
	 style="overflow:visible;enable-background:new 0 0 710.61 228.66;" xml:space="preserve">
<style type="text/css">
	.st0{fill:none;stroke:#4E4E4E;stroke-width:0.9921;stroke-miterlimit:10;}
	.st1{fill:none;stroke:#3DB54A;stroke-width:0.9921;stroke-miterlimit:10;}
	.st2{fill:none;stroke:#F79421;stroke-width:0.9921;stroke-miterlimit:10;}
	.st3{fill:none;stroke:#EC2227;stroke-width:0.9921;stroke-miterlimit:10;}
	.st4{fill:none;stroke:#67308F;stroke-width:0.9921;stroke-miterlimit:10;}
	.st5{fill:none;stroke:#000000;stroke-miterlimit:10;}
</style>
<defs>
</defs>
<g id="Normal_1_">
	<g id="Coordinates_2_">
		<path id="_x30_0_2_" class="st0" d="M0.08,228.66"/>
		<path id="_x30_1_2_" class="st1" d="M0,0"/>
		<path id="_x31_0_2_" class="st0" d="M710.61,228.66"/>
		<path id="IM_4_" class="st2" d="M511.66,218.83"/>
		<path id="MM_4_" class="st3" d="M284.29,218.83"/>
		<path id="OM_4_" class="st4" d="M85.34,218.83"/>
	</g>
	<g id="Marker_2_">
		<line id="IM_1_" class="st2" x1="511.66" y1="13.03" x2="511.66" y2="222.68"/>
		<line id="MM_1_" class="st3" x1="284.29" y1="13.03" x2="284.29" y2="222.68"/>
		<line id="OM_1_" class="st4" x1="85.34" y1="13.03" x2="85.34" y2="222.68"/>
	</g>
	<polyline class="st5" points="0.42,95.46 14.54,96.12 28.74,96.95 42.61,97.44 57.06,96.78 70.93,96.04 77.37,94.96 84.23,91.5 
		99.26,85.55 113.87,79.69 127.58,74.74 142.11,70.28 156.23,65.49 170.43,61.61 184.38,58.06 198.34,56.57 212.79,54.18 
		226.91,51.45 241.11,47.98 255.06,46.25 270.09,45.26 283.71,44.68 298,43.28 312.12,40.96 326.07,39.97 340.11,42.29 
		354.81,45.67 368.59,50.29 382.96,54.92 397.16,59.46 411.45,62.93 425.65,64.5 439.77,66.31 454.22,69.04 468.42,70.19 
		482.62,70.85 496.74,69.2 511.03,67.63 524.9,66.97 539.51,66.48 553.96,66.97 567.92,67.22 581.87,67.63 596.4,69.53 
		610.85,69.62 624.56,69.62 708.86,69.62 	"/>
</g>
</svg>
