<!-- Generator: Adobe Illustrator 25.0.0, SVG Export Plug-In  -->
<svg version="1.1" xmlns="http://www.w3.org/2000/svg" xmlns:xlink="http://www.w3.org/1999/xlink" x="0px" y="0px"
	 width="710.57px" height="228.66px" viewBox="0 0 710.57 228.66"
	 style="overflow:visible;enable-background:new 0 0 710.57 228.66;" xml:space="preserve">
<style type="text/css">
	.st0{fill:none;stroke:#4E4E4E;stroke-width:0.9921;stroke-miterlimit:10;}
	.st1{fill:none;stroke:#3DB54A;stroke-width:0.9921;stroke-miterlimit:10;}
	.st2{fill:none;stroke:#F79421;stroke-width:0.9921;stroke-miterlimit:10;}
	.st3{fill:none;stroke:#EC2227;stroke-width:0.9921;stroke-miterlimit:10;}
	.st4{fill:none;stroke:#67308F;stroke-width:0.9921;stroke-miterlimit:10;}
	.st5{fill:none;stroke:#000000;stroke-miterlimit:10;}
</style>
<defs>
</defs>
<g id="Normal_1_">
	<g id="Coordinates_2_">
		<path id="_x30_0_2_" class="st0" d="M0.04,228.66"/>
		<path id="_x30_1_2_" class="st1" d="M0.04,0"/>
		<path id="_x31_0_2_" class="st0" d="M710.57,228.66"/>
		<path id="IM_4_" class="st2" d="M511.62,218.83"/>
		<path id="MM_4_" class="st3" d="M284.25,218.83"/>
		<path id="OM_4_" class="st4" d="M85.31,218.83"/>
	</g>
	<g id="Marker_2_">
		<line id="IM_1_" class="st2" x1="511.62" y1="4.6" x2="511.62" y2="224.35"/>
		<line id="MM_1_" class="st3" x1="284.25" y1="4.6" x2="284.25" y2="224.35"/>
		<line id="OM_1_" class="st4" x1="85.31" y1="4.6" x2="85.31" y2="224.35"/>
	</g>
	<polyline class="st5" points="0.14,68.13 13.68,71.93 28.13,75.73 42.16,77.46 56.2,77.46 70.4,76.39 84.77,75.31 96.58,74.08 
		98.89,72.92 109.87,68.63 113.5,67.14 127.29,62.02 141.33,57.81 155.61,53.1 169.65,49.88 184.02,47.65 197.89,45.42 
		212.42,44.76 226.54,44.85 240.74,44.6 254.69,44.43 269.23,44.35 283.51,46.75 297.63,49.97 311.91,53.93 325.79,59.3 
		340.24,66.07 354.44,72.51 368.39,78.37 382.76,82.58 396.71,85.39 411,87.95 425.12,89.93 439.73,91.75 453.85,91.66 
		467.97,91.33 481.92,91.66 496.37,90.42 510.57,91 525.11,89.43 539.31,85.22 553.51,81.34 567.88,76.97 582.41,71.52 
		596.45,64.66 603.13,59.71 610.57,54.92 624.52,46.5 626.67,45.51 706.34,45.51 	"/>
</g>
</svg>
