<!-- Generator: Adobe Illustrator 25.0.0, SVG Export Plug-In  -->
<svg version="1.1" xmlns="http://www.w3.org/2000/svg" xmlns:xlink="http://www.w3.org/1999/xlink" x="0px" y="0px" width="737.5px"
	 height="202.47px" viewBox="0 0 737.5 202.47" style="overflow:visible;enable-background:new 0 0 737.5 202.47;"
	 xml:space="preserve">
<style type="text/css">
	.st0{fill:none;stroke:#4E4E4E;stroke-width:0.9921;stroke-miterlimit:10;}
	.st1{fill:none;stroke:#662D91;stroke-width:0.9921;stroke-miterlimit:10;}
	.st2{fill:none;stroke:#EC008C;stroke-width:0.9921;stroke-miterlimit:10;}
	.st3{fill:none;stroke:#ED1C24;stroke-width:0.9921;stroke-miterlimit:10;}
	.st4{fill:none;stroke:#F7941D;stroke-width:0.9921;stroke-miterlimit:10;}
	.st5{fill:none;stroke:#000000;stroke-miterlimit:10;}
</style>
<defs>
</defs>
<g id="Normal_1_">
	<g id="Coordinates_2_">
		<path class="st0" d="M737.5,202.47"/>
		<path class="st1" d="M0,202.47"/>
		<path id="M2_2_" class="st2" d="M653.69,192.64"/>
		<path id="M1_2_" class="st3" d="M511.58,192.64"/>
		<path id="IM_4_" class="st4" d="M454.74,192.64"/>
		<path id="OM_2_" class="st3" d="M255.79,192.64"/>
	</g>
	<g id="Marker_2_">
		<line id="CM2_2_" class="st2" x1="653.69" y1="0" x2="653.69" y2="192.64"/>
		<line id="CM1_2_" class="st3" x1="511.58" y1="0" x2="511.58" y2="192.64"/>
		<line id="IM_1_" class="st4" x1="454.74" y1="0" x2="454.74" y2="192.64"/>
		<line id="MM_2_" class="st3" x1="255.79" y1="0" x2="255.79" y2="192.64"/>
	</g>
	<polyline class="st5" points="0.26,155.56 14.35,156 28.55,157.32 42.53,157.65 56.62,157.1 70.83,153.69 84.92,150.39 
		99.12,147.63 113.21,144.66 127.3,142.57 141.51,140.59 155.6,138.72 169.8,137.61 184,136.51 198.2,136.29 211.85,135.96 
		226.06,136.29 240.26,135.96 250.39,135.85 255.23,135.63 268.77,134.2 283.08,130.13 297.28,125.5 311.93,120.44 325.47,115.38 
		339.67,109.65 353.87,103.71 367.74,97.21 376.77,93.25 382.06,91.93 396.59,87.63 410.57,83.56 424.66,79.16 438.64,75.85 
		453.17,71.89 459.78,70.68 466.72,70.9 473.65,72.66 481.47,76.84 488.62,81.47 495.78,88.18 503.05,95.34 507.01,100.18 
		510.09,104.48 514.27,109.87 516.7,112.51 524.29,114.94 532.22,115.82 538.72,116.48 546.31,116.15 552.92,114.83 560.95,113.17 
		567.12,111.63 581.21,107.89 595.74,104.15 610.05,100.18 624.26,97.87 638.02,95.89 652.11,94.24 666.64,95.12 681.06,100.07 
		695.05,104.48 709.36,110.53 722.68,113.72 737.32,116.48 	"/>
</g>
</svg>
