<!-- Generator: Adobe Illustrator 25.0.0, SVG Export Plug-In  -->
<svg version="1.1" xmlns="http://www.w3.org/2000/svg" xmlns:xlink="http://www.w3.org/1999/xlink" x="0px" y="0px"
	 width="710.61px" height="228.66px" viewBox="0 0 710.61 228.66"
	 style="overflow:visible;enable-background:new 0 0 710.61 228.66;" xml:space="preserve">
<style type="text/css">
	.st0{fill:none;stroke:#4E4E4E;stroke-width:0.9921;stroke-miterlimit:10;}
	.st1{fill:none;stroke:#3DB54A;stroke-width:0.9921;stroke-miterlimit:10;}
	.st2{fill:none;stroke:#F79421;stroke-width:0.9921;stroke-miterlimit:10;}
	.st3{fill:none;stroke:#EC2227;stroke-width:0.9921;stroke-miterlimit:10;}
	.st4{fill:none;stroke:#67308F;stroke-width:0.9921;stroke-miterlimit:10;}
	.st5{fill:none;stroke:#000000;stroke-miterlimit:10;}
</style>
<defs>
</defs>
<g id="Normal_1_">
	<g id="Coordinates_2_">
		<path id="_x30_0_2_" class="st0" d="M0.09,228.66"/>
		<path id="_x30_1_2_" class="st1" d="M0,0"/>
		<path id="_x31_0_2_" class="st0" d="M710.61,228.66"/>
		<path id="IM_4_" class="st2" d="M511.67,223.83"/>
		<path id="MM_4_" class="st3" d="M284.3,223.83"/>
		<path id="OM_4_" class="st4" d="M85.35,223.83"/>
	</g>
	<g id="Marker_2_">
		<line id="IM_1_" class="st2" x1="511.67" y1="16.12" x2="511.67" y2="205.79"/>
		<line id="MM_1_" class="st3" x1="284.3" y1="16.12" x2="284.3" y2="205.79"/>
		<line id="OM_1_" class="st4" x1="85.35" y1="16.12" x2="85.35" y2="205.79"/>
	</g>
	<polyline class="st5" points="0.12,133.41 13.99,136.94 28.2,139.47 42.45,140.3 56.66,140.79 70.69,140.9 84.89,140.35 
		98.99,139.74 113.19,138.59 127.33,138.59 141.65,139.3 156.12,140.74 169.94,142.17 184.09,145.03 198.29,146.24 212.54,146.35 
		226.64,147.45 241.06,147.78 254.93,147.29 269.13,147.18 283.61,147.62 297.37,148 311.57,150.64 325.99,153.12 339.98,156.53 
		354.34,160.66 368.71,163.97 383.08,167.38 397,169.25 411.2,170.3 425.02,171.95 439.99,172.77 453.98,174.59 468.07,174.92 
		482.1,175.25 496.69,175.3 510.78,174.26 525.37,171.51 539.13,167.38 553.44,163.69 567.7,157.8 581.9,151.25 596.16,146.13 
		610.53,141.56 627.2,136.33 710.05,136.33 	"/>
</g>
</svg>
