<!-- Generator: Adobe Illustrator 25.0.0, SVG Export Plug-In  -->
<svg version="1.1" xmlns="http://www.w3.org/2000/svg" xmlns:xlink="http://www.w3.org/1999/xlink" x="0px" y="0px"
	 width="710.71px" height="228.66px" viewBox="0 0 710.71 228.66"
	 style="overflow:visible;enable-background:new 0 0 710.71 228.66;" xml:space="preserve">
<style type="text/css">
	.st0{fill:none;stroke:#4E4E4E;stroke-width:0.9921;stroke-miterlimit:10;}
	.st1{fill:none;stroke:#3DB54A;stroke-width:0.9921;stroke-miterlimit:10;}
	.st2{fill:none;stroke:#F79421;stroke-width:0.9921;stroke-miterlimit:10;}
	.st3{fill:none;stroke:#EC2227;stroke-width:0.9921;stroke-miterlimit:10;}
	.st4{fill:none;stroke:#67308F;stroke-width:0.9921;stroke-miterlimit:10;}
	.st5{fill:none;stroke:#000000;stroke-miterlimit:10;}
</style>
<defs>
</defs>
<g id="Normal_1_">
	<g id="Coordinates_2_">
		<path id="_x31_0_2_" class="st0" d="M710.71,228.66"/>
		<path id="_x30_1_2_" class="st1" d="M0.1,0"/>
		<path id="_x30_0_2_" class="st0" d="M0.18,228.66"/>
		<path id="IM_4_" class="st2" d="M511.76,217.83"/>
		<path id="MM_4_" class="st3" d="M284.4,217.83"/>
		<path id="OM_4_" class="st4" d="M85.45,217.83"/>
	</g>
	<g id="Marker_2_">
		<line id="IM_1_" class="st2" x1="511.76" y1="16.12" x2="511.76" y2="209.28"/>
		<line id="MM_1_" class="st3" x1="284.4" y1="16.12" x2="284.4" y2="209.28"/>
		<line id="OM_1_" class="st4" x1="85.45" y1="16.12" x2="85.45" y2="209.28"/>
	</g>
	<polyline class="st5" points="0.22,140.87 13.98,134.05 28.41,127.77 42.61,122.93 56.59,117.86 62.42,115.66 70.79,111.04 
		85.54,105.53 99.19,102.56 113.95,100.03 128.04,98.05 142.35,96.61 156.33,95.07 169.87,94.96 184.63,96.06 198.83,95.62 
		213.25,95.07 227.56,94.85 241.65,93.75 255.85,92.76 270.39,91.99 284.48,92.43 298.24,92.21 312.66,91 327.19,90.12 
		341.18,90.78 355.38,90.12 369.8,88.69 383.89,87.7 397.87,87.15 412.4,86.16 426.39,85.06 441.03,84.5 454.79,81.97 469.76,78.67 
		482.97,75.92 497.73,72.72 511.49,69.09 526.24,60.5 540.22,51.59 548.15,46.96 554.64,45.75 569.07,44.76 583.38,44.32 
		598.46,43.22 612.33,42.45 626.2,45.31 632.92,48.5 	"/>
</g>
</svg>
