<!-- Generator: Adobe Illustrator 25.0.0, SVG Export Plug-In  -->
<svg version="1.1" xmlns="http://www.w3.org/2000/svg" xmlns:xlink="http://www.w3.org/1999/xlink" x="0px" y="0px"
	 width="711.22px" height="228.66px" viewBox="0 0 711.22 228.66"
	 style="overflow:visible;enable-background:new 0 0 711.22 228.66;" xml:space="preserve">
<style type="text/css">
	.st0{fill:none;stroke:#4E4E4E;stroke-width:0.9921;stroke-miterlimit:10;}
	.st1{fill:none;stroke:#3DB54A;stroke-width:0.9921;stroke-miterlimit:10;}
	.st2{fill:none;stroke:#F79421;stroke-width:0.9921;stroke-miterlimit:10;}
	.st3{fill:none;stroke:#EC2227;stroke-width:0.9921;stroke-miterlimit:10;}
	.st4{fill:none;stroke:#67308F;stroke-width:0.9921;stroke-miterlimit:10;}
	.st5{fill:none;stroke:#000000;stroke-miterlimit:10;}
</style>
<defs>
</defs>
<g id="Normal_1_">
	<g id="Coordinates_2_">
		<path id="_x30_0_2_" class="st0" d="M0.15,228.66"/>
		<path id="_x30_1_2_" class="st1" d="M0.07,0"/>
		<path id="_x31_0_2_" class="st0" d="M710.68,228.66"/>
		<path id="IM_4_" class="st2" d="M511.73,223.83"/>
		<path id="MM_4_" class="st3" d="M284.36,223.83"/>
		<path id="OM_4_" class="st4" d="M85.41,223.83"/>
	</g>
	<g id="Marker_2_">
		<line id="IM_1_" class="st2" x1="511.73" y1="16.12" x2="511.73" y2="205.79"/>
		<line id="MM_1_" class="st3" x1="284.36" y1="16.12" x2="284.36" y2="205.79"/>
		<line id="OM_1_" class="st4" x1="85.41" y1="16.12" x2="85.41" y2="205.79"/>
	</g>
	<polyline class="st5" points="0.08,173.57 14.12,171.34 27.99,170.93 42.6,169.94 56.97,169.77 71.09,170.52 85.04,169.94 
		99.74,170.02 113.78,171.01 127.65,171.18 142.43,171.09 156.38,170.43 170.42,170.6 184.7,170.35 198.41,170.52 213.11,170.19 
		227.39,170.6 240.85,169.44 255.63,169.03 269.75,169.52 283.87,169.03 298.15,168.45 312.27,167.79 326.55,166.88 341,167.71 
		355.12,167.96 369,168.7 383.61,170.27 397.56,170.02 411.68,170.43 425.8,170.35 440.25,170.93 454.54,171.67 468.57,172.99 
		482.86,173.57 497.14,173.16 511.92,172.41 525.46,172.25 540.16,173.32 554.11,173.9 568.48,173.08 582.77,172.83 597.13,172.74 
		610.92,172.25 625.37,172.99 640.15,173.9 654.27,171.59 668.55,171.18 682.43,170.43 690.35,169.03 697.37,169.61 711.08,173.74 	
		"/>
</g>
</svg>
