<!-- Generator: Adobe Illustrator 25.0.0, SVG Export Plug-In  -->
<svg version="1.1" xmlns="http://www.w3.org/2000/svg" xmlns:xlink="http://www.w3.org/1999/xlink" x="0px" y="0px"
	 width="710.53px" height="228.66px" viewBox="0 0 710.53 228.66"
	 style="overflow:visible;enable-background:new 0 0 710.53 228.66;" xml:space="preserve">
<style type="text/css">
	.st0{fill:none;stroke:#4E4E4E;stroke-width:0.9921;stroke-miterlimit:10;}
	.st1{fill:none;stroke:#3DB54A;stroke-width:0.9921;stroke-miterlimit:10;}
	.st2{fill:none;stroke:#F79421;stroke-width:0.9921;stroke-miterlimit:10;}
	.st3{fill:none;stroke:#EC2227;stroke-width:0.9921;stroke-miterlimit:10;}
	.st4{fill:none;stroke:#67308F;stroke-width:0.9921;stroke-miterlimit:10;}
	.st5{fill:none;stroke:#000000;stroke-miterlimit:10;}
</style>
<defs>
</defs>
<g id="Normal_1_">
	<g id="Coordinates_2_">
		<path id="_x30_0_2_" class="st0" d="M0,228.66"/>
		<path id="_x30_1_2_" class="st1" d="M0,0"/>
		<path id="_x31_0_2_" class="st0" d="M710.53,228.66"/>
		<path id="IM_4_" class="st2" d="M511.58,218.83"/>
		<path id="MM_4_" class="st3" d="M284.21,218.83"/>
		<path id="OM_4_" class="st4" d="M85.26,218.83"/>
	</g>
	<g id="Marker_2_">
		<line id="IM_1_" class="st2" x1="511.58" y1="4.6" x2="511.58" y2="224.35"/>
		<line id="MM_1_" class="st3" x1="284.21" y1="4.6" x2="284.21" y2="224.35"/>
		<line id="OM_1_" class="st4" x1="85.26" y1="4.6" x2="85.26" y2="224.35"/>
	</g>
	<polyline class="st5" points="1.08,173.98 14.29,175.39 22.06,176.71 28.5,177.86 34.85,177.78 42.95,178.69 50.46,179.43 
		57.06,180.01 71.02,182.98 85.55,185.71 91.17,186.53 99.34,189.26 104.87,190.5 114.12,192.97 127.91,195.2 141.78,196.94 
		147.81,198.59 156.48,198.18 160.94,197.19 170.35,193.55 175.72,191.74 184.39,186.95 194.21,182.9 198.75,179.02 207.75,174.48 
		212.87,169.69 218.98,165.89 222.53,164.41 227.07,160.69 241.03,147.81 255.39,135.42 269.51,124.19 283.63,112.06 297.75,100.08 
		305.51,91.99 312.04,84.64 316,80.27 326.49,67.55 333.75,59.3 337.55,56.9 340.52,55.66 346.47,55.66 350.35,56.32 354.97,58.14 
		359.93,60.37 368.84,63.92 382.96,68.46 397.08,72.34 411.12,76.97 425.65,80.6 439.77,83.41 454.05,85.47 468.34,87.86 
		482.62,90.59 496.83,92.49 510.61,94.72 524.9,91.99 531.75,90.75 539.43,87.7 548.18,85.55 553.63,83.57 558.42,81.09 
		564.04,76.88 567.83,73.99 574.77,69.7 582.12,66.81 596.32,62.27 601.11,60.2 610.61,55.08 617.54,47.32 623.98,40.72 
		636.61,33.95 	"/>
</g>
</svg>
