<!-- Generator: Adobe Illustrator 25.0.0, SVG Export Plug-In  -->
<svg version="1.1" xmlns="http://www.w3.org/2000/svg" xmlns:xlink="http://www.w3.org/1999/xlink" x="0px" y="0px"
	 width="710.88px" height="228.66px" viewBox="0 0 710.88 228.66"
	 style="overflow:visible;enable-background:new 0 0 710.88 228.66;" xml:space="preserve">
<style type="text/css">
	.st0{fill:none;stroke:#4E4E4E;stroke-width:0.9921;stroke-miterlimit:10;}
	.st1{fill:none;stroke:#3DB54A;stroke-width:0.9921;stroke-miterlimit:10;}
	.st2{fill:none;stroke:#F79421;stroke-width:0.9921;stroke-miterlimit:10;}
	.st3{fill:none;stroke:#EC2227;stroke-width:0.9921;stroke-miterlimit:10;}
	.st4{fill:none;stroke:#67308F;stroke-width:0.9921;stroke-miterlimit:10;}
	.st5{fill:none;stroke:#000000;stroke-miterlimit:10;}
</style>
<defs>
</defs>
<g id="Normal_1_">
	<g id="Coordinates_2_">
		<path id="_x30_0_2_" class="st0" d="M0.32,228.66"/>
		<path id="_x30_1_2_" class="st1" d="M0.24,0"/>
		<path id="_x31_0_2_" class="st0" d="M710.84,228.66"/>
		<path id="IM_4_" class="st2" d="M511.9,218.83"/>
		<path id="MM_4_" class="st3" d="M284.53,218.83"/>
		<path id="OM_4_" class="st4" d="M85.58,218.83"/>
	</g>
	<g id="Marker_2_">
		<line id="IM_1_" class="st2" x1="511.9" y1="13.03" x2="511.9" y2="222.68"/>
		<line id="MM_1_" class="st3" x1="284.53" y1="13.03" x2="284.53" y2="222.68"/>
		<line id="OM_1_" class="st4" x1="85.58" y1="13.03" x2="85.58" y2="222.68"/>
	</g>
	<polyline class="st5" points="0.02,153.59 13.46,152.93 27.77,151.83 41.86,150.73 56.17,148.3 70.04,146.98 85.02,147.42 
		99.11,148.08 113.2,146.54 117.38,145.66 127.51,141.48 141.82,135.31 156.35,129.59 170.01,123.2 183.88,119.46 197.97,116.16 
		212.72,112.85 226.81,108.01 241.35,104.27 255.44,100.96 269.75,97.88 283.4,93.26 297.93,87.97 311.86,83.07 326.56,78.45 
		341.09,73.66 354.46,69.04 369.33,64.91 382.54,60.29 397.07,53.68 401.36,51.86 411.44,50.05 414.74,49.72 425.8,53.35 
		432.57,56.49 440.5,62.76 446.45,67.72 453.88,75.64 459.16,80.27 468.24,88.36 474.52,94.96 482.45,105.53 489.38,114.62 
		497.14,123.53 505.4,131.79 511.34,139.39 520.43,148.63 525.71,152.76 533.31,157.72 539.75,161.18 554.12,164.16 568.98,165.31 
		578.56,165.64 583.01,164.82 593.58,161.85 597.55,160.85 603.99,159.53 610.76,158.87 619.67,158.87 625.45,158.54 630.9,158.87 
		639.66,159.2 654.85,158.87 668.72,158.54 682.76,158.21 697.12,157.88 710.83,156.56 	"/>
</g>
</svg>
