<!-- Generator: Adobe Illustrator 25.0.0, SVG Export Plug-In  -->
<svg version="1.1" xmlns="http://www.w3.org/2000/svg" xmlns:xlink="http://www.w3.org/1999/xlink" x="0px" y="0px"
	 width="710.61px" height="228.66px" viewBox="0 0 710.61 228.66"
	 style="overflow:visible;enable-background:new 0 0 710.61 228.66;" xml:space="preserve">
<style type="text/css">
	.st0{fill:none;stroke:#4E4E4E;stroke-width:0.9921;stroke-miterlimit:10;}
	.st1{fill:none;stroke:#3DB54A;stroke-width:0.9921;stroke-miterlimit:10;}
	.st2{fill:none;stroke:#F79421;stroke-width:0.9921;stroke-miterlimit:10;}
	.st3{fill:none;stroke:#EC2227;stroke-width:0.9921;stroke-miterlimit:10;}
	.st4{fill:none;stroke:#67308F;stroke-width:0.9921;stroke-miterlimit:10;}
	.st5{fill:none;stroke:#000000;stroke-miterlimit:10;}
</style>
<defs>
</defs>
<g id="Normal_1_">
	<g id="Coordinates_2_">
		<path id="_x31_0_2_" class="st0" d="M710.61,228.66"/>
		<path id="_x30_1_2_" class="st1" d="M0,0"/>
		<path id="_x30_0_2_" class="st0" d="M0.08,228.66"/>
		<path id="IM_4_" class="st2" d="M511.66,217.83"/>
		<path id="MM_4_" class="st3" d="M284.29,217.83"/>
		<path id="OM_4_" class="st4" d="M85.34,217.83"/>
	</g>
	<g id="Marker_2_">
		<line id="IM_1_" class="st2" x1="511.66" y1="16.12" x2="511.66" y2="209.28"/>
		<line id="MM_1_" class="st3" x1="284.29" y1="16.12" x2="284.29" y2="209.28"/>
		<line id="OM_1_" class="st4" x1="85.34" y1="16.12" x2="85.34" y2="209.28"/>
	</g>
	<polyline class="st5" points="0.26,166.47 8.43,169.19 14.54,169.61 28.58,171.26 36.42,171.83 42.86,171.5 56.49,171.42 
		71.02,172.99 85.3,172.99 99.59,173.49 114.04,173.32 127.99,173.32 142.19,172.66 156.39,171.75 170.35,171.34 184.8,170.43 
		198.5,170.43 213.28,169.77 220.63,169.44 227.24,167.54 236.32,165.31 241.36,163.08 249.04,159.61 255.64,154.83 262.58,148.05 
		269.84,141.94 275.54,136.58 283.63,133.44 290.73,131.05 297.59,128.32 302.79,125.6 311.95,121.05 326.57,114.04 340.69,109 
		354.72,105.04 361.66,102.72 368.68,99.59 375.2,97.52 383.13,96.12 397.25,94.39 411.28,92.73 425.57,92.57 439.93,94.55 
		454.05,95.87 468.34,97.36 482.37,99.83 497.32,103.88 511.36,106.52 525.56,110.32 539.84,115.69 554.04,120.31 568.33,124.19 
		582.61,129.89 596.81,135.17 610.85,140.46 625.63,147.64 639.67,154.25 	"/>
</g>
</svg>
