<!-- Generator: Adobe Illustrator 25.0.0, SVG Export Plug-In  -->
<svg version="1.1" xmlns="http://www.w3.org/2000/svg" xmlns:xlink="http://www.w3.org/1999/xlink" x="0px" y="0px"
	 width="737.68px" height="202.47px" viewBox="0 0 737.68 202.47"
	 style="overflow:visible;enable-background:new 0 0 737.68 202.47;" xml:space="preserve">
<style type="text/css">
	.st0{fill:none;stroke:#4E4E4E;stroke-width:0.9921;stroke-miterlimit:10;}
	.st1{fill:none;stroke:#662D91;stroke-width:0.9921;stroke-miterlimit:10;}
	.st2{fill:none;stroke:#EC008C;stroke-width:0.9921;stroke-miterlimit:10;}
	.st3{fill:none;stroke:#ED1C24;stroke-width:0.9921;stroke-miterlimit:10;}
	.st4{fill:none;stroke:#F7941D;stroke-width:0.9921;stroke-miterlimit:10;}
	.st5{fill:none;stroke:#000000;stroke-miterlimit:10;}
</style>
<defs>
</defs>
<g id="Normal_1_">
	<g id="Coordinates_2_">
		<path class="st0" d="M737.5,202.47"/>
		<path class="st1" d="M0,202.47"/>
		<path id="M2_2_" class="st2" d="M653.69,192.64"/>
		<path id="M1_2_" class="st3" d="M511.58,192.64"/>
		<path id="IM_4_" class="st4" d="M454.74,192.64"/>
		<path id="OM_2_" class="st3" d="M255.79,192.64"/>
	</g>
	<g id="Marker_2_">
		<line id="CM2_2_" class="st2" x1="653.69" y1="0" x2="653.69" y2="192.64"/>
		<line id="CM1_2_" class="st3" x1="511.58" y1="0" x2="511.58" y2="192.64"/>
		<line id="IM_1_" class="st4" x1="454.74" y1="0" x2="454.74" y2="192.64"/>
		<line id="MM_2_" class="st3" x1="255.79" y1="0" x2="255.79" y2="192.64"/>
	</g>
	<polyline class="st5" points="0.42,142.73 10.72,146.92 13.96,147.91 28.33,147.3 42.37,146.04 56.95,145.21 71.16,144.94 
		85.36,145.16 99.4,145.49 113.71,144.05 127.8,143.78 141.73,143.67 155.98,142.95 170.18,141.19 184.47,138.22 198.42,134.17 
		212.87,128.81 226.74,122.2 240.95,114.94 252.84,108.83 269.18,104.61 283.72,100.73 297.75,100.32 306.09,99.99 312.04,98.75 
		326.07,96.77 340.19,95.78 354.64,94.21 368.76,92.81 382.72,92.23 396.67,92.97 410.71,92.81 425.4,92.89 439.52,92.15 
		453.56,92.06 462.06,91.9 468.34,85.54 481.96,72.5 488.49,65.06 491.05,57.3 496.33,52.02 500.38,47.64 510.53,45.25 
		524.57,46.07 539.1,45.91 553.22,46.57 567.34,47.56 581.71,49.87 596.49,53.09 610.11,57.88 624.56,63.33 639.17,67.38 
		653.05,71.26 667.66,75.96 681.61,85.38 696.06,95.37 710.6,106.51 723.06,116.26 732.89,123.69 737.27,130.05 	"/>
</g>
</svg>
